<svg fill="#000000" xmlns="http://www.w3.org/2000/svg"  viewBox="0 0 24 24" width="32px" height="32px"><path d="M 11.96875 1.25 A 0.75 0.75 0 0 0 11.9375 1.2539062 A 11.133 11.133 0 0 0 10.470703 1.359375 A 0.761 0.761 0 0 0 9.8300781 2.2109375 A 0.762 0.762 0 0 0 10.580078 2.8496094 A 0.34 0.34 0 0 0 10.679688 2.8398438 A 9.649 9.649 0 0 1 12 2.75 A 9.25 9.25 0 0 1 12 21.25 A 9.409 9.409 0 0 1 10.160156 21.070312 A 0.7491662 0.7491662 0 0 0 9.8691406 22.539062 A 10.76 10.76 0 0 0 11.925781 22.746094 A 0.75 0.75 0 0 0 12 22.75 A 10.75 10.75 0 0 0 12.058594 1.2519531 A 0.75 0.75 0 0 0 12 1.25 A 0.75 0.75 0 0 0 11.96875 1.25 z M 7.7226562 2.2109375 A 0.759 0.759 0 0 0 7.390625 2.2792969 A 11.019 11.019 0 0 0 5.5605469 3.390625 A 0.75 0.75 0 0 0 5.4101562 4.4394531 A 0.726 0.726 0 0 0 6.0097656 4.7402344 A 0.783 0.783 0 0 0 6.4609375 4.5898438 A 8.717 8.717 0 0 1 8.0390625 3.640625 A 0.752 0.752 0 0 0 8.390625 2.640625 A 0.759 0.759 0 0 0 7.7226562 2.2109375 z M 12 4 A 8 8 0 1 0 20 12 A 8 8 0 0 0 12 4 z M 3.8632812 5.3710938 A 0.743 0.743 0 0 0 3.3007812 5.6796875 A 11.037 11.037 0 0 0 2.2207031 7.5292969 A 0.757 0.757 0 0 0 2.5898438 8.5292969 A 0.87 0.87 0 0 0 2.9003906 8.5996094 A 0.745 0.745 0 0 0 3.5800781 8.1601562 A 9.189 9.189 0 0 1 4.5195312 6.5605469 A 0.741 0.741 0 0 0 4.3496094 5.5195312 A 0.743 0.743 0 0 0 3.8632812 5.3710938 z M 12.021484 7.25 A 0.75 0.75 0 0 1 12.75 8 L 12.75 11.539062 L 14.339844 12.330078 A 0.745 0.745 0 0 1 14.669922 13.339844 A 0.753 0.753 0 0 1 14 13.75 A 0.844 0.844 0 0 1 13.660156 13.669922 L 11.660156 12.669922 A 0.76 0.76 0 0 1 11.25 12 L 11.25 8 A 0.75 0.75 0 0 1 12.021484 7.25 z M 2.0839844 9.9648438 A 0.75103262 0.75103262 0 0 0 1.3398438 10.619141 A 10.659 10.659 0 0 0 1.25 12 C 1.25 12.26 1.2592969 12.509531 1.2792969 12.769531 A 0.742 0.742 0 0 0 2.0195312 13.460938 L 2.0800781 13.460938 A 0.749 0.749 0 0 0 2.7695312 12.660156 C 2.7595313 12.440156 2.75 12.22 2.75 12 A 9.514 9.514 0 0 1 2.8300781 10.810547 A 0.75103262 0.75103262 0 0 0 2.0839844 9.9648438 z M 2.6816406 14.878906 A 0.75026662 0.75026662 0 0 0 1.9804688 15.900391 A 10.434 10.434 0 0 0 2.9609375 17.810547 A 0.737 0.737 0 0 0 3.9902344 18.039062 A 0.758 0.758 0 0 0 4.2207031 17 A 8.757 8.757 0 0 1 3.3808594 15.359375 A 0.75026662 0.75026662 0 0 0 2.6816406 14.878906 z M 5.5605469 18.904297 A 0.74518454 0.74518454 0 0 0 5.0800781 20.220703 A 10.9 10.9 0 0 0 6.8496094 21.439453 A 0.745 0.745 0 0 0 7.859375 21.140625 A 0.75 0.75 0 0 0 7.5703125 20.119141 A 10.048 10.048 0 0 1 6.0390625 19.080078 A 0.74518454 0.74518454 0 0 0 5.5605469 18.904297 z"/></svg>