<svg fill="#000000" xmlns="http://www.w3.org/2000/svg"  viewBox="0 0 72 72" width="64px" height="64px"><path d="M 29 12 C 26.239 12 24 14.239 24 17 L 24 40 L 43 40 C 46.866 40 50 43.134 50 47 L 50 50 C 50 52.761 52.239 55 55 55 C 57.761 55 60 52.761 60 50 L 60 17 C 60 14.239 57.761 12 55 12 L 29 12 z M 34.5 20 C 35.328 20 36 20.672 36 21.5 C 36 22.328 35.328 23 34.5 23 C 33.672 23 33 22.328 33 21.5 C 33 20.672 33.672 20 34.5 20 z M 40.5 20 L 48.5 20 C 49.328 20 50 20.672 50 21.5 C 50 22.328 49.328 23 48.5 23 L 40.5 23 C 39.672 23 39 22.328 39 21.5 C 39 20.672 39.672 20 40.5 20 z M 34.5 27 C 35.328 27 36 27.672 36 28.5 C 36 29.328 35.328 30 34.5 30 C 33.672 30 33 29.328 33 28.5 C 33 27.672 33.672 27 34.5 27 z M 40.5 27 L 48.5 27 C 49.328 27 50 27.672 50 28.5 C 50 29.328 49.328 30 48.5 30 L 40.5 30 C 39.672 30 39 29.328 39 28.5 C 39 27.672 39.672 27 40.5 27 z M 19 43 C 16.239 43 14 45.239 14 48 L 14 49 C 14 53.971 18.029 58 23 58 L 48.769531 58 C 49.685531 58 50.1175 56.876672 49.4375 56.263672 C 48.1465 55.098672 47 53.17 47 50 L 47 48 C 47 45.239 44.761 43 42 43 L 19 43 z"/></svg>