<svg width="800" height="600" viewBox="0 0 800 600" fill="none" xmlns="http://www.w3.org/2000/svg">
<g clip-path="url(#clip0_880_2041)">
<path d="M211 239H301V442H211V239Z" fill="#F8F8F9"/>
</g>
<g clip-path="url(#clip1_880_2041)">
<path d="M567 190H678V440H567V190Z" fill="#F8F8F9"/>
</g>
<g clip-path="url(#clip2_880_2041)">
<path d="M661 138H753V438H661V138Z" fill="#F3F4F6"/>
<path d="M677 154.602H683V186.602H677V154.602ZM695 154.602H701V186.602H695V154.602ZM713 154.602H719V186.602H713V154.602ZM731 154.602H737V186.602H731V154.602ZM677 208.034H683V220.748H677V208.034ZM695 208.034H701V220.748H695V208.034ZM713 208.034H719V220.748H713V208.034ZM731 208.034H737V220.748H731V208.034ZM677 233.745H683V246.459H677V233.745ZM695 233.745H701V246.459H695V233.745ZM713 233.745H719V246.459H713V233.745ZM731 233.745H737V246.459H731V233.745ZM677 259.456H683V272.17H677V259.456ZM695 259.456H701V272.17H695V259.456ZM713 259.456H719V272.17H713V259.456ZM731 259.456H737V272.17H731V259.456ZM677 285.167H683V297.881H677V285.167ZM695 285.167H701V297.881H695V285.167ZM713 285.167H719V297.881H713V285.167ZM731 285.167H737V297.881H731V285.167Z" fill="white"/>
</g>
<g clip-path="url(#clip3_880_2041)">
<path d="M125 241H215V444H125V241Z" fill="#F8F8F9"/>
</g>
<g clip-path="url(#clip4_880_2041)">
<path d="M46 143H138V443H46V143Z" fill="#F3F4F6"/>
<path d="M62 159.602H68V191.602H62V159.602ZM80 159.602H86V191.602H80V159.602ZM98 159.602H104V191.602H98V159.602ZM116 159.602H122V191.602H116V159.602ZM62 213.034H68V225.748H62V213.034ZM80 213.034H86V225.748H80V213.034ZM98 213.034H104V225.748H98V213.034ZM116 213.034H122V225.748H116V213.034ZM62 238.745H68V251.459H62V238.745ZM80 238.745H86V251.459H80V238.745ZM98 238.745H104V251.459H98V238.745ZM116 238.745H122V251.459H116V238.745ZM62 264.456H68V277.17H62V264.456ZM80 264.456H86V277.17H80V264.456ZM98 264.456H104V277.17H98V264.456ZM116 264.456H122V277.17H116V264.456ZM62 290.167H68V302.881H62V290.167ZM80 290.167H86V302.881H80V290.167ZM98 290.167H104V302.881H98V290.167ZM116 290.167H122V302.881H116V290.167Z" fill="white"/>
</g>
<g clip-path="url(#clip5_880_2041)">
<path d="M350.005 404.634H347.33V356.012C347.33 355.312 347.204 354.617 346.958 353.962L334.87 321.68C333.806 318.838 331.896 316.387 329.396 314.657C326.896 312.927 323.926 312 320.884 312H169.832C163.434 312 157.185 313.92 151.896 317.511L103.626 350.28C100.079 352.687 96.1455 354.472 91.995 355.557L54.6809 365.304L39.632 395.836V397.561L38.9717 397.248C38.6549 397.098 38.3051 397.03 37.9549 397.051C37.6048 397.071 37.2656 397.18 36.969 397.367C36.6724 397.554 36.428 397.813 36.2585 398.119C36.0891 398.425 36.0002 398.769 36 399.119V411.143C36 411.914 36.4289 412.621 37.1143 412.979L57.7933 423.783L61.944 423.702V419.902C61.944 405.182 73.9086 393.25 88.6662 393.25C103.425 393.25 115.388 405.183 115.388 419.902V423.347L266.384 421.569V419.902C266.384 405.182 278.349 393.25 293.106 393.25C307.865 393.25 319.828 405.183 319.828 419.902V420.94L342.098 420.678H350.005C350.534 420.678 351.042 420.468 351.416 420.095C351.79 419.722 352 419.216 352 418.688V406.624C352 406.096 351.79 405.59 351.416 405.217C351.042 404.844 350.534 404.634 350.005 404.634Z" fill="white"/>
<path d="M87.8882 445C100.211 445 110.2 435.037 110.2 422.747C110.2 410.457 100.211 400.494 87.8882 400.494C75.5656 400.494 65.5762 410.457 65.5762 422.747C65.5762 435.037 75.5656 445 87.8882 445Z" fill="#8E91A2"/>
<path d="M294.174 445C306.497 445 316.486 435.037 316.486 422.747C316.486 410.457 306.497 400.494 294.174 400.494C281.852 400.494 271.862 410.457 271.862 422.747C271.862 435.037 281.852 445 294.174 445Z" fill="#8E91A2"/>
<path d="M87.8884 436.719C95.6256 436.719 101.898 430.464 101.898 422.747C101.898 415.03 95.6256 408.775 87.8884 408.775C80.1512 408.775 73.8789 415.03 73.8789 422.747C73.8789 430.464 80.1512 436.719 87.8884 436.719Z" fill="#D2D3DA"/>
<path d="M294.175 436.719C301.912 436.719 308.184 430.464 308.184 422.747C308.184 415.03 301.912 408.775 294.175 408.775C286.437 408.775 280.165 415.03 280.165 422.747C280.165 430.464 286.437 436.719 294.175 436.719Z" fill="#D2D3DA"/>
<path d="M179.479 356.881L164.589 361.412C159.471 362.969 154.233 364.101 148.929 364.797L100.178 371.194C99.9362 371.226 99.6906 371.193 99.4662 371.098C99.2418 371.004 99.0468 370.851 98.9012 370.656C98.7557 370.461 98.6648 370.231 98.6381 369.99C98.6114 369.748 98.6498 369.504 98.7493 369.282L104.345 356.832C104.441 356.618 104.591 356.433 104.779 356.294L152.385 321.068C152.621 320.893 152.907 320.799 153.201 320.799H191.601C192.449 320.799 193.093 321.559 192.951 322.393L188.915 346.177C188.494 348.659 187.388 350.975 185.722 352.866C184.055 354.756 181.894 356.147 179.479 356.881V356.881Z" fill="#ECEDF0"/>
<path d="M174.355 375.136H190.815C191.572 375.136 192.185 374.524 192.185 373.77V367.355C192.185 366.538 191.471 365.904 190.657 365.999L176.61 367.636C175.612 367.752 174.691 368.23 174.023 368.979C173.354 369.728 172.985 370.695 172.985 371.698V373.771C172.985 374.524 173.599 375.136 174.355 375.136V375.136Z" fill="#8E91A2"/>
<path d="M53.2938 368.1L70.3108 363.865C72.4805 363.325 74.1005 365.836 72.7109 367.582L63.6912 378.908C63.4719 379.183 63.1933 379.405 62.876 379.558C62.5588 379.711 62.211 379.79 61.8587 379.79H47.543" fill="#E1E2E7"/>
<path d="M252.86 408.236L250.95 416.436H204.075V325.369C204.075 323.559 204.796 321.822 206.08 320.541C207.364 319.261 209.106 318.541 210.921 318.541H271.948C273.764 318.541 275.505 319.261 276.789 320.541C278.073 321.822 278.794 323.559 278.794 325.369V386.421L273.116 387.804C268.175 389.008 263.666 391.555 260.09 395.162C256.514 398.769 254.011 403.294 252.86 408.236V408.236Z" fill="#F7F8FA"/>
<path d="M220.059 379.276H211.008C210.282 379.276 209.585 378.988 209.072 378.476C208.558 377.964 208.27 377.269 208.27 376.545V365.447C208.27 364.723 208.558 364.028 209.072 363.516C209.585 363.004 210.282 362.716 211.008 362.716H220.059C220.786 362.716 221.482 363.004 221.996 363.516C222.509 364.028 222.798 364.723 222.798 365.447V376.545C222.798 376.904 222.727 377.259 222.59 377.59C222.452 377.922 222.25 378.223 221.996 378.476C221.742 378.73 221.44 378.931 221.107 379.068C220.775 379.206 220.419 379.276 220.059 379.276V379.276Z" fill="#D2D3DA"/>
<path d="M212.939 364.269H218.129V378.241H212.939V364.269Z" fill="#8E91A2"/>
</g>
<g clip-path="url(#clip6_880_2041)">
<path d="M271 248H384V619H271V248Z" fill="#F3F4F6"/>
<path d="M290.652 268.531H298.022V308.104H290.652V268.531ZM312.761 268.531H320.131V308.104H312.761V268.531ZM334.87 268.531H342.239V308.104H334.87V268.531ZM356.978 268.531H364.348V308.104H356.978V268.531ZM290.652 334.609H298.022V350.332H290.652V334.609ZM312.761 334.609H320.131V350.332H312.761V334.609ZM334.87 334.609H342.239V350.332H334.87V334.609ZM356.978 334.609H364.348V350.332H356.978V334.609ZM290.652 366.405H298.022V382.128H290.652V366.405ZM312.761 366.405H320.131V382.128H312.761V366.405ZM334.87 366.405H342.239V382.128H334.87V366.405ZM356.978 366.405H364.348V382.128H356.978V366.405ZM290.652 398.201H298.022V413.924H290.652V398.201ZM312.761 398.201H320.131V413.924H312.761V398.201ZM334.87 398.201H342.239V413.924H334.87V398.201ZM356.978 398.201H364.348V413.924H356.978V398.201ZM290.652 429.997H298.022V445.719H290.652V429.997ZM312.761 429.997H320.131V445.719H312.761V429.997ZM334.87 429.997H342.239V445.719H334.87V429.997ZM356.978 429.997H364.348V445.719H356.978V429.997Z" fill="white"/>
</g>
<g clip-path="url(#clip7_880_2041)">
<path d="M493 140.397H585V440H493V140.397Z" fill="#F3F4F6"/>
<path d="M478 140H576V145.992H478V140Z" fill="#F3F4F6"/>
<path d="M503 154.98H571V161.971H503V154.98ZM503 179.448H571V186.438H503V179.448ZM503 203.915H571V210.906H503V203.915ZM503 228.383H571V235.373H503V228.383ZM503 252.85H571V259.841H503V252.85ZM503 277.318H571V284.309H503V277.318ZM503 301.785H571V308.776H503V301.785ZM503 326.253H571V333.244H503V326.253ZM503 350.72H571V357.711H503V350.72ZM503 375.188H571V382.179H503V375.188Z" fill="white"/>
</g>
<g clip-path="url(#clip8_880_2041)">
<path d="M472.585 430.982C476.618 405.167 498.567 382.974 528.531 373.522C531.251 372.664 531.067 368.733 528.281 368.142C517.357 365.822 498.775 365.259 482.61 381.384C461.472 402.469 467.726 431.094 467.726 431.094L472.585 430.982Z" fill="#DDDEE3"/>
<path d="M475.989 422.246C488.253 402.832 513.674 392.658 541.095 395.589C543.584 395.855 544.809 392.618 542.773 391.159C534.791 385.437 520.03 378.433 501.386 385.75C477.006 395.318 472.042 420.623 472.042 420.623L475.989 422.246Z" fill="#DDDEE3"/>
<path d="M471.788 423.863C494.291 412.121 524.292 415.755 549.651 432.885C552.046 434.502 555.035 431.92 553.743 429.326C548.719 419.239 537.523 404.209 514.78 401.624C490.406 398.854 473.596 413.812 468.331 419.292C467.833 419.809 467.542 420.492 467.514 421.21C467.487 421.928 467.725 422.629 468.183 423.18C469.066 424.243 470.562 424.503 471.788 423.863V423.863Z" fill="#DDDEE3"/>
<path d="M471.611 431.063C490.56 424.277 513.603 431.067 530.953 448.04C532.527 449.581 535.12 448.001 534.504 445.882C532.082 437.563 525.672 424.663 508.85 419.582C486.853 412.936 469.761 427.787 469.761 427.787L471.611 431.063Z" fill="#DDDEE3"/>
<path d="M467.727 431.093L475.602 405.525L500.984 413.343L471.861 432.206L467.727 431.093Z" fill="#DDDEE3"/>
</g>
<g clip-path="url(#clip9_880_2041)">
<path d="M400 226.762C375.462 226.762 355.5 206.854 355.5 182.381C355.5 157.909 375.462 138 400 138C424.538 138 444.5 157.909 444.5 182.381C444.5 206.854 424.538 226.762 400 226.762ZM400 146.976C380.425 146.976 364.5 162.858 364.5 182.381C364.5 201.904 380.425 217.786 400 217.786C419.575 217.786 435.5 201.904 435.5 182.381C435.5 162.858 419.575 146.976 400 146.976Z" fill="#97BC62"/>
<path d="M388.441 184.825H411.559V249.149H388.441V184.825Z" fill="#F2FEE0"/>
<path d="M384.662 206.764H415.338C415.869 206.764 416.377 206.554 416.752 206.18C417.127 205.805 417.338 205.298 417.338 204.769V181.833C417.338 180.51 416.811 179.242 415.874 178.306C414.936 177.371 413.664 176.846 412.338 176.846H387.662C386.336 176.846 385.064 177.371 384.127 178.306C383.189 179.242 382.662 180.51 382.662 181.833V204.77C382.662 205.299 382.873 205.806 383.248 206.18C383.623 206.554 384.132 206.764 384.662 206.764V206.764Z" fill="#2C5F2D"/>
<path d="M348.003 269.284L335.276 281.977L289.67 236.493L302.397 223.8L348.003 269.284Z" fill="#F2FEE0"/>
<path d="M309.114 259.412L325.376 243.193C325.751 242.819 325.962 242.312 325.962 241.783C325.962 241.254 325.751 240.747 325.376 240.373L306.992 222.037C306.617 221.663 306.108 221.453 305.578 221.453C305.048 221.453 304.539 221.663 304.164 222.037L287.901 238.256C287.526 238.63 287.315 239.138 287.315 239.667C287.315 240.196 287.526 240.703 287.901 241.077L306.285 259.412C306.471 259.597 306.691 259.744 306.934 259.844C307.177 259.945 307.437 259.996 307.7 259.996C307.962 259.996 308.222 259.945 308.465 259.844C308.708 259.744 308.928 259.597 309.114 259.412V259.412Z" fill="#2C5F2D"/>
<path d="M497.603 223.798L510.33 236.491L464.725 281.975L451.997 269.282L497.603 223.798Z" fill="#F2FEE0"/>
<path d="M490.886 259.412L474.624 243.193C474.249 242.819 474.038 242.312 474.038 241.783C474.038 241.254 474.249 240.747 474.624 240.373L493.008 222.038C493.383 221.664 493.891 221.454 494.422 221.454C494.952 221.454 495.461 221.664 495.836 222.038L512.098 238.256C512.473 238.63 512.683 239.138 512.683 239.667C512.683 240.196 512.473 240.703 512.098 241.077L493.714 259.412C493.339 259.786 492.83 259.996 492.3 259.996C491.769 259.996 491.261 259.786 490.886 259.412V259.412Z" fill="#2C5F2D"/>
<path d="M400 459C464.065 459 516 407.204 516 343.31C516 279.416 464.065 227.62 400 227.62C335.935 227.62 284 279.416 284 343.31C284 407.204 335.935 459 400 459Z" fill="#97BC62"/>
<path d="M400 449.027C458.542 449.027 506 401.696 506 343.31C506 284.924 458.542 237.593 400 237.593C341.458 237.593 294 284.924 294 343.31C294 401.696 341.458 449.027 400 449.027Z" fill="white"/>
<path d="M400 349.934C403.669 349.934 406.642 346.968 406.642 343.31C406.642 339.651 403.669 336.686 400 336.686C396.332 336.686 393.358 339.651 393.358 343.31C393.358 346.968 396.332 349.934 400 349.934Z" fill="#2C5F2D"/>
<path d="M398.231 341.733L470.341 273.342L401.767 345.259L398.231 341.733Z" fill="#2C5F2D"/>
<path d="M400 308.658C415.327 308.658 427.752 296.266 427.752 280.98C427.752 265.694 415.327 253.302 400 253.302C384.673 253.302 372.248 265.694 372.248 280.98C372.248 296.266 384.673 308.658 400 308.658Z" fill="#F2FEE0"/>
<path d="M400 283.447C401.331 283.447 402.411 282.371 402.411 281.043C402.411 279.715 401.331 278.638 400 278.638C398.668 278.638 397.589 279.715 397.589 281.043C397.589 282.371 398.668 283.447 400 283.447Z" fill="#97BC62"/>
<path d="M399.159 281.078L399.841 253.969L401.159 281.055L399.159 281.078Z" fill="#97BC62"/>
<path d="M369.989 392.294L399.865 403.871L429.989 392.173C427.491 379.146 415.02 369.24 400.001 369.24C384.935 369.24 372.433 379.207 369.989 392.294Z" fill="#F2FEE0"/>
<path d="M399.46 400.462L379.539 379.66L400.858 399.035L399.46 400.462Z" fill="#97BC62"/>
<path d="M400.001 414.769C406.352 414.769 411.501 409.634 411.501 403.299C411.501 396.965 406.352 391.83 400.001 391.83C393.65 391.83 388.501 396.965 388.501 403.299C388.501 409.634 393.65 414.769 400.001 414.769Z" fill="white"/>
</g>
<g clip-path="url(#clip10_880_2041)">
<path d="M679.326 504.541L642.589 496.822L644.75 430.751L703.938 443.187L679.326 504.541Z" fill="#DDDEE3"/>
<path d="M667.199 460.984C667.199 460.984 667.051 459.456 666.899 456.787C666.687 453.11 666.552 449.428 666.494 445.745L666.431 442.184C666.412 440.893 666.451 439.669 666.466 438.344C666.598 435.642 666.777 432.827 667.221 429.94C667.633 427.049 668.198 424.074 668.988 421.104C669.739 418.123 670.703 415.147 671.821 412.231C672.928 409.328 674.206 406.493 675.649 403.742C677.043 401.005 678.623 398.423 680.243 395.998C681.884 393.546 683.502 391.406 685.047 389.275L686.197 387.724L686.76 386.966L686.899 386.778L686.955 386.699L686.974 386.676L687.01 386.631L687.083 386.541L687.378 386.185C688.25 385.139 689.277 384.234 690.422 383.501C692.36 382.251 694.602 381.562 696.901 381.513C698.896 381.441 700.624 381.984 701.828 382.409C704.35 383.239 705.78 383.773 705.78 383.773C705.78 383.773 704.257 383.687 701.613 383.431C700.257 383.264 698.785 383.176 697.104 383.509C695.29 383.899 693.598 384.733 692.178 385.937C691.41 386.597 690.747 387.37 690.209 388.229L689.764 388.967L689.288 389.784L688.317 391.453L684.154 398.469C682.727 400.934 681.396 403.453 680.164 406.023C678.908 408.643 677.714 411.345 676.682 414.11C675.599 416.855 674.673 419.66 673.855 422.45C673.435 423.842 673.08 425.241 672.709 426.619C672.385 428.007 672.037 429.376 671.761 430.737C671.16 433.452 670.751 436.116 670.367 438.608L669.47 445.891C668.928 450.426 668.356 454.199 667.929 456.839C667.504 459.479 667.199 460.984 667.199 460.984V460.984Z" fill="#DDDEE3"/>
<path d="M671.581 460.448C671.581 460.448 672.226 458.23 673.453 454.385C674.07 452.466 674.806 450.127 675.708 447.47L678.701 438.558L679.515 436.049L680.262 433.463C680.796 431.729 681.24 429.869 681.752 427.997C682.645 424.206 683.502 420.197 684.14 416.011C684.766 411.824 685.316 407.487 685.562 403.056C685.809 398.629 685.937 394.122 685.75 389.623C685.587 385.146 685.218 380.679 684.645 376.238C684.024 371.887 683.255 367.461 682.584 363.21C681.894 358.957 681.296 354.833 680.716 350.924C680.161 347.253 679.643 343.577 679.161 339.895C678.921 338.208 678.759 336.441 678.366 335.245C677.976 333.934 677.376 332.696 676.59 331.58C675.092 329.448 673.149 328.065 671.414 327.243C669.658 326.434 668.113 326.182 667.052 325.977L665.436 325.65L667.085 325.677C668.138 325.715 669.781 325.655 671.78 326.265C673.75 326.873 676.142 328.052 678.142 330.314C679.218 331.512 680.092 332.879 680.729 334.362C681.477 336.104 681.68 337.655 682.105 339.343C682.885 342.702 683.724 346.343 684.543 350.207C685.381 354.068 686.277 358.136 687.132 362.359C687.987 366.587 688.914 370.901 689.65 375.496C690.358 380.058 690.764 384.739 690.959 389.428C691.122 394.119 690.975 398.818 690.598 403.42L690.275 406.853L689.819 410.236C689.684 411.359 689.473 412.463 689.289 413.564C689.098 414.664 688.92 415.756 688.676 416.828C687.846 421.143 686.652 425.224 685.479 429.06C684.243 432.85 682.891 436.501 681.484 439.624C680.12 442.849 678.734 445.658 677.548 448.213C676.367 450.758 675.285 452.957 674.409 454.772C673.488 456.675 672.546 458.567 671.581 460.448V460.448ZM702.713 370.853C686.767 379.19 705.386 392.274 714.694 395.598C724.673 399.161 736.112 402.531 746.944 401.788C758.478 400.997 772.602 394.023 775.306 382.672C772.36 384.446 771.498 383.791 765.991 383.73C761.168 383.677 756.25 381.38 752.357 379.064C749.038 377.09 745.503 374.097 742.01 372.034C737.887 369.598 715.6 364.114 702.713 370.853V370.853Z" fill="#DDDEE3"/>
<path d="M677.972 318.135C688.855 333.896 666.262 339.722 656.363 339.219C645.748 338.678 633.89 337.303 624.366 331.821C614.225 325.984 604.407 312.462 606.865 299.237C624.236 309.408 640.757 309.716 644.826 309.038C649.63 308.24 669.178 305.398 677.972 318.135Z" fill="#DDDEE3"/>
</g>
<g clip-path="url(#clip11_880_2041)">
<path d="M707 446C707 454.284 699.576 461 690.419 461H569.581C560.424 461 553 454.284 553 446H707Z" fill="#EFF0F2"/>
</g>
<g clip-path="url(#clip12_880_2041)">
<path d="M272 465C272 473.284 264.576 480 255.419 480H134.581C125.424 480 118 473.284 118 465H272Z" fill="#EFF0F2"/>
</g>
<g clip-path="url(#clip13_880_2041)">
<path d="M650.035 428.013L649.982 401.068L622.851 402.081L627.529 428.815L650.035 428.013Z" fill="white"/>
<path d="M600.969 441.255L596.714 438.475C596.009 438.013 595.461 437.347 595.142 436.565C594.824 435.782 594.75 434.92 594.931 434.095C595.113 433.269 595.54 432.518 596.157 431.943C596.774 431.368 597.55 430.996 598.383 430.876L607.369 429.585C610.175 429.182 612.863 428.177 615.249 426.638C617.635 425.099 619.664 423.062 621.198 420.666L624.913 414.86L628.471 417.045C628.885 417.299 629.191 417.698 629.332 418.165C629.472 418.632 629.437 419.135 629.233 419.578L628.02 422.2L633.025 424.29C634.687 424.984 636.509 425.195 638.284 424.898C640.059 424.601 641.715 423.808 643.063 422.61L647.31 418.838C647.477 418.689 647.682 418.592 647.903 418.555C648.123 418.519 648.348 418.546 648.554 418.633C648.76 418.72 648.937 418.863 649.065 419.046C649.193 419.23 649.267 419.446 649.279 419.67L650.156 436.642L649.139 440.637L600.969 441.255Z" fill="#2C5F2D"/>
<path d="M651.456 437.76L650.669 439.44C649.975 440.92 648.877 442.171 647.502 443.048C646.128 443.924 644.533 444.39 642.905 444.39H607.574C606.894 444.39 606.226 444.215 605.635 443.879L597.813 439.453H626.904C627.419 439.453 627.913 439.251 628.283 438.89C630.138 437.076 632.623 436.06 635.211 436.06H650.383C650.583 436.06 650.78 436.11 650.955 436.207C651.13 436.304 651.278 436.443 651.385 436.613C651.492 436.783 651.555 436.977 651.567 437.177C651.579 437.378 651.541 437.578 651.456 437.76Z" fill="black"/>
<path d="M585.685 209.553L622.922 198.955C626.319 201.821 631.045 238.477 631.023 242.934L638.865 310.24L647.991 342.534C648.954 345.941 649.344 349.486 649.145 353.022L646.145 406.352L624.52 411.456L609.208 333.846L604.201 326.751C603.09 325.177 602.351 323.37 602.038 321.466L596.766 289.421L587.811 223.782L585.685 209.553Z" fill="#97BC62"/>
<path d="M614.897 240.041H670.512C677.408 240.041 683 234.42 683 227.488V149.286C683 142.354 677.408 136.733 670.512 136.733H614.897C608.001 136.733 602.409 142.354 602.409 149.286V227.488C602.409 234.42 607.999 240.041 614.897 240.041V240.041Z" fill="#97BC62"/>
<path d="M650.892 222.878L652.486 225.275C654.774 228.713 656.363 232.574 657.16 236.632C657.957 240.691 657.947 244.868 657.13 248.923L656.108 253.996L655.789 334.591C655.789 334.591 629.348 333.075 629.268 332.573L613.165 230.069L650.892 222.878Z" fill="#97BC62"/>
<path d="M589.753 248.034L657.958 247.925V164.731H589.753V248.034Z" fill="#2C5F2D"/>
<path d="M652.48 144.797L594.6 152.322C591.799 152.687 589.175 153.901 587.077 155.802L548.413 190.848H595.629L667.902 185.96L668.156 158.779C668.234 150.302 660.843 143.71 652.48 144.797Z" fill="#2C5F2D"/>
<path d="M615.953 192.073V131.198H635.798V150.371L618.193 192.526C617.701 193.705 615.953 193.352 615.953 192.073Z" fill="#99644C"/>
<path d="M609.056 439.504V439.508C609.028 439.508 609.032 439.504 609.056 439.504Z" fill="#29ABE2"/>
<path opacity="0.07" d="M603.289 253.839H614.15V300.117L600.001 258.458C599.822 257.932 599.771 257.371 599.852 256.822C599.932 256.272 600.142 255.75 600.463 255.298C600.785 254.847 601.209 254.479 601.7 254.225C602.192 253.971 602.736 253.838 603.289 253.839V253.839Z" fill="black"/>
<path d="M619.722 102.965H624.95C627.693 102.965 630.324 104.061 632.264 106.011C634.204 107.961 635.294 110.605 635.294 113.363V145.568L620.014 142.172L614.133 142.132C612.298 142.12 610.543 141.378 609.251 140.07C607.958 138.762 607.232 136.993 607.232 135.149V120.734C607.231 110.921 609.959 102.965 619.722 102.965V102.965Z" fill="#99644C"/>
<path d="M624.86 133.233H633.356C635.199 133.233 636.966 132.497 638.269 131.187C639.572 129.878 640.304 128.101 640.304 126.249V117.102H624.86V133.233Z" fill="black"/>
<path d="M631.615 134.154H629.381C628.981 134.154 628.585 134.075 628.215 133.921C627.845 133.767 627.51 133.541 627.227 133.257C626.944 132.973 626.719 132.635 626.566 132.263C626.413 131.892 626.334 131.494 626.334 131.091V125.17C626.334 124.358 626.655 123.579 627.227 123.004C627.798 122.43 628.573 122.107 629.381 122.107H631.615C632.423 122.107 633.198 122.43 633.77 123.004C634.341 123.579 634.662 124.358 634.662 125.17V131.091C634.662 131.904 634.341 132.683 633.77 133.257C633.198 133.831 632.423 134.154 631.615 134.154V134.154Z" fill="#99644C"/>
<path d="M608.944 106.068C608.944 106.068 603.948 115.907 603.948 117.734V128.398L603.953 132.324C603.953 132.757 604.039 133.185 604.204 133.585C604.37 133.984 604.612 134.347 604.917 134.653C605.223 134.958 605.585 135.2 605.983 135.365C606.381 135.53 606.808 135.614 607.238 135.613V121.772C607.238 120.618 607.494 119.51 607.951 118.678L608.944 116.873V106.068Z" fill="black"/>
<path d="M662.62 207.12L665.775 205.158L650.018 179.557C647.481 175.437 646.137 170.688 646.138 165.843V161.655C646.146 155.757 648.135 150.036 651.784 145.417L655.596 140.605L652.692 138.281L648.881 143.093C644.71 148.373 642.436 154.913 642.427 161.655V165.843C642.427 171.385 643.961 176.805 646.862 181.519L662.62 207.12ZM595.881 180.069H599.593V167.938C599.593 162.063 601.598 156.298 605.239 151.701L609.05 146.888L606.147 144.564L602.335 149.377C598.165 154.656 595.891 161.197 595.881 167.938V180.069Z" fill="#97BC62"/>
<path d="M668.067 181.487L667.047 225.247C667.025 226.216 666.601 227.132 665.88 227.777L654.186 238.216L642.606 232.683L648.798 164.126L668.067 181.487Z" fill="#2C5F2D"/>
<path d="M615.97 229.266L645.365 217.275C646.846 216.672 648.476 216.541 650.033 216.902C651.59 217.263 652.999 218.098 654.067 219.292L656.524 222.04C657.206 222.803 657.732 223.694 658.071 224.661C658.411 225.628 658.558 226.654 658.504 227.678C658.449 228.702 658.194 229.706 657.754 230.631C657.314 231.557 656.696 232.386 655.937 233.071L651.467 237.109C650.063 238.376 648.25 239.087 646.364 239.11L623.962 239.374L615.97 229.266ZM559.726 216.751L540.239 210.638C538.773 210.178 537.452 209.344 536.404 208.217C535.357 207.09 534.618 205.708 534.261 204.208L533.245 199.939C532.703 197.66 533.077 195.258 534.284 193.254C535.492 191.25 537.436 189.805 539.697 189.233L544.843 187.928C546.679 187.463 548.615 187.601 550.367 188.323C552.119 189.045 553.595 190.312 554.579 191.938L561.535 203.444L559.726 216.751Z" fill="#99644C"/>
<path d="M611.295 176.757H547.244V241.14H611.295V176.757Z" fill="#8EB455"/>
<path d="M577.355 242.544V242.558C577.331 242.716 577.371 242.877 577.464 243.006C577.558 243.135 577.698 243.223 577.854 243.249L588.775 244.995C589.951 245.183 591.154 245.107 592.297 244.771L597.32 243.346L600.209 244.827C601.216 245.348 602.38 245.472 603.474 245.176L612.908 242.67L612.985 242.648C613.312 242.571 613.644 242.511 613.978 242.467L613.971 242.453L634.089 239.248L620.286 230.344C617.792 227.461 615.77 227.293 613.067 227.048L608.316 226.629C606.595 226.525 604.877 226.886 603.342 227.676C602.404 228.171 601.4 228.529 600.362 228.738C597.424 229.366 592.817 230.449 592.817 230.449C592.451 230.567 592.132 230.799 591.906 231.112C591.68 231.424 591.559 231.801 591.56 232.187V232.361C591.595 232.83 591.814 233.265 592.168 233.571C592.522 233.877 592.983 234.03 593.449 233.995C594.429 233.932 600.271 233.618 602.098 233.555H602.112C602.257 233.554 602.398 233.598 602.518 233.68C602.637 233.763 602.728 233.88 602.779 234.016C602.829 234.15 602.834 234.295 602.796 234.432C602.757 234.569 602.676 234.69 602.564 234.777L600.757 236.195L589.85 240.797L579.721 240.643C579.175 240.635 578.643 240.816 578.213 241.155C577.783 241.495 577.482 241.972 577.36 242.507L577.355 242.544ZM547.628 196.274V217.049L550.671 218.02C551.803 218.376 552.818 219.032 553.609 219.919L561.056 228.411C561.064 228.411 561.07 228.418 561.07 228.418C561.129 228.474 561.198 228.517 561.274 228.546C561.35 228.574 561.431 228.587 561.512 228.584C561.592 228.581 561.672 228.561 561.745 228.527C561.818 228.492 561.884 228.444 561.938 228.383C562.529 227.609 562.48 226.386 561.744 225.444L555.603 217.274C555.402 217.058 555.742 216.646 555.986 216.807L568.574 225.208C568.581 225.215 568.588 225.215 568.595 225.221C568.73 225.314 568.895 225.349 569.055 225.318C569.216 225.288 569.357 225.196 569.45 225.061C569.943 224.223 569.742 223.021 568.887 222.17L557.737 213.05C557.694 213.012 557.663 212.961 557.65 212.905C557.636 212.849 557.64 212.789 557.661 212.735C557.689 212.668 557.743 212.615 557.811 212.587C557.879 212.56 557.955 212.56 558.022 212.589L572.215 219.167C572.222 219.167 572.228 219.174 572.236 219.174C572.306 219.211 572.383 219.233 572.463 219.24C572.542 219.246 572.622 219.237 572.697 219.212C572.773 219.187 572.843 219.148 572.903 219.096C572.963 219.044 573.013 218.981 573.049 218.909C573.417 218.002 573.021 216.843 572.063 216.138L558.759 208.289C558.673 208.239 558.604 208.163 558.566 208.071C558.527 207.978 558.519 207.876 558.544 207.779C558.558 207.72 558.583 207.665 558.618 207.617C558.653 207.568 558.698 207.527 558.749 207.496C558.8 207.464 558.857 207.444 558.916 207.435C558.975 207.426 559.035 207.429 559.093 207.443L572.839 210.709C572.853 210.709 572.86 210.716 572.874 210.716C572.952 210.736 573.032 210.741 573.112 210.73C573.191 210.719 573.268 210.692 573.337 210.651C573.406 210.61 573.466 210.556 573.514 210.491C573.562 210.427 573.598 210.354 573.618 210.276C573.798 209.32 573.187 208.258 572.103 207.755L556.473 202.245C556.369 202.211 556.265 202.168 556.168 202.112C555.683 201.847 555.324 201.4 555.167 200.868C555.011 200.337 555.071 199.765 555.334 199.277L555.341 199.235C555.512 198.921 555.748 198.647 556.033 198.432C556.319 198.218 556.647 198.067 556.995 197.992L560.365 197.265C561.219 197.09 562.011 196.687 562.657 196.099C563.22 195.541 563.643 194.863 563.643 194.193C563.643 194.095 563.636 193.998 563.616 193.899C563.608 193.864 563.602 193.83 563.589 193.795C563.552 193.692 563.495 193.598 563.422 193.518C563.349 193.437 563.261 193.372 563.163 193.326C563.065 193.28 562.959 193.254 562.85 193.249C562.742 193.244 562.634 193.261 562.532 193.299L552.257 195.925L549.735 195.988C549.017 196.002 548.316 196.1 547.628 196.274V196.274Z" fill="#99644C"/>
<path opacity="0.1" d="M616.383 124.705H621.722V122.944C621.722 121.854 620.842 120.969 619.757 120.969H614.418V122.73C614.418 122.99 614.469 123.246 614.567 123.486C614.666 123.726 614.811 123.943 614.993 124.127C615.176 124.31 615.392 124.456 615.631 124.555C615.869 124.654 616.124 124.705 616.383 124.705V124.705Z" fill="#002652"/>
<path d="M621.574 185.682H635.885V144.091H625.047C624.126 144.091 623.242 144.459 622.591 145.113C621.939 145.768 621.573 146.656 621.573 147.582V185.682H621.574Z" fill="#2C5F2D"/>
<path d="M621.727 185.682H615.194V144.091H618.253C619.174 144.091 620.058 144.459 620.709 145.113C621.361 145.768 621.727 146.656 621.727 147.582V185.682Z" fill="#2C5F2D"/>
<path d="M636.06 172.548H614.297V195.689H636.06V172.548Z" fill="#2C5F2D"/>
<path opacity="0.1" d="M604.87 120.825C605.083 120.896 606.679 120.886 608.005 120.864C608.244 120.86 608.482 120.904 608.703 120.993C608.925 121.082 609.127 121.215 609.298 121.383C609.468 121.552 609.603 121.753 609.695 121.975C609.788 122.196 609.835 122.434 609.835 122.674V122.983C609.835 123.619 609.731 124.251 609.527 124.854L608.413 128.141C608.257 128.6 608.275 129.102 608.461 129.55C608.648 129.998 608.992 130.361 609.428 130.572L611.201 131.43V131.966C611.201 132.254 611.314 132.53 611.517 132.734C611.72 132.938 611.995 133.052 612.282 133.052H614.056V133.801C614.056 135.041 613.055 136.047 611.822 136.047H606.769L604.87 120.825Z" fill="#002652"/>
<path d="M664.209 368.708L661.264 403.881L660.262 415.863L659.715 422.408L659.553 424.344L659.028 430.603L658.771 433.691L658.381 438.386L658.358 438.655L651.678 439.925C650.097 440.228 648.42 440.546 646.874 440.847C645.999 441.013 645.171 441.174 644.42 441.32C642.491 441.69 641.099 441.968 640.921 442.012L640.871 441.447L640.725 439.845L639.567 427.251L638.27 413.125L633.901 365.468L628.754 330.065L654.477 325.11L663.704 362.349C664.217 364.427 664.387 366.575 664.209 368.708V368.708Z" fill="#97BC62"/>
<path d="M639.058 421.764L639.565 427.252L640.725 439.85L640.871 441.449L640.92 442.015C641.1 441.973 642.489 441.694 644.421 441.323C645.17 441.177 645.998 441.016 646.872 440.848C648.421 440.548 650.096 440.227 651.672 439.927L658.355 438.656L658.376 438.391L658.772 433.692L659.029 430.606L659.55 424.349L659.717 422.408L659.772 421.765H639.058V421.764Z" fill="#A9CFFF"/>
<path d="M639.058 421.764L639.565 427.252L640.725 439.85L640.871 441.449L640.92 442.015C641.1 441.973 642.489 441.694 644.421 441.323C645.17 441.177 645.998 441.016 646.872 440.848C648.421 440.548 650.096 440.227 651.672 439.927L658.355 438.656L658.376 438.391L658.772 433.692L659.029 430.606L659.55 424.349L659.717 422.408L659.772 421.765H639.058V421.764Z" fill="white"/>
<path d="M662.228 456.597H637.143L635.795 450.366C635.407 448.574 635.657 446.701 636.501 445.075L639.871 438.587L650.043 432.823L660.279 438.587L662.05 443.173C663.433 446.752 663.683 450.673 662.766 454.401L662.228 456.597Z" fill="#2C5F2D"/>
<path d="M658.539 462H641.257C640.283 462 639.417 461.465 639.104 460.672L637.355 456.236H662.44L660.691 460.672C660.377 461.465 659.512 462 658.539 462Z" fill="black"/>
<path d="M654.589 431.381H645.203C644.546 431.381 643.917 431.643 643.453 432.109C642.989 432.575 642.728 433.208 642.728 433.868V445.429H657.063V433.868C657.063 433.208 656.803 432.575 656.339 432.109C655.875 431.643 655.246 431.381 654.589 431.381V431.381Z" fill="#2C5F2D"/>
<path d="M640.113 170.758H620.662V176.693H640.113V170.758Z" fill="white"/>
<path d="M543.949 214.924L547.921 217.147L548.171 196.186L540.58 197.528V209.164C540.58 210.339 540.893 211.492 541.485 212.505C542.077 213.518 542.928 214.353 543.949 214.924V214.924Z" fill="#99644C"/>
<path d="M610.792 114.743H622.041V106.098H629.615V127.601C629.616 129.146 630.099 130.651 630.997 131.905L633.059 134.782C633.49 135.383 633.721 136.105 633.719 136.846L633.716 137.907C633.714 138.771 633.371 139.599 632.762 140.21C632.153 140.82 631.328 141.163 630.468 141.162H629.241V138.373C629.241 136.902 628.055 135.71 626.592 135.71C625.385 135.709 624.227 135.226 623.374 134.368C622.52 133.51 622.041 132.346 622.041 131.132V127.26C622.041 125.584 621.545 123.947 620.616 122.555C619.687 121.163 618.368 120.081 616.825 119.445L610.792 116.958V114.743Z" fill="black"/>
<path d="M623.074 98H625.068C633.483 98 640.304 104.857 640.304 113.315V117.254H603.992V117.179C603.993 106.587 612.537 98 623.074 98Z" fill="#002652"/>
</g>
<g clip-path="url(#clip14_880_2041)">
<path d="M142.689 169.661L130.165 215.797C129.936 216.639 129.988 217.533 130.313 218.343L133.703 226.792C134.012 227.562 134.552 228.216 135.248 228.663C135.944 229.11 136.762 229.328 137.586 229.286L147.839 228.755L165.682 169.672L142.689 169.661Z" fill="#93C3FF"/>
<path d="M132.8 195.783L126.516 227.759C126.199 229.37 126.384 231.04 127.045 232.541C127.706 234.043 128.811 235.302 130.209 236.149L133.425 238.096C135.229 239.188 137.39 239.514 139.432 239.003C141.475 238.492 143.232 237.186 144.318 235.372L147.483 230.08C148.476 228.42 148.836 226.452 148.493 224.545L144.429 201.891L132.8 195.783Z" fill="#C78982"/>
<path d="M143.098 204.683L137.663 207.359C136.673 208.129 135.422 208.472 134.181 208.316C132.941 208.159 131.812 207.515 131.042 206.524L128.105 202.723C127.34 201.727 126.998 200.468 127.154 199.22C127.309 197.972 127.95 196.836 128.935 196.062L132.025 188.769C134.074 187.167 138.492 189.133 140.084 191.194L143.619 197.615C144.967 199.359 144.831 203.327 143.098 204.683V204.683Z" fill="#C78982"/>
<path d="M180.311 140.272H208.527V116.248C208.528 107.827 201.742 101 193.371 101H188.865C180.495 101 173.709 107.827 173.709 116.248V133.629C173.709 135.39 174.404 137.08 175.643 138.326C176.881 139.571 178.56 140.271 180.311 140.272V140.272Z" fill="black"/>
<path d="M238.675 169.661L251.2 215.797C251.429 216.64 251.377 217.533 251.051 218.343L247.661 226.792C247.352 227.562 246.812 228.216 246.116 228.663C245.42 229.11 244.603 229.328 243.778 229.286L233.526 228.755L215.683 169.671L238.675 169.661Z" fill="#93C3FF"/>
<path d="M249.026 198.126L254.85 227.76C255.166 229.371 254.981 231.041 254.321 232.542C253.66 234.044 252.555 235.303 251.157 236.15L247.94 238.098C246.137 239.189 243.976 239.516 241.933 239.005C239.89 238.494 238.133 237.187 237.048 235.373L233.883 230.081C232.889 228.421 232.53 226.453 232.872 224.546L236.936 201.892L249.026 198.126Z" fill="#C78982"/>
<path d="M155.535 155.719L188.698 149.414L225.634 155.506C228.963 156.055 232.032 157.657 234.395 160.08C236.758 162.503 238.293 165.62 238.776 168.979L241.873 190.534L139.403 190L142.814 168.851C143.337 165.613 144.838 162.615 147.114 160.265C149.39 157.916 152.33 156.328 155.535 155.719V155.719Z" fill="#97BC62"/>
<path d="M159.516 222.035L153.69 253.756L152.727 336.134C152.727 336.134 179.752 335.013 179.842 334.501L197.926 229.995L159.516 222.035Z" fill="#2C5F2D"/>
<path d="M145.153 371.866L148.845 407.755L150.101 419.98L150.786 426.658L150.989 428.634L151.647 435.022L151.971 438.173L152.46 442.963L152.49 443.237L159.336 444.404C160.955 444.682 162.674 444.976 164.258 445.253C165.155 445.404 166.003 445.554 166.774 445.687C168.75 446.028 170.177 446.283 170.359 446.326L170.4 445.747L170.518 444.106L171.455 431.212L172.504 416.75L178.776 367.958L180.605 331.675L154.241 327.117L145.544 365.357C145.063 367.49 144.93 369.689 145.153 371.866V371.866Z" fill="#2C5F2D"/>
<path d="M172.364 462.493H146.821L145.448 456.142C145.053 454.316 145.308 452.407 146.168 450.75L149.599 444.137L159.958 438.263L170.38 444.137L172.527 449.699C173.712 452.769 173.927 456.132 173.141 459.329L172.364 462.493Z" fill="#97BC62"/>
<path d="M168.605 468H151.009C150.018 468 149.136 467.456 148.817 466.646L147.036 462.126H172.579L170.799 466.646C170.478 467.455 169.598 468 168.605 468V468Z" fill="#2C5F2D"/>
<path d="M165.121 436.796H154.493C153.967 436.796 153.462 437.006 153.09 437.381C152.718 437.755 152.509 438.263 152.509 438.792V449.118C152.509 450.22 153.397 451.114 154.493 451.114H165.121C165.647 451.114 166.152 450.904 166.524 450.529C166.896 450.155 167.105 449.647 167.105 449.118V438.792C167.105 438.263 166.896 437.755 166.524 437.381C166.152 437.006 165.647 436.796 165.121 436.796Z" fill="#97BC62"/>
<path d="M157.983 459.189H161.632C162.357 459.191 163.052 459.482 163.565 459.998C164.077 460.514 164.366 461.213 164.369 461.943C164.366 462.672 164.077 463.371 163.565 463.887C163.052 464.403 162.357 464.694 161.632 464.696H157.983C157.258 464.694 156.563 464.403 156.05 463.887C155.537 463.371 155.248 462.672 155.246 461.943C155.248 461.213 155.537 460.514 156.05 459.998C156.563 459.482 157.258 459.191 157.983 459.189V459.189Z" fill="#2C5F2D"/>
<path d="M220.759 222.035L226.585 253.756L227.549 336.134C227.549 336.134 200.524 335.013 200.434 334.501L182.35 229.995L220.759 222.035Z" fill="#2C5F2D"/>
<path d="M235.121 371.866L231.429 407.755L230.173 419.98L229.488 426.658L229.285 428.634L228.627 435.022L228.303 438.173L227.813 442.963L227.784 443.237L220.938 444.404C219.319 444.682 217.6 444.976 216.015 445.253C215.119 445.404 214.271 445.554 213.5 445.687C211.524 446.028 210.097 446.283 209.915 446.326L209.874 445.747L209.756 444.106L208.819 431.212L207.77 416.75L201.497 367.958L199.669 331.675L226.033 327.117L234.73 365.357C235.211 367.49 235.344 369.689 235.121 371.866V371.866Z" fill="#2C5F2D"/>
<path d="M207.911 462.493H233.454L234.827 456.142C235.222 454.316 234.967 452.407 234.107 450.75L230.676 444.137L220.317 438.263L209.895 444.137L207.747 449.699C206.562 452.769 206.348 456.132 207.134 459.329L207.911 462.493Z" fill="#97BC62"/>
<path d="M211.668 468H229.265C230.256 468 231.138 467.456 231.457 466.646L233.238 462.126H207.695L209.476 466.646C209.795 467.455 210.677 468 211.668 468Z" fill="#2C5F2D"/>
<path d="M215.153 436.796H225.781C226.877 436.796 227.765 437.69 227.765 438.792V449.118C227.765 449.647 227.556 450.155 227.184 450.529C226.812 450.904 226.307 451.114 225.781 451.114H215.153C214.627 451.114 214.122 450.904 213.75 450.529C213.378 450.155 213.169 449.647 213.169 449.118V438.792C213.169 437.69 214.057 436.796 215.153 436.796Z" fill="#97BC62"/>
<path d="M222.291 459.189H218.642C217.917 459.191 217.222 459.482 216.709 459.998C216.197 460.514 215.908 461.213 215.905 461.943C215.908 462.672 216.197 463.371 216.709 463.887C217.222 464.403 217.917 464.694 218.642 464.696H222.291C223.016 464.694 223.711 464.403 224.224 463.887C224.736 463.371 225.026 462.672 225.028 461.943C225.026 461.213 224.736 460.514 224.224 459.998C223.711 459.482 223.016 459.191 222.291 459.189V459.189Z" fill="#2C5F2D"/>
<path d="M226.396 156.201L153.479 156.607V256.525H226.396V156.201Z" fill="#97BC62"/>
<path d="M189.157 176.656L181.205 150.613V134.277H200.147V151.411L191.419 176.696C191.043 177.79 189.495 177.762 189.157 176.656V176.656Z" fill="#C78982"/>
<path d="M206.039 108.164H189.654C182.867 108.164 177.365 113.699 177.365 120.528V134.553C177.365 136.662 178.169 138.69 179.609 140.221L186.675 147.727H196.73L203.796 140.221C205.237 138.69 206.04 136.662 206.04 134.553V108.164H206.039Z" fill="#C78982"/>
<path d="M203.528 131.753H195.438C195.178 131.753 194.93 131.649 194.747 131.465C194.563 131.281 194.46 131.031 194.46 130.77V122.687C194.46 122.144 194.898 121.704 195.438 121.704H203.528C204.183 121.704 204.833 121.834 205.439 122.086C206.045 122.338 206.595 122.709 207.059 123.175C207.523 123.642 207.891 124.196 208.142 124.805C208.392 125.415 208.522 126.068 208.521 126.728C208.522 127.388 208.393 128.041 208.142 128.651C207.891 129.261 207.523 129.815 207.059 130.281C206.596 130.748 206.045 131.118 205.439 131.371C204.833 131.623 204.184 131.753 203.528 131.753ZM178.953 131.753H187.043C187.303 131.753 187.551 131.649 187.734 131.465C187.918 131.281 188.021 131.031 188.021 130.77V122.687C188.021 122.426 187.918 122.176 187.734 121.992C187.551 121.808 187.303 121.704 187.043 121.704H178.953C177.629 121.704 176.358 122.233 175.422 123.176C174.485 124.118 173.959 125.396 173.959 126.728C173.959 128.061 174.485 129.339 175.422 130.281C176.358 131.224 177.629 131.753 178.953 131.753V131.753Z" fill="#C78982"/>
<path d="M200.045 105.328H183.395L185.537 113.45C186.156 115.798 187.53 117.874 189.444 119.355C191.357 120.836 193.704 121.64 196.119 121.64H207.43V112.759C207.43 110.788 206.652 108.898 205.267 107.504C203.882 106.111 202.004 105.328 200.045 105.328V105.328Z" fill="#002652"/>
<path d="M195.44 121.606C196.609 121.606 197.555 122.558 197.555 123.733V133.053C197.555 135.339 198.52 137.517 200.205 139.051C201.893 140.586 202.911 142.159 211.87 142.294L209.56 137.219L208.404 130.171L208.446 116.249H195.44V121.606Z" fill="black"/>
<path opacity="0.1" d="M198.095 145.792L193.164 150.618H200.181V146.678C200.181 145.584 198.874 145.029 198.095 145.792Z" fill="#002652"/>
<path opacity="0.1" d="M203.939 128.712L203.995 128.64H203.939V126.931C203.939 126.291 203.686 125.677 203.237 125.225C202.787 124.772 202.177 124.518 201.541 124.518H196.499C195.642 124.518 194.821 124.86 194.216 125.47C193.61 126.079 193.27 126.905 193.27 127.767V128.16C193.27 128.325 193.293 128.484 193.328 128.639H193.27V134.337C193.27 134.903 193.047 135.445 192.649 135.845C192.251 136.245 191.712 136.47 191.15 136.47H187.944L194.101 138.751L201.344 131.997L202.692 130.289H203.938V128.712H203.939Z" fill="#1D2445"/>
<path d="M242.634 199.152C244.72 199.152 246.411 196.765 246.411 193.82C246.411 190.875 244.72 188.488 242.634 188.488C240.548 188.488 238.857 190.875 238.857 193.82C238.857 196.765 240.548 199.152 242.634 199.152Z" fill="#C78982"/>
<path opacity="0.1" d="M141.031 204.767L142.297 202.367C143.881 199.366 142.464 195.216 139.131 193.098L138.599 192.76C135.243 190.627 131.19 191.354 129.595 194.377L128.361 196.714C126.768 199.732 128.194 203.906 131.546 206.036L132.078 206.374C135.428 208.505 139.437 207.785 141.031 204.767V204.767Z" fill="#002652"/>
<path d="M143.386 193.965C143.382 193.972 143.378 193.981 143.37 193.985C142.521 194.892 141.001 195.107 139.66 194.368L129.661 187.816C129.495 187.707 129.358 187.558 129.264 187.383C129.17 187.208 129.12 187.012 129.12 186.812V185.345C129.12 184.242 130.008 183.349 131.104 183.349H131.674C131.957 183.349 132.23 183.45 132.445 183.634L143.211 192.862C143.565 193.118 143.64 193.614 143.386 193.965V193.965Z" fill="#C78982"/>
<path d="M141.449 198.375C141.445 198.382 141.442 198.391 141.433 198.395C140.584 199.301 139.064 199.517 137.723 198.778L127.724 192.226C127.558 192.117 127.422 191.968 127.327 191.793C127.233 191.618 127.184 191.421 127.184 191.222V189.756C127.184 188.653 128.072 187.759 129.168 187.759H129.737C130.02 187.759 130.294 187.861 130.509 188.045L141.274 197.273C141.358 197.334 141.429 197.41 141.483 197.498C141.537 197.587 141.574 197.685 141.59 197.787C141.606 197.89 141.602 197.994 141.578 198.095C141.554 198.196 141.51 198.291 141.449 198.375V198.375Z" fill="#C78982"/>
<path d="M138.58 202.62C138.577 202.628 138.571 202.634 138.563 202.637C137.674 203.393 136.23 203.432 135.056 202.598L126.406 195.402C126.262 195.283 126.151 195.129 126.081 194.955C126.011 194.781 125.986 194.593 126.007 194.406L126.163 193.036C126.28 192.006 127.205 191.266 128.229 191.383L128.761 191.444C129.025 191.474 129.271 191.598 129.452 191.794L138.535 201.571C138.606 201.637 138.664 201.716 138.705 201.804C138.746 201.893 138.769 201.989 138.774 202.086C138.778 202.183 138.763 202.281 138.73 202.372C138.697 202.464 138.646 202.548 138.58 202.62V202.62Z" fill="#C78982"/>
<path d="M136.704 205.76C136.701 205.766 136.696 205.772 136.689 205.776C135.893 206.5 134.564 206.58 133.455 205.848L126.475 200.647C126.339 200.542 126.231 200.403 126.162 200.245C126.092 200.087 126.063 199.914 126.076 199.742L126.177 198.474C126.195 198.247 126.258 198.026 126.36 197.824C126.463 197.622 126.605 197.442 126.777 197.294C126.949 197.147 127.148 197.035 127.363 196.965C127.578 196.895 127.805 196.869 128.03 196.887L128.522 196.926C128.766 196.947 128.996 197.053 129.17 197.227L136.628 204.795C136.696 204.853 136.752 204.924 136.793 205.004C136.834 205.084 136.859 205.172 136.866 205.261C136.873 205.351 136.862 205.441 136.834 205.527C136.807 205.612 136.762 205.691 136.704 205.76V205.76ZM236.668 204.683L242.103 207.359C243.092 208.128 244.344 208.472 245.585 208.316C246.825 208.159 247.954 207.515 248.724 206.524L251.661 202.723C252.426 201.727 252.767 200.468 252.612 199.22C252.456 197.972 251.816 196.836 250.831 196.062L247.741 188.769C245.692 187.167 241.274 189.133 239.682 191.194L236.147 197.615C234.798 199.359 234.935 203.327 236.668 204.683V204.683Z" fill="#C78982"/>
<path opacity="0.1" d="M238.734 204.767L237.468 202.367C235.884 199.366 237.301 195.216 240.634 193.098L241.166 192.76C244.522 190.627 248.575 191.354 250.17 194.377L251.404 196.714C252.997 199.732 251.571 203.906 248.219 206.036L247.687 206.374C244.336 208.505 240.328 207.785 238.734 204.767V204.767Z" fill="#002652"/>
<path d="M236.055 193.777C236.059 193.785 236.062 193.793 236.071 193.798C236.92 194.704 238.44 194.919 239.781 194.18L249.78 187.628C250.117 187.407 250.32 187.03 250.32 186.625V185.158C250.32 184.629 250.111 184.121 249.739 183.747C249.367 183.372 248.862 183.162 248.336 183.162H247.767C247.484 183.162 247.21 183.263 246.995 183.448L236.23 192.676C236.146 192.736 236.075 192.813 236.021 192.901C235.967 192.99 235.931 193.088 235.915 193.19C235.899 193.292 235.903 193.397 235.927 193.498C235.951 193.598 235.994 193.693 236.055 193.777V193.777Z" fill="#C78982"/>
<path d="M237.991 198.187C237.995 198.194 237.999 198.203 238.007 198.207C238.856 199.114 240.376 199.329 241.717 198.59L251.716 192.038C252.053 191.817 252.257 191.44 252.257 191.034V189.568C252.257 189.039 252.048 188.531 251.676 188.156C251.304 187.782 250.799 187.572 250.273 187.572H249.703C249.42 187.572 249.147 187.673 248.932 187.857L238.166 197.085C238.083 197.146 238.012 197.223 237.958 197.311C237.904 197.399 237.868 197.497 237.852 197.6C237.835 197.702 237.839 197.807 237.863 197.907C237.887 198.008 237.931 198.103 237.991 198.187V198.187Z" fill="#C78982"/>
<path d="M240.861 202.434C240.865 202.441 240.871 202.447 240.878 202.451C241.767 203.207 243.211 203.245 244.386 202.411L253.035 195.216C253.327 194.973 253.477 194.598 253.434 194.22L253.278 192.849C253.222 192.355 252.973 191.903 252.585 191.593C252.198 191.283 251.704 191.14 251.212 191.196L250.68 191.257C250.416 191.288 250.171 191.412 249.989 191.607L240.907 201.384C240.835 201.45 240.777 201.529 240.736 201.618C240.695 201.706 240.672 201.802 240.668 201.899C240.663 201.997 240.678 202.094 240.712 202.186C240.745 202.277 240.796 202.362 240.861 202.434V202.434Z" fill="#C78982"/>
<path d="M242.737 205.573C242.74 205.58 242.745 205.585 242.752 205.589C243.548 206.313 244.877 206.393 245.986 205.662L252.966 200.461C253.102 200.355 253.21 200.217 253.279 200.059C253.349 199.901 253.378 199.728 253.365 199.555L253.264 198.287C253.246 198.061 253.183 197.84 253.081 197.637C252.978 197.435 252.836 197.255 252.664 197.108C252.492 196.96 252.293 196.848 252.078 196.779C251.863 196.709 251.636 196.682 251.411 196.7L250.919 196.74C250.675 196.76 250.445 196.867 250.271 197.041L242.813 204.608C242.745 204.666 242.689 204.737 242.648 204.817C242.607 204.898 242.582 204.985 242.575 205.075C242.568 205.164 242.579 205.255 242.607 205.34C242.634 205.426 242.679 205.505 242.737 205.573V205.573Z" fill="#C78982"/>
</g>
<path d="M202.715 242.204L243.856 234.436C244.838 234.251 245.855 234.347 246.785 234.713C247.715 235.08 248.519 235.701 249.101 236.503L251.653 240.016C252.314 240.926 252.786 241.954 253.042 243.042C253.299 244.129 253.335 245.255 253.149 246.354C252.963 247.453 252.558 248.505 251.957 249.448C251.356 250.392 250.571 251.21 249.647 251.854L245.101 255.025C244.07 255.745 242.805 256.069 241.544 255.938L209.336 252.593L202.715 242.204Z" fill="#C78982"/>
<path d="M169.268 249.524L169.267 249.536C169.232 249.664 169.25 249.801 169.317 249.917C169.384 250.033 169.495 250.119 169.625 250.156L178.722 252.657C179.702 252.927 180.729 252.98 181.73 252.813L186.124 252.119L188.435 253.624C189.24 254.152 190.215 254.368 191.171 254.229L199.408 253.066L199.475 253.056C199.76 253.023 200.047 253.005 200.334 253.001L200.33 252.989L217.694 252.281L206.829 243.576C204.986 240.948 203.287 240.613 201.018 240.149L197.028 239.343C195.578 239.091 194.087 239.224 192.711 239.729C191.869 240.049 190.984 240.248 190.083 240.32C187.532 240.556 183.523 241.007 183.523 241.007C183.202 241.07 182.91 241.231 182.689 241.468C182.467 241.705 182.329 242.005 182.293 242.324L182.277 242.469C182.263 242.86 182.407 243.241 182.679 243.529C182.95 243.816 183.326 243.987 183.725 244.004C184.562 244.046 189.546 244.351 191.102 244.476L191.113 244.477C191.236 244.49 191.352 244.54 191.445 244.62C191.539 244.7 191.605 244.806 191.635 244.923C191.665 245.038 191.656 245.16 191.61 245.269C191.564 245.379 191.484 245.471 191.381 245.532L189.715 246.531L180.031 249.286L171.456 248.18C170.993 248.121 170.524 248.219 170.128 248.458C169.732 248.697 169.431 249.063 169.277 249.494L169.268 249.524Z" fill="#C78982"/>
<g clip-path="url(#clip15_880_2041)">
<path d="M138 223H255V240H138V223Z" fill="#2C5F2D"/>
<path d="M196.5 234.551C194.654 234.551 192.884 233.875 191.579 232.671C190.274 231.467 189.541 229.834 189.541 228.131V223H203.458V228.13C203.459 228.973 203.279 229.808 202.929 230.587C202.58 231.367 202.067 232.075 201.421 232.671C200.775 233.267 200.008 233.74 199.163 234.063C198.319 234.386 197.414 234.552 196.5 234.551V234.551Z" fill="white"/>
</g>
<g clip-path="url(#clip16_880_2041)">
<path d="M138 206H255V223H138V206Z" fill="#97BC62"/>
<path d="M196.5 217.551C194.654 217.551 192.884 216.875 191.579 215.671C190.274 214.467 189.541 212.834 189.541 211.131V206H203.458V211.13C203.459 211.973 203.279 212.808 202.929 213.587C202.58 214.367 202.067 215.075 201.421 215.671C200.775 216.267 200.008 216.74 199.163 217.063C198.319 217.386 197.414 217.552 196.5 217.551V217.551Z" fill="white"/>
</g>
<g clip-path="url(#clip17_880_2041)">
<path d="M137 172H254V189H137V172Z" fill="#97BC62"/>
<path d="M195.5 183.551C193.654 183.551 191.884 182.875 190.579 181.671C189.274 180.467 188.541 178.834 188.541 177.131V172H202.458V177.13C202.459 177.973 202.279 178.808 201.929 179.587C201.58 180.367 201.067 181.075 200.421 181.671C199.775 182.267 199.008 182.74 198.163 183.063C197.319 183.386 196.414 183.552 195.5 183.551V183.551Z" fill="white"/>
</g>
<g clip-path="url(#clip18_880_2041)">
<path d="M137 189H254V206H137V189Z" fill="#2C5F2D"/>
<path d="M195.5 200.551C193.654 200.551 191.884 199.875 190.579 198.671C189.274 197.467 188.541 195.834 188.541 194.131V189H202.458V194.13C202.459 194.973 202.279 195.808 201.929 196.587C201.58 197.367 201.067 198.075 200.421 198.671C199.775 199.267 199.008 199.74 198.163 200.063C197.319 200.386 196.414 200.552 195.5 200.551V200.551Z" fill="white"/>
</g>
<g clip-path="url(#clip19_880_2041)">
<path d="M623.335 98H625.505C634.615 98 642 104.928 642 113.473V117.997C642 118.263 641.888 118.518 641.687 118.706C641.487 118.894 641.215 119 640.931 119H604.756C604.472 119 604.2 118.894 604 118.706C603.799 118.518 603.687 118.263 603.687 117.997V116.433C603.687 106.253 612.483 98 623.335 98Z" fill="#2C5F2D"/>
<path d="M625.267 116.587H594.536C593.863 116.587 593.218 116.838 592.743 117.284C592.267 117.73 592 118.335 592 118.966H625.267V116.587Z" fill="#2C5F2D"/>
</g>
<g clip-path="url(#clip20_880_2041)">
<path d="M192.665 99H190.495C181.385 99 174 105.928 174 114.473V118.997C174 119.263 174.112 119.518 174.313 119.706C174.513 119.894 174.785 120 175.069 120H211.244C211.528 120 211.8 119.894 212 119.706C212.201 119.518 212.313 119.263 212.313 118.997V117.433C212.313 107.253 203.517 99 192.665 99Z" fill="#2C5F2D"/>
<path d="M190.733 117.587H221.464C222.137 117.587 222.782 117.838 223.257 118.284C223.733 118.73 224 119.335 224 119.966H190.733V117.587Z" fill="#2C5F2D"/>
</g>
<defs>
<clipPath id="clip0_880_2041">
<rect width="88.9997" height="163" fill="white" transform="translate(211 278)"/>
</clipPath>
<clipPath id="clip1_880_2041">
<rect width="111" height="250" fill="white" transform="translate(567 190)"/>
</clipPath>
<clipPath id="clip2_880_2041">
<rect width="92" height="300" fill="white" transform="translate(661 138)"/>
</clipPath>
<clipPath id="clip3_880_2041">
<rect width="90" height="203" fill="white" transform="translate(125 241)"/>
</clipPath>
<clipPath id="clip4_880_2041">
<rect width="92" height="300" fill="white" transform="translate(46 143)"/>
</clipPath>
<clipPath id="clip5_880_2041">
<rect width="316" height="133" fill="white" transform="translate(36 312)"/>
</clipPath>
<clipPath id="clip6_880_2041">
<rect width="113" height="198" fill="white" transform="translate(271 248)"/>
</clipPath>
<clipPath id="clip7_880_2041">
<rect width="107" height="300" fill="white" transform="translate(478 140)"/>
</clipPath>
<clipPath id="clip8_880_2041">
<rect width="89" height="78" fill="white" transform="matrix(-0.95569 -0.294375 -0.294375 0.95569 569.509 380.828)"/>
</clipPath>
<clipPath id="clip9_880_2041">
<rect width="232" height="321" fill="white" transform="translate(284 138)"/>
</clipPath>
<clipPath id="clip10_880_2041">
<rect width="182" height="121" fill="white" transform="translate(607.272 297.297) rotate(11.8657)"/>
</clipPath>
<clipPath id="clip11_880_2041">
<rect width="154" height="15" fill="white" transform="translate(553 446)"/>
</clipPath>
<clipPath id="clip12_880_2041">
<rect width="154" height="15" fill="white" transform="translate(118 465)"/>
</clipPath>
<clipPath id="clip13_880_2041">
<rect width="150" height="364" fill="white" transform="matrix(-1 0 0 1 683 98)"/>
</clipPath>
<clipPath id="clip14_880_2041">
<rect width="129" height="367" fill="white" transform="translate(126 101)"/>
</clipPath>
<clipPath id="clip15_880_2041">
<rect width="117" height="17" fill="white" transform="translate(138 223)"/>
</clipPath>
<clipPath id="clip16_880_2041">
<rect width="117" height="17" fill="white" transform="translate(138 206)"/>
</clipPath>
<clipPath id="clip17_880_2041">
<rect width="117" height="17" fill="white" transform="translate(137 172)"/>
</clipPath>
<clipPath id="clip18_880_2041">
<rect width="117" height="17" fill="white" transform="translate(137 189)"/>
</clipPath>
<clipPath id="clip19_880_2041">
<rect width="50" height="21" fill="white" transform="translate(592 98)"/>
</clipPath>
<clipPath id="clip20_880_2041">
<rect width="50" height="21" fill="white" transform="matrix(-1 0 0 1 224 99)"/>
</clipPath>
</defs>
</svg>
