<svg width="443" height="451" viewBox="0 0 443 451" fill="none" xmlns="http://www.w3.org/2000/svg">
<path d="M356.11 23.8525C349.494 21.169 342.688 23.2318 342.688 23.2318C342.688 23.2318 337.267 5.93504 325.911 1.15936C314.554 -3.61632 303.782 7.4956 301.201 13.905C298.621 20.3145 298.76 20.4328 298.76 20.4328C298.76 20.4328 292.384 8.06099 283.202 7.06582C274.022 6.06993 267.11 13.8677 265.814 17.946C264.519 22.025 264.29 22.2976 264.29 22.2976C264.29 22.2976 255.382 20.346 247.511 26.0286C239.641 31.7105 244.461 38.1522 244.461 38.1522L363.737 37.8415C363.737 37.8415 362.727 26.5359 356.11 23.8525Z" fill="#EDF4E6"/>
<path d="M323.057 225.783C323.057 281.871 277.588 327.34 221.5 327.34C165.412 327.34 119.943 281.87 119.943 225.783C119.943 169.695 165.412 124.227 221.5 124.227C277.588 124.227 323.057 169.695 323.057 225.783Z" fill="#DCEFCF"/>
<path d="M198.291 345.622C196.621 343.633 193.838 342.833 191.25 343.044C188.66 343.256 186.592 344.412 184.323 345.678C182.349 346.78 181.669 348.574 179.304 349.395L177.325 349.974C177.572 350.087 178.586 350.614 178.856 350.652C184.215 351.383 189.654 351.126 195.056 350.866C196.543 350.794 198.286 350.573 199.012 349.275C199.657 348.122 199.141 346.635 198.292 345.624L198.291 345.622Z" fill="#162F34"/>
<path d="M300.45 135.379C300.45 150.572 288.135 162.888 272.941 162.888C257.749 162.888 245.432 150.572 245.432 135.379C245.432 120.186 257.749 107.87 272.941 107.87C288.134 107.87 300.45 120.185 300.45 135.379Z" fill="#305A31"/>
<path d="M297.94 135.379C297.94 149.185 286.747 160.378 272.941 160.378C259.135 160.378 247.943 149.185 247.943 135.379C247.943 121.573 259.135 110.381 272.941 110.381C286.748 110.381 297.94 121.573 297.94 135.379Z" fill="white"/>
<path d="M296.522 143.683C296.853 142.742 297.129 141.776 297.347 140.787H294.902V123.426C294.081 121.921 293.107 120.513 292.006 119.216V140.787H257.689V129.783H287.517V115.075C286.597 114.413 285.63 113.811 284.621 113.277V126.887H265.074V111.651C264.08 111.98 263.111 112.365 262.177 112.812V126.887H254.793V136.153H247.963C247.993 137.133 248.073 138.1 248.214 139.049H254.793V152.561C255.689 153.507 256.657 154.383 257.689 155.179V143.683H296.522Z" fill="#99BA66"/>
<path d="M283.716 144.064L273.009 132.732L262.301 144.064H265.574V155.128H280.443V144.064H283.716Z" fill="#305A31"/>
<path d="M278.018 120.282C278.018 123.101 272.911 127.998 272.911 127.998C272.911 127.998 267.805 123.102 267.805 120.282C267.805 117.461 270.09 115.175 272.911 115.175C275.731 115.175 278.018 117.461 278.018 120.282Z" fill="#305A31"/>
<path d="M272.941 122.494C274.274 122.494 275.354 121.414 275.354 120.081C275.354 118.748 274.274 117.667 272.941 117.667C271.608 117.667 270.528 118.748 270.528 120.081C270.528 121.414 271.609 122.494 272.941 122.494Z" fill="white"/>
<path d="M206.858 170.559C207.473 170.141 208.093 169.511 207.993 168.775C207.867 167.849 206.754 167.468 205.832 167.315C199.573 166.273 193.139 166.697 186.899 167.85C180.66 169.003 174.577 170.873 168.513 172.74C167.471 173.061 166.231 173.616 166.158 174.704C166.115 175.353 166.555 175.96 167.113 176.296C167.671 176.63 168.331 176.743 168.977 176.827C172.845 177.331 176.774 177.036 180.649 176.587C187.729 175.769 194.751 174.443 201.641 172.623C203.459 172.144 205.302 171.613 206.858 170.56V170.559Z" fill="#162F34"/>
<path d="M267.303 202.502C266.985 197.324 266.309 192.093 267.179 186.978C263.966 186.626 260.753 186.275 257.54 185.923C256.827 189.309 255.976 192.667 254.994 195.985C254.757 195.499 254.526 195.009 254.311 194.512C252.999 191.468 252.169 188.24 250.984 185.146C249.799 182.051 248.196 179.013 245.673 176.864C244.748 176.074 243.543 175.386 242.366 175.698C241.617 175.896 241.025 176.468 240.536 177.071C239.159 178.763 238.31 180.824 237.694 182.916C236.709 186.263 236.283 189.851 237.092 193.244C238.656 199.796 244.393 204.408 247.792 210.224C248.721 211.813 249.652 212.993 250.525 214.612C252.07 217.604 251.91 218.201 252.746 219.536C254.337 222.075 258.217 222.784 261.144 222.142C263.812 221.557 264.111 220.226 265.291 217.763C267.532 213.084 267.618 207.68 267.302 202.502H267.303Z" fill="#A5BDBC"/>
<path d="M259.878 188.34C259.924 188.186 259.835 188.025 259.681 187.981C259.529 187.934 259.368 188.024 259.322 188.178C257.067 195.902 255.779 203.899 255.494 211.947C255.433 213.668 255.424 215.488 256.047 217.143C256.122 217.337 256.203 217.531 256.285 217.725C256.548 218.341 256.795 218.922 256.756 219.526C256.73 219.94 256.439 220.383 256.067 220.578C255.965 220.631 255.827 220.679 255.683 220.668C255.847 220.299 255.994 219.895 256.011 219.457C256.031 218.901 255.782 218.226 255.18 217.97C254.984 217.887 254.78 217.863 254.602 217.844C254.497 217.831 254.392 217.82 254.29 217.795C253.454 217.582 253.165 216.454 252.96 215.411C252.143 211.259 250.014 207.585 247.954 204.031L246.218 201.036C246.202 201.28 246.173 201.491 246.122 201.785C246.112 201.84 246.089 201.883 246.065 201.927L247.453 204.321C249.49 207.834 251.594 211.467 252.393 215.523C252.578 216.463 252.887 218.035 254.148 218.355C254.274 218.388 254.406 218.404 254.537 218.418C254.691 218.436 254.836 218.453 254.955 218.503C255.302 218.649 255.445 219.088 255.433 219.435C255.417 219.872 255.218 220.299 255.026 220.712C254.964 220.846 255.012 221.005 255.139 221.082C255.323 221.193 255.521 221.248 255.727 221.248C255.928 221.248 256.135 221.195 256.337 221.09C256.886 220.803 257.297 220.175 257.335 219.561C257.383 218.82 257.097 218.148 256.82 217.498C256.741 217.311 256.661 217.125 256.591 216.938C256.005 215.384 256.015 213.631 256.074 211.968C256.357 203.969 257.638 196.019 259.879 188.342L259.878 188.34Z" fill="#E8E8E8"/>
<path d="M243.909 208.377C245.481 200.194 246.12 191.817 245.558 183.504C246.74 186.794 247.932 190.127 248.256 193.607C248.743 198.841 247.154 204.241 243.909 208.377Z" fill="#162F34"/>
<path d="M258.163 189.743C259.068 190.36 260.144 190.723 261.237 190.778C262.592 190.847 263.937 190.453 265.154 189.854C265.886 189.493 266.633 188.993 266.882 188.217C267.054 187.684 266.961 187.107 266.868 186.556C266.723 185.701 266.576 184.844 266.431 183.989C266.383 183.699 266.327 183.396 266.14 183.169C265.888 182.862 265.463 182.772 265.07 182.717C263.48 182.495 261.852 182.543 260.277 182.859C259.278 183.059 258.192 183.457 257.753 184.377C257.551 184.801 257.517 185.283 257.486 185.753C257.436 186.513 257.386 187.273 257.337 188.034C257.318 188.316 257.301 188.607 257.392 188.875C257.518 189.248 257.837 189.523 258.163 189.745V189.743Z" fill="#162F34"/>
<path d="M261.389 173.313C261.536 173.375 261.703 173.322 261.853 173.269C262.843 172.919 263.832 172.57 264.822 172.221C263.686 170.373 262.328 168.662 260.787 167.133C260.894 168.985 260.999 170.838 261.105 172.69C261.12 172.931 261.165 173.22 261.388 173.313H261.389Z" fill="#FFBF87"/>
<path d="M260.394 180.815H251.86C251.356 180.815 250.947 180.407 250.947 179.903V162.724C250.947 162.22 251.356 161.812 251.86 161.812H260.394C260.898 161.812 261.306 162.22 261.306 162.724V179.903C261.306 180.407 260.897 180.815 260.394 180.815Z" fill="#A5BDBC"/>
<path d="M251.899 179.572C252.137 180.027 252.745 180.106 253.258 180.114C255.226 180.148 257.19 179.971 259.149 179.795C259.364 179.777 259.594 179.751 259.762 179.616C259.949 179.464 260.014 179.214 260.068 178.979C260.828 175.613 261.019 172.119 260.629 168.689C258.013 168.438 255.397 168.187 252.781 167.935C252.444 167.902 252.058 167.885 251.815 168.121C251.581 168.346 251.572 168.709 251.579 169.034C251.646 172.325 251.714 175.616 251.781 178.907C251.786 179.134 251.793 179.371 251.899 179.572Z" fill="#162F34"/>
<path d="M265.626 182.735C265.6 180.076 265.554 175.553 265.53 173.087C265.518 171.811 264.533 171.232 263.42 170.943C262.429 170.685 251.851 168.5 251.854 168.479C251.762 169.018 251.978 169.572 252.314 170.004C252.65 170.436 253.096 170.765 253.537 171.089C253.039 171.446 252.535 171.808 252.143 172.278C251.75 172.747 251.473 173.343 251.509 173.954C251.545 174.566 251.948 175.173 252.541 175.327C252.178 175.796 251.801 176.302 251.754 176.894C251.706 177.485 252.153 178.153 252.744 178.103C252.527 178.814 252.411 179.556 252.405 180.299C253.845 180.942 254.928 182.326 255.203 183.877C255.568 183.872 255.892 183.612 256.066 183.292C256.079 183.269 256.087 183.243 256.098 183.218C256.99 184.04 257.951 184.782 258.652 185.787C260.999 186.141 263.462 185.884 265.605 184.899C265.636 184.177 265.633 183.449 265.626 182.732V182.735Z" fill="#FFBF87"/>
<path d="M157.773 178.362C154.1 182.364 152.764 187.998 152.426 193.419C151.934 201.321 153.267 209.227 155.066 216.938C156.39 222.609 157.989 228.272 160.716 233.418C163.443 238.564 167.385 243.204 172.525 245.944C180.34 250.111 189.833 249.425 198.482 247.517C207.13 245.61 215.639 242.582 224.494 242.392C227.492 242.328 231.016 242.358 232.798 239.946C234.013 238.302 233.942 236.073 233.809 234.034C233.337 226.794 232.74 219.562 232.018 212.343C231.308 205.251 230.47 198.123 228.373 191.312C226.278 184.5 222.843 177.96 217.599 173.134C215.034 170.773 212.013 168.828 208.643 167.936C205.129 167.007 201.422 167.26 197.803 167.6C189.989 168.336 182.211 169.456 174.509 170.956C168.414 172.144 161.973 173.787 157.774 178.362H157.773Z" fill="#305A31"/>
<path d="M152.978 150.283L154.661 170.819C154.879 173.484 157.259 175.413 159.864 175.035L209.72 167.811C212.118 167.463 213.834 165.274 213.631 162.819L212.061 143.839C211.845 141.231 209.555 139.318 206.996 139.609L157.028 145.278C154.567 145.557 152.772 147.776 152.978 150.285V150.283Z" fill="#305A31"/>
<path d="M156.204 150.917L157.831 170.448C158.042 172.983 160.344 174.817 162.861 174.458L211.063 167.587C213.382 167.257 215.042 165.174 214.845 162.84L213.327 144.788C213.118 142.308 210.905 140.489 208.43 140.765L160.12 146.156C157.741 146.422 156.005 148.532 156.204 150.917Z" fill="white"/>
<path d="M209.774 174.399C198.62 175.049 187.537 176.91 176.784 179.939C176.088 180.135 175.852 181.017 176.362 181.529C177.141 182.312 177.877 183.331 178.131 183.693C184.684 193.022 184.528 205.483 184.868 216.384C185.147 225.349 184.827 234.32 184.501 243.28C184.457 244.459 184.49 245.839 185.435 246.546C186.083 247.03 186.959 247.027 187.767 247.002C203.222 246.51 218.635 244.715 233.79 241.643C234.583 220.792 232.798 202.303 226.3 186.81C225.433 184.743 219.38 176.776 217.474 175.596C215.229 174.205 212.411 174.247 209.774 174.4V174.399Z" fill="#99BA66"/>
<path d="M176.819 188.498C175.91 186.168 174.439 183.558 172.896 181.588C171.353 179.619 169.244 178.006 166.798 177.479C162.543 176.559 158.07 179.224 155.927 183.013C158.619 180.673 162.621 180.179 166.013 181.282C169.405 182.385 172.207 184.91 174.183 187.88C176.159 190.85 177.378 194.256 178.36 197.687C182.827 213.318 182.636 229.894 181.34 246.101C183.797 226.683 183.93 206.734 176.819 188.498Z" fill="white"/>
<path d="M243.884 240.75H201.379V231.713H243.884V240.75Z" fill="#162F34"/>
<path d="M245.474 177.091C245.261 176.307 245.004 175.497 244.438 174.916C243.26 173.705 241.311 173.935 239.633 173.74C236.527 173.379 233.853 171.267 232.08 168.676C225.958 171.47 218.822 172.01 213.338 167.596C212.763 168.133 212.158 168.638 211.531 169.108C208.303 171.523 204.505 173.072 200.638 174.213C199.293 174.609 197.861 175.002 196.901 176.024C195.217 177.819 195.684 180.663 196.182 183.073C199.395 198.596 199.259 214.802 195.814 230.274C195.247 232.823 196.94 235.315 199.507 235.787C214.958 238.627 231.046 237.98 246.21 233.876C241.535 215.416 250.47 195.468 245.474 177.092V177.091Z" fill="#A5BDBC"/>
<path d="M223.291 189.479C219.909 190.565 216.307 190.968 212.769 190.656C212.765 189.286 212.762 187.914 212.759 186.543C216.253 186.253 219.734 185.802 223.186 185.192C223.221 186.621 223.257 188.051 223.291 189.479Z" fill="white"/>
<path d="M223.203 171.499C225.88 174.36 225.954 178.71 225.89 182.627C225.579 201.594 225.697 220.568 226.249 239.531C227.941 239.386 229.634 239.242 231.326 239.096C230.924 221.282 230.523 203.468 230.121 185.653C230.012 180.811 229.894 175.909 228.59 171.245C226.795 171.33 224.999 171.414 223.203 171.498V171.499Z" fill="#162F34"/>
<path d="M229.019 216.008C228.551 206.241 228.067 196.141 228.825 186.13C229.239 180.648 228.167 176.342 226.949 171.886C226.76 171.929 226.569 171.963 226.379 171.998C227.589 176.42 228.656 180.686 228.247 186.087C227.488 196.132 227.972 206.251 228.44 216.036C228.591 219.183 228.746 222.437 228.859 225.655C229.002 229.709 229.148 233.903 228.567 237.976C228.545 238.134 228.656 238.28 228.813 238.304C228.826 238.306 228.84 238.307 228.854 238.307C228.996 238.307 229.118 238.203 229.14 238.058C229.728 233.934 229.58 229.715 229.437 225.635C229.323 222.413 229.168 219.158 229.017 216.008H229.019Z" fill="#A5BDBC"/>
<path d="M211.665 168.934C214.817 171.392 218.725 172.868 222.714 173.109C226.703 173.351 230.76 172.356 234.185 170.297C233.356 169.591 232.713 168.667 232.339 167.645C229.409 168.933 226.208 169.767 223.017 169.503C219.828 169.24 216.648 167.772 214.781 165.172C214.096 166.67 213.01 167.983 211.665 168.935V168.934Z" fill="#162F34"/>
<path d="M225.896 284.531C224.867 284.531 220.934 284.531 219.905 284.531C212.312 284.531 206.158 297.285 206.158 313.018C206.158 328.751 212.312 341.505 219.905 341.505C220.934 341.505 224.867 341.505 225.896 341.505C233.489 341.505 239.643 328.751 239.643 313.018C239.643 297.285 233.489 284.531 225.896 284.531Z" fill="black"/>
<path d="M223.484 313.018C223.484 324.105 220.612 333.092 217.07 333.092C213.528 333.092 210.656 324.105 210.656 313.018C210.656 301.931 213.528 292.943 217.07 292.943C220.612 292.943 223.484 301.931 223.484 313.018Z" fill="#99BA66"/>
<path d="M220.993 309.03C220.993 318.314 218.588 325.84 215.621 325.84C212.655 325.84 210.25 318.314 210.25 309.03C210.25 299.745 212.654 292.22 215.621 292.22C218.587 292.22 220.993 299.747 220.993 309.03Z" fill="white"/>
<path d="M265.018 258.861C259.359 251.722 250.894 246.868 241.874 245.591C232.854 244.313 223.374 246.625 215.956 251.914C213.29 253.814 210.823 256.167 209.518 259.171C207.603 263.58 208.458 268.641 209.345 273.366C211.691 285.853 214.035 298.34 216.38 310.827C216.652 312.279 216.948 313.785 217.825 314.974C218.977 316.534 220.919 317.269 222.782 317.804C236.643 321.784 251.435 318.917 265.564 316.032C268.415 315.451 271.557 314.682 273.184 312.269C274.074 310.948 274.362 309.323 274.586 307.746C275.715 299.778 275.72 291.65 274.6 283.679C273.351 274.792 270.592 265.892 265.018 258.86V258.861Z" fill="black"/>
<path d="M218.022 273.485C215.988 268.413 213.043 262.048 207.39 260.49C202.624 259.177 197.435 261.672 194.279 265.478C191.122 269.284 189.623 274.173 188.469 278.981C185.376 291.861 186.033 305.676 190.451 318.164C201.882 319.433 211.108 320.127 223.104 319.627C223.829 319.596 223.883 306.529 223.859 305.27C223.766 300.414 223.312 295.567 222.503 290.778C221.551 285.129 220.317 279.254 218.16 273.833C218.114 273.718 218.068 273.603 218.021 273.487L218.022 273.485Z" fill="#305A31"/>
<path d="M217.88 276.893C220.409 283.188 220.346 290.286 218.917 296.919C217.489 303.552 214.767 309.824 212.062 316.046C211.609 317.089 210.767 318.335 209.669 318.039C208.851 317.819 208.518 316.863 208.311 316.042C206.759 309.896 205.203 303.716 204.653 297.401C204.103 291.086 204.601 284.572 207.036 278.717C207.826 276.818 208.88 274.926 210.591 273.785C212.302 272.643 214.81 272.482 216.302 273.897L217.877 276.894L217.88 276.893Z" fill="white"/>
<path d="M230.423 316.806C225.621 316.275 220.352 315.511 217.163 311.88C216.544 313.866 217.418 316.085 218.882 317.563C220.345 319.04 222.308 319.905 224.261 320.62C238.425 325.805 254.079 324.732 268.972 322.346C269.704 320.208 267.286 323.006 268.018 320.868C254.892 324.717 244.021 318.31 230.425 316.806H230.423Z" fill="#99BA66"/>
<path d="M177.904 322.244C185.227 327.486 194.638 329.718 203.244 327.071C195.279 323.317 186.648 321.212 177.904 322.244Z" fill="#162F34"/>
<path d="M198.114 334.478C198.509 330.302 198.904 326.126 199.299 321.951C194.048 322.19 188.771 321.865 183.589 320.983C183.286 324.839 182.744 328.678 181.967 332.466C187.349 333.137 192.732 333.807 198.115 334.477L198.114 334.478Z" fill="white"/>
<path d="M289.329 273.445C286.074 265.717 284.189 257.429 283.134 249.095C281.886 239.243 281.761 229.287 281.637 219.356C274.073 218.551 266.359 219.184 259.029 221.211C264.04 239.779 270.1 259.038 280.988 275.812C283.79 275.167 286.568 274.311 289.329 273.445Z" fill="#FFBF87"/>
<path d="M192.537 328.134C194.303 328.426 196.03 329.231 197.177 330.605C199.153 332.969 199.041 336.4 198.651 339.458C198.261 342.515 197.732 345.793 199.124 348.543C192.069 348.517 185.013 348.839 177.99 349.502C177.261 344.525 177.56 339.206 180.047 334.833C182.535 330.461 187.575 327.314 192.538 328.135L192.537 328.134Z" fill="#305A31"/>
<path d="M190.661 327.568C189.785 327.66 188.833 327.932 188.363 328.677C188.11 329.075 188.032 329.557 187.975 330.026C187.568 333.333 187.928 336.73 189.017 339.879C189.183 340.36 189.408 340.88 189.871 341.088C190.175 341.225 190.524 341.197 190.858 341.177C193.085 341.044 195.341 341.394 197.423 342.196C197.189 338.907 197.304 335.593 197.765 332.328C197.89 331.445 198.023 330.477 197.553 329.721C197.272 329.271 196.815 328.965 196.351 328.71C194.628 327.765 192.614 327.361 190.661 327.567V327.568Z" fill="#CADCB6"/>
<path d="M181.019 335.816C181.496 335.24 182.164 334.684 182.904 334.794C183.519 334.886 183.976 335.42 184.268 335.971C184.863 337.088 185.022 338.378 185.326 339.608C185.629 340.838 186.147 342.108 187.202 342.809C185.268 344.388 182.962 345.506 180.526 346.049C180.05 346.155 179.556 346.239 179.076 346.151C178.597 346.062 178.128 345.77 177.953 345.313C177.808 344.936 177.881 344.515 177.955 344.117C178.503 341.185 179.114 338.113 181.018 335.816H181.019Z" fill="#A5BDBC"/>
<path d="M199.67 345.699C199.568 343.461 199.023 341.039 197.27 339.643C195.203 337.998 192.135 338.356 189.771 339.536C187.964 340.437 186.393 341.74 184.701 342.843C183.009 343.946 181.104 344.873 179.084 344.873C178.443 344.873 177.734 344.796 177.222 345.183C176.643 345.62 176.572 346.449 176.552 347.174C176.53 347.986 176.532 348.873 177.043 349.504C177.588 350.177 178.532 350.338 179.393 350.43C184.887 351.02 190.435 350.659 195.949 350.298C196.756 350.245 197.603 350.18 198.281 349.739C199.534 348.925 199.738 347.19 199.669 345.699H199.67Z" fill="#99BA66"/>
<path d="M237.209 143.661C238.986 149.829 237.82 156.776 234.126 162.023C233.35 163.124 232.433 164.183 231.213 164.754C228.958 165.81 226.315 164.964 223.975 164.111C221.343 163.151 218.608 162.124 216.686 160.084C214.875 158.161 213.991 155.537 213.554 152.932C213.032 149.822 213.121 146.452 214.739 143.746C216.757 140.375 220.824 138.665 224.747 138.471C228.671 138.276 232.532 139.365 236.31 140.443L237.208 143.661H237.209Z" fill="#162F34"/>
<path d="M232.688 169.5C232.392 169.128 232.114 168.744 231.858 168.349C230.091 165.612 229.169 162.428 228.27 159.294C224.986 159.343 221.703 159.393 218.418 159.443C217.727 162.074 216.3 164.455 214.454 166.468C219.497 170.371 226.534 170.773 232.688 169.5Z" fill="#A06650"/>
<path d="M236.237 150.783C236.215 150.667 236.192 150.551 236.167 150.436C235.976 149.57 235.582 148.542 236.024 147.682C236.711 146.343 236.603 146.017 235.709 143.246L234.746 141.089C232.502 138.658 229.107 137.504 225.799 137.469C222.491 137.434 219.248 138.415 216.207 139.717C215.194 140.151 214.096 140.729 213.757 141.778C213.565 142.374 213.658 143.021 213.757 143.639C214.156 146.096 214.642 148.54 215.127 150.982C215.519 152.95 215.921 154.948 216.851 156.726C218.029 158.982 219.972 160.728 221.872 162.42C222.646 163.109 223.436 163.809 224.381 164.232C226.186 165.04 228.361 164.709 230.066 163.707C231.771 162.704 233.053 161.106 234.041 159.393C235.098 157.558 235.859 155.551 236.283 153.477C236.465 152.589 236.406 151.669 236.237 150.782V150.783Z" fill="#A06650"/>
<path d="M221.861 148.449C223.082 147.197 224.641 146.617 226.307 146.753C226.369 146.496 226.494 146.255 226.675 146.064C224.753 145.831 222.76 146.671 221.493 148.135C221.637 148.212 221.757 148.324 221.86 148.449H221.861Z" fill="black"/>
<path d="M224.65 151.112C224.476 151.13 224.289 151.139 224.137 151.051C223.997 150.972 223.912 150.822 223.858 150.67C223.752 150.372 223.743 150.041 223.832 149.738C223.92 149.441 224.109 149.167 224.38 149.018C224.65 148.868 225.004 148.859 225.261 149.03C225.578 149.241 225.683 149.654 225.726 150.031C225.747 150.207 225.758 150.391 225.694 150.556C225.619 150.75 225.447 150.895 225.256 150.978C225.065 151.061 224.855 151.091 224.648 151.111L224.65 151.112Z" fill="#0C4D5E"/>
<path d="M225.342 149.869C225.24 149.691 225.052 149.532 224.851 149.571C224.639 149.614 224.53 149.853 224.496 150.067C224.471 150.219 224.469 150.377 224.518 150.523C224.567 150.669 224.675 150.8 224.82 150.851C225.047 150.928 225.312 150.78 225.408 150.56C225.506 150.34 225.459 150.077 225.341 149.869H225.342Z" fill="black"/>
<path d="M224.423 150.044C224.497 150.048 224.567 150.007 224.617 149.952C224.713 149.845 224.736 149.658 224.625 149.566C224.559 149.511 224.458 149.506 224.382 149.545C224.305 149.585 224.252 149.664 224.237 149.749C224.212 149.879 224.292 150.034 224.423 150.044Z" fill="white"/>
<path d="M233.87 146.712C234.535 146.712 235.118 147.108 235.408 147.668C235.411 147.675 235.416 147.679 235.419 147.685C235.543 147.639 235.626 147.492 235.613 147.352C235.596 147.185 235.485 147.043 235.371 146.92C235.138 146.667 234.867 146.441 234.555 146.294C234.243 146.147 233.884 146.085 233.547 146.162C233.326 146.213 233.105 146.335 233.005 146.538C232.941 146.668 232.947 146.826 233.01 146.952C233.266 146.804 233.557 146.711 233.87 146.711V146.712Z" fill="black"/>
<path d="M233.696 149.753C233.671 149.536 233.756 149.319 233.876 149.138C234.048 148.878 234.347 148.658 234.649 148.727C234.854 148.773 235.013 148.944 235.097 149.136C235.181 149.329 235.202 149.542 235.217 149.751C235.236 150.004 235.232 150.297 235.035 150.456C234.867 150.591 234.624 150.571 234.419 150.504C234.069 150.391 233.733 150.12 233.694 149.753H233.696Z" fill="#0C4D5E"/>
<path d="M234.802 149.386C234.72 149.289 234.592 149.205 234.472 149.246C234.38 149.278 234.326 149.373 234.289 149.464C234.232 149.604 234.193 149.756 234.217 149.904C234.241 150.053 234.338 150.197 234.481 150.243C234.677 150.306 234.897 150.155 234.956 149.958C235.014 149.761 234.936 149.543 234.803 149.386H234.802Z" fill="black"/>
<path d="M234.308 149.519C234.364 149.523 234.418 149.491 234.456 149.449C234.53 149.368 234.547 149.225 234.463 149.155C234.412 149.113 234.336 149.11 234.278 149.14C234.22 149.17 234.18 149.23 234.168 149.295C234.149 149.392 234.21 149.512 234.309 149.519H234.308Z" fill="white"/>
<path d="M234.761 150.681C232.944 149.634 229.642 150.081 227.679 150.416C225.714 150.75 223.356 151.927 221.583 152.837C221.089 153.09 220.566 153.397 220.355 153.911C220.232 154.209 220.231 154.541 220.233 154.862C220.246 156.51 220.322 158.158 220.46 159.801C220.505 160.336 220.56 160.882 220.785 161.37C221.014 161.871 221.408 162.277 221.822 162.64C222.457 163.198 223.166 163.687 223.962 163.969C225.243 164.426 228.716 165.173 229.983 164.677C231.25 164.181 231.133 164.13 232.059 163.133C233.894 161.156 235.324 159.128 236.306 156.617C236.74 155.507 237.229 153.52 236.789 152.9C236.457 152.432 235.258 150.966 234.761 150.679V150.681Z" fill="#162F34"/>
<path d="M229.029 150.839C226.211 151.052 223.484 152.219 221.356 154.076C221.629 156.786 221.695 159.2 222.049 161.91C222.375 162.507 223.065 163.459 223.533 163.811C225.009 164.917 226.471 165.173 228.293 165.452C231.166 165.891 233.091 164.035 234.665 161.59C236.239 159.147 236.919 155.647 237.223 152.758C234.655 150.695 232.314 150.591 229.028 150.84L229.029 150.839Z" fill="white"/>
<path d="M221.776 154.914C219.529 153.714 218.037 152.873 216.593 152.061L215.7 151.56L215.983 151.055L216.876 151.557C218.316 152.368 219.805 153.207 222.047 154.404L221.775 154.914H221.776Z" fill="white"/>
<path d="M222.424 160.885L216.776 158.134L217.03 157.613L222.677 160.364L222.424 160.885Z" fill="white"/>
<path d="M219.461 147.351C222.14 145.204 230.972 145.71 236.427 145.3C236.316 144.762 236.051 144.309 235.709 143.247L234.746 141.09C232.502 138.66 229.107 137.506 225.799 137.47C222.491 137.435 219.248 138.416 216.207 139.718C215.194 140.152 214.096 140.731 213.757 141.779C213.565 142.375 213.658 143.022 213.757 143.64C214.156 146.097 214.642 148.541 215.127 150.983C215.519 152.951 215.921 154.949 216.851 156.727C217.21 157.415 217.647 158.052 218.125 158.658C217.396 154.219 216.781 150.034 219.462 147.351H219.461Z" fill="#162F34"/>
<path d="M219.114 130.483C215.961 131.342 212.952 132.995 210.9 135.539C208.801 138.141 207.835 141.495 207.47 144.817C207.139 147.834 207.273 150.941 208.237 153.819C209.264 156.891 211.293 159.691 214.155 161.239C214.64 161.502 215.188 161.667 215.735 161.594C217.255 161.392 217.556 159.837 217.61 158.54C217.733 155.622 217.49 152.418 216.829 149.408C216.351 147.232 217.938 145.14 220.163 145.035C226.188 144.753 232.17 144.693 238.224 144.261C238.505 144.241 238.807 144.213 239.015 144.024C239.263 143.801 239.295 143.428 239.296 143.094C239.311 138.504 236.446 134.15 232.46 131.873C228.474 129.596 223.541 129.277 219.113 130.484L219.114 130.483Z" fill="#305A31"/>
<path d="M215.267 161.713C214.89 161.713 214.545 161.588 214.285 161.356C214.165 161.249 214.154 161.066 214.261 160.947C214.368 160.827 214.55 160.817 214.67 160.924C214.887 161.117 215.154 161.146 215.343 161.132C215.71 161.107 216.089 160.918 216.331 160.638C216.791 160.106 216.92 159.354 216.994 158.62C217.203 156.497 217.037 154.374 216.501 152.309C216.444 152.091 216.383 151.871 216.322 151.649C215.906 150.135 215.474 148.569 216.092 147.109C216.556 146.011 217.614 145.118 218.994 144.661C220.202 144.26 221.47 144.214 222.697 144.168L235.924 143.682C237.053 143.641 238.331 143.593 239.388 143.066C239.53 142.995 239.705 143.053 239.776 143.197C239.847 143.34 239.788 143.514 239.645 143.586C238.475 144.168 237.131 144.217 235.945 144.261L222.718 144.749C221.532 144.792 220.306 144.837 219.175 145.213C217.954 145.618 217.025 146.392 216.626 147.336C216.087 148.612 216.491 150.078 216.882 151.498C216.944 151.721 217.005 151.945 217.062 152.164C217.616 154.295 217.788 156.488 217.571 158.679C217.493 159.467 217.337 160.362 216.771 161.018C216.425 161.418 215.906 161.678 215.382 161.712C215.345 161.714 215.307 161.715 215.269 161.715L215.267 161.713Z" fill="#A5BDBC"/>
<path d="M226.923 130.92C221.656 129.767 215.826 131.73 212.329 135.833C208.831 139.936 207.817 146.003 209.789 151.021C208.878 146.746 209.767 142.117 212.198 138.485C214.629 134.852 218.57 132.264 222.869 131.475L226.922 130.92H226.923Z" fill="white"/>
<path d="M202.895 179.101C203.597 178.655 204.564 178.832 205.232 179.328C205.9 179.824 206.325 180.578 206.675 181.334C208.55 185.371 208.828 190.004 208.231 194.415C207.634 198.827 206.209 203.078 204.79 207.298C210.149 210.586 215.772 213.442 221.588 215.831C212.256 217.845 202.246 216.556 193.729 212.245C199.195 203.067 200.113 192.006 201.787 181.456C201.927 180.571 202.14 179.582 202.895 179.101Z" fill="#162F34"/>
<path d="M209.596 227.501C212.061 228.121 214.741 228.636 217.081 227.642C218.985 226.833 220.354 225.148 221.583 223.484C222.839 221.785 224.084 219.581 223.159 217.681C222.325 215.966 220.179 215.458 218.32 215.034C212.541 213.715 207.005 211.343 202.062 208.071C202.85 204.119 204.498 200.403 205.853 196.609C207.209 192.815 208.29 188.805 207.871 184.798C207.451 180.791 205.267 176.769 201.597 175.107C200.384 174.558 198.988 174.284 197.714 174.674C195.916 175.225 194.757 176.935 193.836 178.573C188.176 188.631 189.077 199.164 185.755 211.872C185.267 213.742 185.777 215.842 186.759 217.508C187.856 219.369 189.906 220.42 191.873 221.311C197.58 223.898 203.52 225.973 209.597 227.501H209.596Z" fill="#A5BDBC"/>
<path d="M216.465 223.61C216.274 224.764 216.35 226.074 217.159 226.92C217.7 227.487 218.479 227.748 219.225 227.989C219.89 228.204 220.585 228.422 221.274 228.311C221.991 228.193 222.603 227.734 223.128 227.231C224.455 225.958 225.415 224.309 225.87 222.528C226.126 221.525 226.21 220.41 225.718 219.498C225.249 218.63 224.314 218.084 223.347 217.887C221.715 217.555 219.966 218.143 218.728 219.258C217.49 220.373 216.74 221.967 216.466 223.61H216.465Z" fill="#162F34"/>
<path d="M216.204 227.594C216.099 227.594 215.997 227.536 215.946 227.437C215.635 226.833 215.25 226.864 214.475 226.986C213.93 227.071 213.313 227.168 212.637 226.936C210.112 226.071 207.454 225.472 204.883 224.892C202.352 224.321 199.736 223.732 197.232 222.886C192.495 221.287 187.805 219.088 185.601 213.879C185.539 213.731 185.608 213.561 185.755 213.499C185.902 213.436 186.072 213.505 186.135 213.653C188.251 218.652 192.809 220.782 197.418 222.338C199.894 223.173 202.495 223.76 205.011 224.327C207.597 224.909 210.271 225.512 212.826 226.388C213.368 226.574 213.886 226.492 214.388 226.414C215.117 226.299 215.946 226.171 216.462 227.172C216.535 227.315 216.48 227.489 216.337 227.562C216.295 227.584 216.249 227.594 216.205 227.594H216.204Z" fill="#E8E8E8"/>
<path d="M187.325 333.494C189.037 332.591 190.937 331.937 192.901 331.874C194.865 331.811 196.898 332.385 198.312 333.664C198.78 334.086 199.061 334.793 199.101 335.447C199.112 335.635 198.879 335.728 198.743 335.597C197.185 334.098 195.061 333.137 192.829 333.235C190.431 333.341 188.131 334.356 186.345 335.859C185.889 335.579 185.842 334.931 186.103 334.483C186.366 334.035 186.85 333.745 187.325 333.494Z" fill="#162F34"/>
<path d="M187.433 335.502C189.146 334.598 191.046 333.945 193.01 333.882C194.973 333.819 197.005 334.392 198.421 335.672C198.888 336.092 199.17 336.801 199.208 337.455C199.22 337.643 198.987 337.736 198.851 337.605C197.292 336.107 195.168 335.144 192.937 335.244C190.539 335.35 188.238 336.364 186.452 337.868C185.997 337.588 185.949 336.94 186.211 336.491C186.473 336.044 186.957 335.754 187.432 335.502H187.433Z" fill="#162F34"/>
<path d="M186.681 339.056C188.113 337.457 190.201 336.488 192.342 336.331C194.482 336.173 196.657 336.809 198.434 338.013C198.765 338.238 199.1 338.501 199.246 338.875C199.392 339.248 199.269 339.753 198.896 339.898C197.204 338.663 195.131 337.958 193.038 337.904C190.944 337.851 188.839 338.45 187.087 339.599C186.93 339.702 186.722 339.808 186.572 339.698C186.373 339.555 186.518 339.241 186.682 339.058L186.681 339.056Z" fill="#162F34"/>
<path d="M230.151 238.402H211.356C207.474 239.052 202.439 237.157 199.593 239.596C195.122 243.426 194.16 252.679 194.867 258.162C194.994 259.152 195.238 260.177 195.947 260.947C197.391 262.519 200.051 262.437 202.334 262.443C206.538 262.453 210.737 263.238 214.589 264.735C216.883 265.627 219.324 266.797 221.747 266.239C223.572 265.818 224.933 264.5 226.179 263.242C229.096 260.297 232.039 257.278 233.822 253.689C235.606 250.1 236.088 245.792 234.05 242.312C233.133 240.744 231.761 239.444 230.152 238.403L230.151 238.402Z" fill="#A5BDBC"/>
<path d="M226.495 244.769C225.308 243.347 223.856 241.836 222.003 241.81C220.622 241.79 219.385 242.617 218.291 243.461C210.676 249.339 205.185 257.516 200.396 265.857C190.28 283.471 182.663 302.517 177.846 322.249C186.41 323.212 194.9 324.841 203.214 327.115C209.421 305.615 215.723 283.882 226.829 264.455C228.996 260.666 231.429 256.535 230.678 252.237C230.181 249.393 228.347 246.985 226.496 244.769H226.495Z" fill="#A5BDBC"/>
<path d="M195.766 260.675C196.838 262.137 198.831 262.744 200.619 262.451C202.409 262.16 203.996 261.086 205.231 259.758C206.466 258.43 207.39 256.851 208.306 255.286C205.004 258.573 200.424 260.541 195.766 260.674V260.675Z" fill="#162F34"/>
<path d="M180.774 322.783C180.75 322.783 180.724 322.779 180.7 322.773C180.545 322.732 180.454 322.572 180.495 322.418C184.728 306.571 191.254 289.962 200.444 271.641C202.766 267.014 205.398 262.288 209.782 259.77C209.943 259.677 210.044 259.52 210.056 259.338C210.069 259.163 209.998 259.002 209.859 258.892L209.133 258.319C208.781 258.043 208.598 257.612 208.641 257.165C208.682 256.731 208.935 256.352 209.317 256.154C210.776 255.397 212.337 254.876 213.956 254.606C212.979 254.394 211.978 254.332 210.979 254.419C210.673 254.443 210.384 254.267 210.271 253.974C210.158 253.68 210.249 253.357 210.496 253.168C211.545 252.369 212.68 251.683 213.872 251.124L203.629 253.075C202.014 253.383 200.341 253.7 198.658 253.443C196.73 253.15 195.332 252.195 194.722 250.755C194.66 250.608 194.728 250.437 194.876 250.375C195.022 250.312 195.194 250.382 195.256 250.529C195.932 252.128 197.527 252.686 198.744 252.87C200.33 253.112 201.952 252.804 203.52 252.506L218.252 249.699C218.411 249.669 218.561 249.772 218.591 249.928C218.62 250.085 218.518 250.237 218.36 250.267C215.651 250.783 213.052 251.945 210.845 253.628C210.785 253.673 210.797 253.733 210.809 253.765C210.821 253.796 210.855 253.852 210.927 253.842C211.982 253.751 213.041 253.817 214.074 254.036C214.353 254.094 214.544 254.333 214.538 254.616C214.532 254.899 214.331 255.13 214.049 255.177C212.49 255.438 210.987 255.94 209.582 256.668C209.372 256.778 209.238 256.979 209.214 257.221C209.191 257.471 209.293 257.711 209.489 257.865L210.217 258.438C210.504 258.665 210.66 259.018 210.633 259.381C210.606 259.752 210.395 260.086 210.068 260.274C205.826 262.711 203.242 267.354 200.96 271.903C191.787 290.187 185.275 306.76 181.052 322.569C181.018 322.698 180.9 322.784 180.773 322.784L180.774 322.783Z" fill="#E8E8E8"/>
<path d="M300.867 240.098C299.565 235.895 298.161 231.516 295.059 228.397C290.9 224.217 284.578 223.166 278.687 222.894C267.129 222.358 255.282 224.059 244.964 229.294C241.413 231.095 237.991 233.374 235.665 236.606C232.712 240.708 231.812 245.925 231.475 250.968C230.308 268.497 234.957 285.826 236.933 303.283C237.522 308.487 237.711 314.282 234.427 318.364C233.416 319.619 232.019 321.142 232.737 322.586C233.264 323.65 234.641 323.901 235.821 324.017C253.08 325.712 270.975 325.768 287.188 319.614C296.348 316.136 305.136 310.307 309.459 301.513C312.48 295.366 313.071 288.252 312.314 281.446C311.555 274.639 309.521 268.049 307.495 261.506C305.287 254.37 303.077 247.234 300.869 240.099L300.867 240.098Z" fill="#305A31"/>
<path d="M303.422 287.328C300.357 281.351 294.835 276.343 288.208 275.255C282.105 274.253 275.749 276.711 271.183 280.882C266.616 285.054 263.69 290.775 261.936 296.706C260.183 302.638 259.519 308.829 258.874 314.98C258.595 317.637 258.488 320.754 260.521 322.487C262.337 324.036 265.041 323.744 267.384 323.281C275.311 321.714 283.048 319.182 290.368 315.758C296.693 312.801 303.183 308.604 305.294 301.949C306.819 297.143 305.723 291.813 303.423 287.326L303.422 287.328Z" fill="#162F34"/>
<path d="M245.334 238.024C244.616 236.8 242.963 236.556 241.903 237.499C238.663 240.381 236.813 244.79 236.309 249.164C235.681 254.615 236.837 260.101 237.983 265.462C241.82 264.844 240.195 265.105 244.032 264.487C243.603 260.776 243.349 256.993 244.09 253.333C244.724 250.199 246.172 247.134 248.492 244.976C249.202 244.316 249.241 243.221 248.594 242.499C247.362 241.121 246.269 239.62 245.334 238.027V238.024Z" fill="white"/>
<path d="M293.314 233.829C293.249 234.672 293.099 235.507 292.863 236.319C292.677 236.961 292.855 237.656 293.348 238.107C296.231 240.749 298.424 244.14 299.637 247.857C300.208 248.035 300.815 247.552 300.993 246.982C301.172 246.412 301.043 245.795 300.911 245.212C300.035 241.321 297.635 236.547 294.78 233.309C294.285 232.747 293.371 233.083 293.314 233.83V233.829Z" fill="white"/>
<path d="M238.182 296.982C238.707 288.848 237.008 280.757 235.584 272.73C234.16 264.704 233.005 256.436 234.603 248.443C236.201 240.449 241.04 232.674 248.586 229.592C240.638 232.031 235.768 239.013 233.791 247.088C231.814 255.163 232.638 264.209 234.298 272.356C235.957 280.503 237.769 288.679 238.183 296.982H238.182Z" fill="#99BA66"/>
<path d="M281.727 226.164C281.688 223.905 281.657 221.646 281.628 219.387C273.358 218.506 264.922 219.199 256.905 221.416C257.383 223.191 257.876 224.971 258.375 226.754C260.457 237.526 270.876 278.836 270.876 278.836L281.261 276.351L267.71 228.787C272.435 228.392 277.13 227.492 281.728 226.163L281.727 226.164Z" fill="#162F34"/>
<path d="M281.727 225.553C274.938 227.514 267.921 228.457 260.929 228.077C265.602 244.471 271.436 261.098 280.988 275.812C283.79 275.167 286.568 274.311 289.329 273.444C286.074 265.717 284.189 257.429 283.133 249.095C282.146 241.292 281.864 233.423 281.727 225.553Z" fill="#99BA66"/>
<path d="M301.779 212.245C301.779 213.884 300.807 215.213 299.608 215.213C298.408 215.213 297.436 213.884 297.436 212.245C297.436 210.606 298.408 209.277 299.608 209.277C300.807 209.277 301.779 210.606 301.779 212.245Z" fill="#162F34"/>
<path d="M308.321 213.61C308.118 214.095 307.614 214.4 307.099 214.507C306.584 214.613 306.051 214.55 305.528 214.487C302.957 214.177 300.385 213.867 297.814 213.556C297.876 212.615 297.938 211.674 298.001 210.732C300.41 210.87 302.82 211.008 305.23 211.145C306.007 211.19 306.817 211.244 307.486 211.64C308.155 212.037 308.623 212.892 308.321 213.608V213.61Z" fill="#162F34"/>
<path d="M298.978 209.516C295.556 209.825 292.924 208.751 290.453 206.364C288.985 204.947 287.858 203.138 286.119 202.072C283.265 200.321 279.632 201.011 276.301 201.356C271.381 201.867 266.221 201.526 261.704 203.545C258.374 205.033 255.722 207.671 252.888 209.967C247.998 213.929 242.369 216.966 236.386 218.919C237.483 220.133 238.302 221.616 238.891 223.204C243.688 222.226 248.715 222.116 253.629 222.302C261.284 222.591 268.966 223.525 276.579 222.673C279.709 222.323 282.86 221.652 285.608 220.109C287.827 218.865 289.708 217.094 291.869 215.753C294.031 214.411 295.986 213.752 298.42 214.492C299.971 213.395 300.092 210.732 298.98 209.515L298.978 209.516Z" fill="#305A31"/>
<path d="M253.919 213.076C254.22 213.016 254.514 212.905 254.764 212.727C256.003 211.849 255.714 209.823 256.75 208.711C254.71 210.268 252.671 211.824 250.631 213.381C251.623 212.883 252.83 213.293 253.919 213.075V213.076Z" fill="white"/>
<path d="M243.76 227.211C244.374 226.933 244.709 226.245 244.529 225.595C244.371 225.021 244.327 224.415 244.406 223.825C244.499 223.137 244.755 222.47 244.749 221.775C244.741 220.768 244.188 219.851 243.601 219.033C243.168 218.431 242.68 217.827 242.003 217.521C240.986 217.062 239.805 217.375 238.735 217.694C238.041 217.901 237.242 218.209 237.054 218.909C236.966 219.232 237.035 219.578 237.13 219.899C237.508 221.188 238.293 222.354 239.346 223.188C240.001 223.707 240.817 224.188 240.981 225.008C241.102 225.609 240.809 226.233 240.381 226.671C239.952 227.11 239.401 227.404 238.867 227.707C234.526 230.18 230.91 233.774 227.849 237.722C227.77 237.825 227.693 237.934 227.621 238.044C227.612 238.058 227.599 238.068 227.59 238.081C227.415 238.34 227.271 238.641 227.296 238.953C227.337 239.483 227.852 239.863 228.369 239.988C228.752 240.08 229.243 240.02 229.409 239.662C229.523 239.414 229.432 239.128 229.372 238.862C229.313 238.601 229.29 238.333 229.293 238.065C233.249 233.453 238.223 229.716 243.76 227.211Z" fill="white"/>
<path d="M287.105 216.099C288.361 214.097 288.221 211.542 287.813 209.213C287.516 207.524 287.051 205.739 285.766 204.605C284.581 203.558 282.922 203.266 281.348 203.109C276.376 202.617 271.31 203.077 266.508 204.458C263.523 205.317 260.385 206.76 259.069 209.572C257.683 212.529 258.558 216.922 260.97 219.123C263.382 221.323 266.683 221.172 269.948 221.247C273.762 221.336 277.902 220.736 281.543 219.597C285.387 218.394 285.937 217.963 287.105 216.099Z" fill="white"/>
<path d="M282.706 203.994C284.29 205.592 285.209 207.753 285.672 209.955C286.134 212.158 286.17 214.424 286.206 216.673C287.541 213.472 287.545 209.739 286.212 206.537C285.907 205.803 285.52 205.077 284.919 204.557C284.317 204.036 283.463 203.751 282.706 203.994Z" fill="#162F34"/>
<path d="M299.354 216.68C299.744 216.818 300.17 216.701 300.583 216.721C303.783 216.879 306.415 216.615 309.019 217.845C308.854 217.924 308.764 218.483 308.867 218.633C309.163 218.97 309.795 218.751 309.929 218.323C310.064 217.896 309.806 217.424 309.439 217.168C309.07 216.912 308.373 216.574 307.933 216.494C305.356 216.015 303.023 215.787 300.447 215.308C299.768 215.095 299.553 214.216 299.681 213.517C299.807 212.817 300.157 212.157 300.165 211.446C300.179 210.297 299.109 209.297 297.987 209.242C297.708 209.228 297.497 209.503 297.596 209.764C298.152 211.227 298.003 212.947 297.211 214.297C297.062 214.552 297.141 214.878 297.402 215.014C298.088 215.372 298.554 216.396 299.353 216.681L299.354 216.68Z" fill="white"/>
<path d="M305.762 191.177C305.762 194.777 302.845 197.693 299.247 197.693C295.648 197.693 292.731 194.775 292.731 191.177C292.731 187.579 295.648 184.662 299.247 184.662C302.845 184.662 305.762 187.579 305.762 191.177Z" fill="white"/>
<path d="M298.796 211.241C298.517 211.241 298.271 211.038 298.224 210.753L296.932 202.711C296.778 201.748 296.861 200.751 297.172 199.829L299.639 192.513C299.74 192.21 300.071 192.048 300.373 192.148C300.676 192.251 300.839 192.579 300.736 192.883L298.27 200.199C298.018 200.944 297.952 201.749 298.076 202.527L299.368 210.569C299.419 210.885 299.204 211.183 298.889 211.233C298.858 211.238 298.827 211.241 298.797 211.241H298.796Z" fill="white"/>
<path d="M233.942 200.445C233.942 205.003 230.246 208.698 225.687 208.698C221.13 208.698 217.434 205.002 217.434 200.445C217.434 195.886 221.13 192.192 225.687 192.192C230.246 192.192 233.942 195.887 233.942 200.445Z" fill="white"/>
<path d="M240.505 219.654C240.242 219.654 240.005 219.476 239.942 219.209L237.42 208.635C237.159 207.539 236.442 206.601 235.453 206.062L226.617 201.242C226.335 201.089 226.232 200.737 226.385 200.457C226.538 200.176 226.891 200.073 227.17 200.225L236.007 205.045C237.284 205.742 238.209 206.952 238.547 208.366L241.068 218.94C241.143 219.251 240.951 219.563 240.64 219.638C240.594 219.648 240.549 219.653 240.505 219.653V219.654Z" fill="white"/>
<path d="M217.288 226.163C217.733 227.253 218.178 228.343 218.622 229.431C224.89 226.787 231.343 224.577 237.918 222.825C237.524 221.606 236.935 220.451 236.179 219.417C229.883 221.666 223.585 223.915 217.288 226.163Z" fill="#162F34"/>
<path d="M234.087 219.747C234.036 218.988 234.605 218.269 235.325 218.021C236.045 217.773 236.863 217.944 237.51 218.347C238.156 218.75 238.647 219.361 239.041 220.013C239.529 220.822 239.889 221.728 239.941 222.672C239.965 223.103 239.803 223.617 239.557 224.113C239.043 225.151 237.667 225.422 236.819 224.635C235.424 223.34 234.18 221.132 234.087 219.747Z" fill="#162F34"/>
<path d="M219.8 227.553C220.571 229.023 220.234 230.718 219.048 231.341C217.862 231.963 216.275 231.276 215.504 229.807C214.733 228.337 215.07 226.642 216.256 226.019C217.442 225.397 219.029 226.083 219.8 227.553Z" fill="#162F34"/>
<path d="M293.22 285.059C292.101 285.205 287.826 285.765 286.706 285.912C278.452 286.993 273.576 301.736 275.816 318.841C278.057 335.946 286.565 348.936 294.819 347.855C295.937 347.709 300.212 347.149 301.332 347.002C309.587 345.921 314.463 331.178 312.222 314.073C309.982 296.968 301.474 283.978 293.22 285.059Z" fill="black"/>
<path d="M292.946 316.597C294.47 328.228 292.857 338.031 289.344 338.491C285.832 338.951 281.75 329.895 280.226 318.264C278.702 306.633 280.315 296.83 283.828 296.37C287.34 295.91 291.422 304.966 292.946 316.597Z" fill="#99BA66"/>
<path d="M306.096 286.259C303.616 282.818 300.414 279.812 296.544 278.073C288.57 274.492 281.084 277.496 277.266 285.122C274.599 290.447 272.313 297.544 272.658 303.544C273.042 310.252 273.189 317.811 274.657 324.368C287.383 322.878 305.643 319.871 316.805 315.706C315.221 305.661 312.045 294.508 306.099 286.259H306.096Z" fill="#305A31"/>
<path d="M282.763 280.33C280.468 281.565 278.679 283.709 277.874 286.187C278.902 284.978 280.731 284.65 282.239 285.145C283.746 285.64 284.947 286.833 285.767 288.191C286.588 289.549 287.074 291.078 287.552 292.592C289.898 300.001 292.243 307.41 294.588 314.82C294.891 315.774 295.221 316.773 295.955 317.453C297.332 318.727 299.495 318.395 301.324 317.98C300.382 318.182 299.404 317.65 298.804 316.896C298.202 316.142 297.903 315.199 297.62 314.278C294.546 304.318 291.799 294.258 289.386 284.119C289.003 282.506 288.487 280.702 287.025 279.923C285.713 279.225 284.074 279.624 282.764 280.329L282.763 280.33Z" fill="white"/>
<path d="M275.841 298.019C275.142 306.708 278.166 315.196 280.223 323.667C280.633 325.355 281.023 327.093 281.981 328.542C282.939 329.989 284.619 331.104 286.337 330.86C288.224 330.59 289.577 328.762 289.918 326.887C290.26 325.013 289.812 323.095 289.366 321.243C287.057 311.644 284.749 302.046 282.441 292.447C281.164 291.145 278.811 291.594 277.579 292.94C276.348 294.284 275.986 296.2 275.839 298.019H275.841Z" fill="#162F34"/>
<path d="M284.476 320.916C284.476 324.755 283.406 327.867 282.087 327.867C280.768 327.867 279.698 324.755 279.698 320.916C279.698 317.078 280.768 313.966 282.087 313.966C283.407 313.966 284.476 317.078 284.476 320.916Z" fill="#A5BDBC"/>
<path d="M286.549 328.597C286.88 328.999 287.499 329.081 287.981 328.88C288.462 328.68 288.816 328.251 289.052 327.786C289.795 326.314 289.477 324.551 289.107 322.944C287.031 313.93 283.828 305.181 282.239 296.069C282.107 295.311 281.973 294.52 281.514 293.902C281.057 293.284 280.164 292.913 279.496 293.295C279.038 293.558 278.803 294.105 278.777 294.632C278.75 295.159 278.897 295.678 279.04 296.186C280.551 301.547 281.724 307.003 282.55 312.51C283.714 312.812 284.46 313.929 284.986 315.01C286.746 318.626 287.259 322.833 286.422 326.766C286.29 327.387 286.147 328.107 286.55 328.598L286.549 328.597Z" fill="#A5BDBC"/>
<path d="M280.804 313.231C280.014 314.21 279.429 315.356 279.1 316.571C278.994 315.259 279.68 313.915 280.804 313.231Z" fill="#A5BDBC"/>
<path d="M234.955 225.543C234.551 224.352 233.854 221.288 232.734 220.716C231.339 220.004 229.708 219.926 228.173 219.838C226.546 219.746 224.885 219.536 223.274 219.896C222.064 220.166 221.097 220.698 220.282 221.633C219.412 222.63 218.928 223.401 218.978 224.722C219.028 226.043 221.207 228.345 222.528 228.395C222.137 228.581 222.025 229.115 222.171 229.522C222.317 229.929 222.65 230.236 222.97 230.527C223.683 231.172 224.395 231.818 225.108 232.464C225.631 232.938 226.191 233.429 226.885 233.565C227.767 233.736 228.647 233.288 229.393 232.787C230.731 231.89 232.234 231.26 233.216 229.984C234.394 228.456 235.573 227.37 234.954 225.544L234.955 225.543Z" fill="#FFBF87"/>
<path d="M142.11 81.8525C135.494 79.169 128.688 81.2318 128.688 81.2318C128.688 81.2318 123.267 63.935 111.911 59.1594C100.554 54.3837 89.7817 65.4956 87.2009 71.905C84.6208 78.3145 84.7599 78.4328 84.7599 78.4328C84.7599 78.4328 78.3835 66.061 69.2024 65.0658C60.022 64.0699 53.1103 71.8677 51.8145 75.946C50.5187 80.025 50.2898 80.2976 50.2898 80.2976C50.2898 80.2976 41.382 78.346 33.5111 84.0286C25.6408 89.7105 30.461 96.1522 30.461 96.1522L149.737 95.8415C149.737 95.8415 148.727 84.5359 142.11 81.8525V81.8525Z" fill="#EDF4E6"/>
</svg>
