<svg width="358" height="395" viewBox="0 0 358 395" fill="none" xmlns="http://www.w3.org/2000/svg">
<path d="M98.1104 23.8525C91.4937 21.169 84.6882 23.2318 84.6882 23.2318C84.6882 23.2318 79.2667 5.93504 67.9109 1.15936C56.5536 -3.61632 45.7817 7.4956 43.2009 13.905C40.6208 20.3145 40.7599 20.4328 40.7599 20.4328C40.7599 20.4328 34.3835 8.06099 25.2024 7.06582C16.022 6.06993 9.1103 13.8677 7.8145 17.946C6.51869 22.025 6.28981 22.2976 6.28981 22.2976C6.28981 22.2976 -2.61795 20.346 -10.4889 26.0286C-18.3592 31.7105 -13.539 38.1522 -13.539 38.1522L105.737 37.8415C105.737 37.8415 104.727 26.5359 98.1104 23.8525Z" fill="#EDF4E6"/>
<g clip-path="url(#clip0_202_2)">
<g clip-path="url(#clip1_202_2)">
<path d="M83.7806 296.632C83.7806 296.632 75.1486 294.227 68.8797 292.254C62.6098 290.279 49.1177 290.747 49.3415 292.799C49.5653 294.849 59.6751 296.197 67.1511 296.89C74.629 297.584 83.7806 296.632 83.7806 296.632Z" fill="#305A31"/>
<path d="M137.64 319.674C137.64 319.674 135.972 312.719 135.022 307.578C134.072 302.433 126.639 293.263 124.41 294.242C122.182 295.221 125.812 302.777 128.843 308.242C131.872 313.708 137.639 319.674 137.639 319.674H137.64Z" fill="#305A31"/>
<path d="M90.729 299.158C90.729 299.158 89.3341 294.548 88.5347 291.136C87.7344 287.725 81.6173 281.679 79.7988 282.344C77.9803 283.008 80.9829 288.007 83.4858 291.618C85.9868 295.232 90.729 299.157 90.729 299.157V299.158Z" fill="#305A31"/>
<path d="M108.4 305.859C108.4 305.859 107.157 298.941 106.457 293.827C105.756 288.713 100.077 279.541 98.3518 280.493C96.6252 281.446 99.3779 288.978 101.683 294.431C103.987 299.885 108.4 305.86 108.4 305.86V305.859Z" fill="#305A31"/>
<path d="M124.899 312.608C124.899 312.608 123.232 305.652 122.281 300.509C121.33 295.367 113.897 286.195 111.67 287.175C109.441 288.154 113.071 295.709 116.101 301.175C119.132 306.64 124.9 312.608 124.9 312.608H124.899Z" fill="#305A31"/>
<path d="M137.257 321.243C137.257 321.243 127.739 322.353 120.737 322.963C113.735 323.575 100.525 328.896 101.554 330.556C102.584 332.216 113.153 329.67 120.849 327.531C128.546 325.391 137.257 321.244 137.257 321.244V321.243Z" fill="#305A31"/>
<path d="M107.706 306.016C107.706 306.016 95.3732 307.524 86.2906 308.399C77.2089 309.274 60.2407 315.691 61.6445 317.563C63.0494 319.434 76.6923 316.258 86.6173 313.618C96.5422 310.977 107.706 306.016 107.706 306.016Z" fill="#305A31"/>
<path d="M90.7889 299.492C90.7889 299.492 79.9557 300.946 71.9762 301.798C63.9986 302.65 49.0957 308.682 50.3287 310.412C51.5627 312.144 63.547 309.135 72.2649 306.641C80.9819 304.147 90.7879 299.491 90.7879 299.491L90.7889 299.492Z" fill="#305A31"/>
<path d="M176.534 347.191C176.514 347.175 152.968 327.202 126.275 313.081C117.421 308.4 106.413 304.074 97.6044 300.911C93.2009 299.33 89.3491 298.041 86.5963 297.149C85.2194 296.701 84.1183 296.354 83.3589 296.118C82.9792 295.999 82.6875 295.91 82.4866 295.848L82.2588 295.78L82.1959 295.761L82.1739 295.755L82.1569 295.75L82.1299 295.744L82.084 295.736L82.012 295.728L81.6543 295.809L81.981 296.422L81.8651 295.738L81.6543 295.81L81.981 296.423L81.8651 295.739L81.8911 295.734H81.8901L81.8102 295.751L81.6313 295.825L81.4205 296.016C81.3106 296.158 81.2726 296.368 81.2916 296.496L81.3695 296.749C81.4755 296.93 81.5474 296.96 81.5894 296.995L81.7392 297.073L82.2268 295.773L81.983 296.421L82.2888 295.801L82.2268 295.773L81.983 296.421L82.2888 295.801L81.983 296.423L82.3757 295.851L82.2898 295.801L81.984 296.423L82.3767 295.851L81.984 296.423L82.5965 296.096C82.4906 295.916 82.4197 295.887 82.3777 295.851L81.985 296.423L82.5975 296.096L81.985 296.423L82.6755 296.364C82.6625 296.223 82.6225 296.147 82.5965 296.096L81.984 296.423L82.6745 296.364C82.6895 296.484 82.6575 296.668 82.5656 296.803C82.3917 297.045 82.2199 297.072 82.1609 297.095L82.076 297.112L82.078 297.111C82.0999 297.105 82.1779 297.105 82.3108 297.035L81.984 296.423L82.048 297.114L81.985 296.424L81.8641 297.106C81.8951 297.107 81.8841 297.122 82.048 297.113L81.985 296.423L81.8641 297.105L81.981 296.446L81.8062 297.092L81.8641 297.105L81.981 296.446L81.8062 297.092L81.8302 297.006L81.8062 297.093L81.8302 297.007L81.8062 297.094C82.4437 297.276 108.354 305.17 125.63 314.31C138.889 321.324 151.399 329.813 160.588 336.546C165.183 339.912 168.949 342.841 171.563 344.926C172.871 345.97 173.891 346.802 174.584 347.372C175.276 347.944 175.637 348.25 175.639 348.251L176.536 347.193L176.534 347.191Z" fill="#686868"/>
<path d="M123.898 313.665C123.898 313.665 111.573 315.313 102.492 316.292C93.4138 317.27 76.5025 323.874 77.9284 325.728C79.3542 327.581 92.9721 324.251 102.875 321.5C112.779 318.75 123.899 313.664 123.899 313.664L123.898 313.665Z" fill="#305A31"/>
<path d="M152.477 330.485C152.477 330.485 142.722 331.904 135.534 332.758C128.345 333.614 114.988 339.066 116.127 340.554C117.267 342.041 128.038 339.256 135.866 336.964C143.698 334.672 152.477 330.486 152.477 330.486V330.485Z" fill="#305A31"/>
<path d="M153.167 330.281C153.167 330.281 149.568 324.887 146.738 321.125C143.906 317.363 142.289 306.039 144.271 304.819C146.249 303.596 149.072 310.919 150.872 316.542C152.674 322.166 153.167 330.28 153.167 330.28V330.281Z" fill="#305A31"/>
<path d="M114.006 263.079C114.006 263.079 107.19 257.308 102.336 252.91C97.4805 248.511 85.0586 243.348 84.4021 245.31C83.7456 247.273 92.3426 252.69 98.8284 256.423C105.314 260.154 114.006 263.079 114.006 263.079Z" fill="#99BA66"/>
<path d="M153.171 306.419C153.171 306.419 154.57 299.385 155.862 294.298C157.153 289.214 154.252 277.769 151.824 277.739C149.395 277.707 149.523 286.103 149.984 292.345C150.443 298.587 153.172 306.418 153.172 306.418L153.171 306.419Z" fill="#305A31"/>
<path d="M119.245 268.265C119.245 268.265 119.911 263.48 120.614 260.038C121.317 256.596 118.303 248.545 116.376 248.397C114.452 248.251 115.08 254.052 115.836 258.385C116.592 262.717 119.244 268.265 119.244 268.265H119.245Z" fill="#305A31"/>
<path d="M132.455 281.7C132.455 281.7 134.224 274.872 135.729 269.917C137.234 264.963 135.925 254.245 133.963 254.397C131.999 254.549 131.344 262.562 131.15 268.491C130.956 274.421 132.455 281.701 132.455 281.701V281.7Z" fill="#305A31"/>
<path d="M144.583 294.693C144.583 294.693 145.983 287.659 147.273 282.573C148.564 277.488 145.664 266.043 143.235 266.011C140.806 265.981 140.934 274.377 141.394 280.619C141.852 286.861 144.583 294.693 144.583 294.693Z" fill="#305A31"/>
<path d="M152.168 307.693C152.168 307.693 143.079 304.76 136.479 302.414C129.877 300.07 115.681 299.449 115.919 301.39C116.157 303.331 126.799 305.388 134.668 306.626C142.539 307.865 152.167 307.693 152.167 307.693H152.168Z" fill="#99BA66"/>
<path d="M131.761 281.556C131.761 281.556 119.953 277.82 111.356 274.854C102.759 271.889 84.6989 270.709 85.1885 272.997C85.6781 275.288 99.37 278.044 109.469 279.748C119.567 281.453 131.76 281.555 131.76 281.555L131.761 281.556Z" fill="#99BA66"/>
<path d="M119.16 268.592C119.16 268.592 108.735 265.429 101.149 262.9C93.5617 260.371 77.5327 259.697 77.9263 261.787C78.319 263.878 90.4382 266.101 99.3819 267.438C108.326 268.774 119.16 268.592 119.16 268.592Z" fill="#99BA66"/>
<path d="M176.906 347.642C176.902 347.633 174.662 342.809 170.738 335.457C165.206 325.092 156.329 309.708 145.631 295.7C139.567 287.759 131.399 279.251 124.74 272.715C121.411 269.449 118.459 266.676 116.339 264.721C115.279 263.743 114.426 262.969 113.837 262.438C113.542 262.173 113.315 261.97 113.16 261.832L112.983 261.675L112.935 261.633L112.917 261.618L112.903 261.607L112.88 261.589L112.836 261.559L112.754 261.515C112.555 261.422 112.328 261.429 112.136 261.532C112.089 261.563 111.99 261.602 111.873 261.781L111.769 262.137L111.85 262.471C111.932 262.611 111.959 262.617 111.981 262.643L112.019 262.678L112.907 261.612L112.464 262.142L112.945 261.645L112.907 261.612L112.464 262.142L112.945 261.645L112.462 262.143L113.074 261.817C112.993 261.678 112.966 261.672 112.945 261.645L112.462 262.143L113.074 261.817L112.462 262.143L113.157 262.151L113.074 261.817L112.462 262.143L113.157 262.151L112.462 262.143L112.97 262.618C113.05 262.538 113.157 262.359 113.157 262.151L112.462 262.143L112.97 262.618L112.462 262.143L112.789 262.756L112.97 262.619L112.462 262.144L112.789 262.757L112.462 262.144L112.119 262.748L112.461 262.148L112.036 262.692L112.119 262.748L112.461 262.148L112.036 262.692L112.411 262.211L112.019 262.679L112.036 262.692L112.411 262.211L112.019 262.679C112.029 262.687 112.39 263.006 112.99 263.546C117.22 267.357 134.109 282.896 144.528 296.545C155.153 310.455 164.004 325.788 169.512 336.111C171.466 339.772 173 342.804 174.045 344.918C174.568 345.976 174.969 346.804 175.238 347.368C175.508 347.932 175.645 348.228 175.645 348.228L176.904 347.643L176.906 347.642Z" fill="#686868"/>
<path d="M143.232 295.243C143.232 295.243 131.374 291.639 122.737 288.768C114.098 285.897 96.0117 284.914 96.5272 287.195C97.0448 289.476 110.778 292.084 120.904 293.679C131.029 295.274 143.232 295.243 143.232 295.243Z" fill="#99BA66"/>
<path d="M162.092 322.43C162.092 322.43 152.659 319.68 145.788 317.481C138.916 315.28 124.53 314.719 124.94 316.548C125.35 318.376 136.276 320.299 144.33 321.453C152.385 322.607 162.092 322.429 162.092 322.429V322.43Z" fill="#99BA66"/>
<path d="M162.806 322.531C162.806 322.531 161.8 316.117 160.809 311.511C159.817 306.908 163.09 295.91 165.396 295.615C167.702 295.322 167.195 303.171 166.474 309.047C165.752 314.923 162.805 322.532 162.805 322.532L162.806 322.531Z" fill="#305A31"/>
<path d="M105.147 348.823H289.799V346.6H105.147V348.823Z" fill="#AEC193"/>
<path d="M202.453 153.227C202.453 153.227 206.26 168.222 207.582 170.813C208.904 173.403 234.079 186.635 243.448 187.077C252.818 187.52 261.376 189.221 261.376 189.221C261.376 189.221 262.209 183.55 262.934 183.18C263.66 182.81 248.829 173.806 241.838 171.627C234.848 169.448 208.689 152.394 202.452 153.226L202.453 153.227Z" fill="#99BA66"/>
<path d="M203.645 139.783C203.645 139.783 193.211 137.28 190.453 134.684C187.695 132.087 193.836 131.373 192.162 126.854C189.723 120.276 197.152 110.394 199.773 117.634C202.394 124.876 198.688 127.474 198.916 124.041C199.144 120.608 197.345 111.353 207.082 112.69C216.818 114.026 219.748 120.512 211.397 122.973C203.047 125.435 221.657 115.123 220.8 121.53C219.944 127.936 214.247 126.782 212.278 126.565C210.311 126.349 220.492 122.285 218.926 128.99C217.36 135.694 211.331 138.224 203.644 139.782L203.645 139.783Z" fill="#402A20"/>
<path d="M195.551 139.064C195.551 139.064 194.517 145.069 193.345 147.787C191.231 152.684 188.594 160.74 204.55 156.95C207.226 156.314 199.657 148.305 203.447 144.354C207.236 140.404 195.551 139.064 195.551 139.064Z" fill="#663333"/>
<path d="M194.226 138.981C194.226 138.981 196.306 141.207 193.57 148.567C193.567 148.575 198.766 151.149 202.11 148.173C201.975 146.962 202.216 145.639 203.447 144.355C207.236 140.405 194.226 138.982 194.226 138.982V138.981Z" fill="#684334"/>
<path d="M211.683 125.834C211.683 125.834 213.04 130.872 211.269 138.52C209.499 146.168 205.458 147.944 199.141 146.012C192.824 144.079 192.89 136.301 193.27 134.43C193.65 132.56 187.451 133.247 189.377 129.093C191.303 124.94 193.709 126.944 193.787 128.692C193.865 130.439 194.69 132.77 196.232 131.569C197.775 130.368 195.967 123.291 198.915 124.756C201.864 126.222 207.057 128.359 211.683 125.835V125.834Z" fill="#A06650"/>
<path d="M194.876 219.702L194.567 348.152H222.568C222.568 348.152 219.466 341.947 210.08 341.947C204.461 341.947 215.975 216.91 215.975 216.91L194.877 219.703L194.876 219.702Z" fill="#305A31"/>
<path d="M181.923 217.142L165.634 346.988L177.89 348.772L197.514 233.896L208.916 218.15L181.923 217.142Z" fill="#99BA66"/>
<path d="M177.888 348.772H164.858C164.858 348.772 168.115 341.932 173.328 342.583C178.54 343.235 177.888 348.772 177.888 348.772Z" fill="#393030"/>
<path d="M204.882 152.84C205.567 152.191 214.617 159.783 214.617 159.783C214.617 159.783 217.293 198.604 216.829 208.688C216.363 218.772 215.588 218.772 215.588 218.772C215.588 218.772 198.678 222.185 190.922 221.409C183.165 220.633 181.769 219.391 181.769 219.391C181.769 219.391 182.544 189.916 180.372 185.262C178.2 180.608 172.15 164.63 173.547 162.768C174.943 160.907 190.766 151.909 190.766 151.909C190.766 151.909 198.833 158.58 204.882 152.839V152.84Z" fill="#EDF4E6"/>
<path d="M185.988 275.392C193.627 287.734 205.589 296.309 219.66 299.594C248.688 306.364 277.793 288.262 284.549 259.234C287.807 245.232 285.431 230.766 277.832 218.518C270.193 206.192 258.242 197.612 244.19 194.327C230.138 191.054 215.651 193.451 203.376 201.102C191.107 208.727 182.54 220.673 179.261 234.703C176.005 248.685 178.384 263.144 185.988 275.392ZM196.822 190.558C211.914 181.177 229.728 178.225 247.001 182.25C264.303 186.28 279.016 196.829 288.39 211.968C297.719 227.043 300.65 244.831 296.644 262.047C288.327 297.725 252.528 320.008 216.846 311.686C199.526 307.648 184.819 297.075 175.431 281.937C166.095 266.866 163.176 249.095 167.18 231.883C171.207 214.62 181.733 199.939 196.821 190.558H196.822Z" fill="#3F4449"/>
<path d="M231.953 300.829C227.911 300.829 223.808 300.37 219.705 299.411C216.28 298.614 212.98 297.502 209.837 296.095C211.749 264.109 215.166 225.845 215.853 218.254C216.121 217.38 216.536 215.026 216.829 208.687C216.938 206.326 216.875 202.388 216.714 197.742C217.352 197.718 217.991 197.706 218.629 197.706C222.57 197.706 226.535 198.157 230.468 199.081L230.54 199.1C244.049 202.276 255.528 210.536 262.867 222.376C270.181 234.182 272.485 248.111 269.339 261.61C266.195 275.124 257.951 286.623 246.127 293.971C242.867 295.997 239.449 297.631 235.918 298.881C244.161 298.266 252.182 295.651 259.408 291.146C271.233 283.795 279.472 272.308 282.619 258.787C285.757 245.298 283.457 231.362 276.149 219.572C268.816 207.725 257.329 199.45 243.811 196.277L243.744 196.256C239.805 195.339 235.834 194.887 231.89 194.887C226.732 194.887 221.619 195.661 216.694 197.181C216.672 196.567 216.648 195.941 216.623 195.307C221.564 193.83 226.682 193.082 231.843 193.082C235.937 193.082 240.057 193.552 244.141 194.502C258.163 197.77 270.077 206.326 277.67 218.616C285.246 230.824 287.619 245.235 284.369 259.189C278.598 284.01 256.411 300.827 231.952 300.827L231.953 300.829ZM194.718 285.911C192.89 284.157 191.178 282.265 189.597 280.246L194.805 249.76L194.718 285.911ZM178.042 248.089C177.955 243.652 178.421 239.174 179.45 234.741C179.613 234.042 179.789 233.348 179.978 232.659L178.042 248.089Z" fill="#F6FCF6"/>
<path d="M209.836 296.096C204.235 293.589 199.136 290.152 194.718 285.911L194.805 249.76L197.514 233.897L207.439 220.191C212.034 219.489 215.587 218.772 215.587 218.772C215.587 218.772 215.694 218.772 215.852 218.255C215.164 225.846 211.748 264.11 209.836 296.096Z" fill="#506E52"/>
<path d="M189.597 280.245C188.365 278.671 187.21 277.019 186.141 275.294C180.967 266.962 178.229 257.617 178.041 248.088L179.977 232.658C181.153 228.374 182.831 224.303 184.968 220.511C186.333 220.819 188.249 221.141 190.921 221.409C191.712 221.487 192.599 221.523 193.554 221.523C197.665 221.523 203.031 220.864 207.439 220.191L197.514 233.897L194.805 249.76L189.597 280.246V280.245Z" fill="#99BA66"/>
<path d="M193.555 221.523C192.599 221.523 191.713 221.487 190.922 221.409C188.25 221.142 186.334 220.819 184.969 220.511C189.354 212.725 195.662 206.115 203.478 201.255C207.639 198.661 212.057 196.674 216.623 195.308C216.648 195.942 216.672 196.568 216.694 197.182C216.009 197.393 215.327 197.619 214.649 197.86C215.337 197.806 216.024 197.767 216.714 197.742C216.875 202.388 216.938 206.326 216.829 208.687C216.536 215.026 216.12 217.38 215.853 218.254C215.695 218.771 215.588 218.771 215.588 218.771C215.588 218.771 212.035 219.488 207.44 220.19C203.033 220.863 197.666 221.522 193.555 221.522V221.523Z" fill="#EEF4FB"/>
<path d="M235.918 298.881C239.449 297.631 242.868 295.997 246.127 293.971C257.951 286.623 266.195 275.124 269.339 261.61C272.485 248.11 270.181 234.182 262.867 222.376C255.529 210.536 244.05 202.275 230.54 199.1L230.468 199.081C226.535 198.158 222.57 197.706 218.629 197.706C217.99 197.706 217.351 197.718 216.714 197.742C216.708 197.557 216.701 197.37 216.694 197.182C221.62 195.661 226.732 194.888 231.89 194.888C235.834 194.888 239.804 195.34 243.744 196.257L243.811 196.278C257.329 199.451 268.817 207.726 276.149 219.573C283.457 231.363 285.757 245.299 282.619 258.788C279.472 272.309 271.233 283.796 259.408 291.147C252.182 295.651 244.162 298.267 235.918 298.882V298.881Z" fill="#FEFEFE"/>
<path d="M214.648 197.861C215.326 197.62 216.008 197.394 216.693 197.183C216.7 197.37 216.706 197.557 216.713 197.743C216.023 197.769 215.336 197.808 214.648 197.861Z" fill="#F1F9FD"/>
<path d="M218.965 302.593C249.644 309.75 280.413 290.61 287.548 259.936C290.992 245.126 288.469 229.851 280.446 216.899C272.375 203.874 259.749 194.803 244.885 191.331L246.145 185.904C246.189 185.914 246.222 185.929 246.266 185.933C262.547 189.754 276.371 199.702 285.185 213.949C293.999 228.157 296.757 244.938 292.979 261.185C285.137 294.85 251.373 315.864 217.696 308.015L218.952 302.583L218.965 302.592V302.593Z" fill="#EDF4E6"/>
<path d="M161.359 280.972C165.607 278.252 169.851 275.525 174.114 272.796C176.093 271.566 178.388 271.214 180.449 271.715C181.319 273.485 182.287 275.222 183.346 276.922C184.442 278.684 185.617 280.388 186.875 282.013C186.406 284.069 185.087 285.994 183.117 287.213C178.861 289.952 174.588 292.687 170.301 295.436C166.198 298.001 162.541 295.954 160.052 291.829L160.034 291.808C157.493 287.702 157.275 283.489 161.359 280.971V280.972Z" fill="#3F4449"/>
<path d="M81.7842 324.414L96.1256 347.456L173.705 299.177L159.359 276.134L81.7842 324.414Z" fill="#305A31"/>
<path d="M82.9393 326.262L88.8605 335.781L166.438 287.496L160.508 277.978L82.9393 326.262Z" fill="#AEC193"/>
<path d="M153.832 279.571L168.17 302.618L173.705 299.177L159.359 276.134L153.832 279.571Z" fill="#E5E8EC"/>
<path d="M155.63 281.436L161.964 291.619L165.765 289.248L159.43 279.073L155.63 281.436Z" fill="#D0D6D7"/>
<path d="M76.2627 327.857C73.8556 338.171 80.2754 348.484 90.6071 350.897C92.4486 349.749 94.2851 348.605 96.1256 347.456C91.3445 339.77 86.5673 332.1 81.7842 324.413C79.9437 325.56 78.1062 326.706 76.2627 327.856V327.857Z" fill="#E5E8EC"/>
<path d="M77.6825 329.952L84.0164 340.129L88.7615 337.167L82.4297 326.993L77.6825 329.952Z" fill="#D0D6D7"/>
<path d="M253.901 183.066L250.518 188.868C250.518 188.868 251.427 189.104 252.16 188.518C252.893 187.934 252.177 189.835 251.61 190.583C251.044 191.33 251.873 191.814 252.853 191.307C253.835 190.801 252.941 191.718 253.274 192.042C253.607 192.367 252.55 193.285 254.094 191.868C255.64 190.45 256.38 190.358 256.38 190.358L255.185 193.417C255.185 193.417 255.191 193.911 256.736 192.492C258.281 191.074 260.073 189.57 260.073 189.57C260.073 189.57 254.973 183.135 253.902 183.066H253.901Z" fill="#A06650"/>
<path d="M261.833 183.431C261.833 183.431 264.548 185.313 265.293 186.55C266.037 187.787 265.741 187.923 263.843 188.37C261.944 188.818 260.339 189.296 260.339 189.296C260.339 189.296 252.656 183.676 254.052 182.91C255.449 182.143 259.023 182.479 261.833 183.43V183.431Z" fill="#A06650"/>
<path d="M211.36 181.539L217.876 183.168C217.876 183.168 217.41 183.982 216.48 184.099C215.549 184.215 217.41 185.029 218.341 185.146C219.272 185.263 219.039 186.193 217.992 186.543C216.945 186.892 218.225 186.892 218.225 187.357C218.225 187.823 219.62 187.707 217.526 187.823C215.432 187.94 214.85 188.404 214.85 188.404L217.876 189.684C217.876 189.684 218.225 190.033 216.13 190.149C214.036 190.266 211.709 190.499 211.709 190.499C211.709 190.499 210.662 182.354 211.36 181.539Z" fill="#A06650"/>
<path d="M201.703 187.473C201.703 187.473 200.656 190.73 201.354 192.127C202.052 193.523 202.634 193.407 205.776 192.36C208.917 191.313 211.71 190.499 211.71 190.499C211.71 190.499 214.27 181.074 211.361 181.539C208.452 182.005 204.147 184.797 201.704 187.473H201.703Z" fill="#A06650"/>
<path d="M177.58 190.382L202.246 185.727C202.246 185.727 203.952 190.847 203.176 193.794C202.4 196.742 190.765 202.171 183.784 203.567C176.803 204.963 172.15 205.119 169.357 203.722C166.565 202.326 161.911 197.517 165.479 186.967C169.047 176.419 172.461 163.233 173.547 162.767C174.633 162.301 180.993 179.676 180.993 179.676L177.58 189.14V190.381V190.382Z" fill="#99BA66"/>
<path d="M303.963 338.357C303.963 338.357 305.567 337.91 306.732 337.543C307.896 337.177 310.403 337.264 310.362 337.644C310.32 338.025 308.442 338.276 307.053 338.405C305.664 338.534 303.964 338.357 303.964 338.357H303.963Z" fill="#305A31"/>
<path d="M293.957 342.637C293.957 342.637 294.267 341.345 294.444 340.39C294.621 339.434 296.001 337.731 296.415 337.912C296.829 338.094 296.154 339.498 295.592 340.513C295.029 341.528 293.958 342.636 293.958 342.636L293.957 342.637Z" fill="#305A31"/>
<path d="M302.672 338.826C302.672 338.826 302.931 337.97 303.08 337.336C303.229 336.702 304.365 335.579 304.702 335.702C305.04 335.826 304.483 336.754 304.017 337.424C303.552 338.096 302.672 338.825 302.672 338.825V338.826Z" fill="#305A31"/>
<path d="M299.39 340.07C299.39 340.07 299.621 338.784 299.75 337.835C299.88 336.885 300.935 335.181 301.256 335.357C301.577 335.534 301.065 336.934 300.638 337.947C300.209 338.96 299.39 340.07 299.39 340.07Z" fill="#305A31"/>
<path d="M296.323 341.324C296.323 341.324 296.633 340.032 296.81 339.077C296.987 338.122 298.368 336.418 298.781 336.6C299.196 336.782 298.521 338.186 297.958 339.201C297.394 340.216 296.323 341.325 296.323 341.325V341.324Z" fill="#305A31"/>
<path d="M294.028 342.929C294.028 342.929 295.797 343.135 297.098 343.249C298.398 343.363 300.852 344.351 300.662 344.66C300.47 344.968 298.506 344.495 297.078 344.098C295.648 343.7 294.029 342.93 294.029 342.93L294.028 342.929Z" fill="#305A31"/>
<path d="M299.518 340.099C299.518 340.099 301.809 340.379 303.496 340.542C305.184 340.705 308.335 341.897 308.075 342.245C307.814 342.592 305.279 342.002 303.435 341.512C301.592 341.022 299.518 340.1 299.518 340.1V340.099Z" fill="#305A31"/>
<path d="M302.661 338.887C302.661 338.887 304.673 339.157 306.156 339.316C307.638 339.474 310.407 340.595 310.178 340.917C309.948 341.238 307.723 340.68 306.102 340.216C304.484 339.753 302.661 338.887 302.661 338.887Z" fill="#305A31"/>
<path d="M286.731 347.749C286.735 347.746 291.108 344.035 296.067 341.412C297.712 340.543 299.757 339.739 301.393 339.151C302.211 338.857 302.927 338.618 303.438 338.452C303.694 338.369 303.899 338.304 304.04 338.26C304.11 338.238 304.165 338.221 304.202 338.21L304.244 338.197L304.256 338.193L304.26 338.192L304.263 338.191L304.268 338.19L304.277 338.188L304.29 338.187L304.357 338.202L304.296 338.316L304.318 338.189L304.357 338.202L304.296 338.316L304.318 338.189L304.313 338.188L304.328 338.191L304.361 338.205L304.4 338.24C304.42 338.266 304.428 338.305 304.424 338.329L304.409 338.376C304.389 338.41 304.376 338.415 304.368 338.422L304.34 338.436L304.249 338.194L304.294 338.314L304.237 338.199L304.249 338.193L304.294 338.313L304.237 338.198L304.294 338.313L304.221 338.207L304.237 338.198L304.294 338.313L304.221 338.207L304.294 338.313L304.18 338.252C304.2 338.219 304.213 338.213 304.221 338.206L304.294 338.312L304.18 338.251L304.294 338.312L304.166 338.301C304.168 338.275 304.176 338.261 304.181 338.251L304.295 338.312L304.167 338.301C304.164 338.323 304.17 338.358 304.187 338.383C304.22 338.428 304.252 338.433 304.263 338.437L304.279 338.441C304.275 338.44 304.26 338.44 304.236 338.427L304.297 338.313L304.285 338.442L304.297 338.314L304.319 338.441C304.313 338.441 304.315 338.444 304.285 338.443L304.297 338.315L304.319 338.442L304.297 338.32L304.329 338.44L304.318 338.442L304.296 338.32L304.328 338.44L304.324 338.424L304.329 338.44L304.325 338.424L304.33 338.44C304.211 338.474 299.398 339.94 296.188 341.638C293.725 342.941 291.401 344.518 289.694 345.77C288.84 346.395 288.141 346.939 287.654 347.326C287.411 347.52 287.222 347.675 287.094 347.781C286.965 347.887 286.898 347.944 286.898 347.944L286.731 347.747V347.749Z" fill="#686868"/>
<path d="M296.51 341.52C296.51 341.52 298.8 341.827 300.487 342.009C302.173 342.191 305.316 343.418 305.05 343.761C304.785 344.106 302.255 343.488 300.416 342.976C298.576 342.465 296.51 341.52 296.51 341.52Z" fill="#305A31"/>
<path d="M291.2 344.646C291.2 344.646 293.013 344.909 294.348 345.067C295.683 345.226 298.165 346.239 297.953 346.515C297.741 346.791 295.741 346.274 294.286 345.849C292.831 345.423 291.199 344.646 291.199 344.646H291.2Z" fill="#305A31"/>
<path d="M291.072 344.608C291.072 344.608 291.741 343.605 292.266 342.907C292.792 342.209 293.093 340.104 292.725 339.878C292.357 339.651 291.833 341.012 291.499 342.057C291.164 343.102 291.072 344.609 291.072 344.609V344.608Z" fill="#305A31"/>
<path d="M298.348 332.123C298.348 332.123 299.614 331.051 300.516 330.233C301.417 329.416 303.725 328.457 303.847 328.821C303.969 329.186 302.372 330.192 301.167 330.886C299.962 331.579 298.348 332.123 298.348 332.123Z" fill="#99BA66"/>
<path d="M291.071 340.174C291.071 340.174 290.812 338.867 290.572 337.923C290.332 336.978 290.871 334.852 291.322 334.847C291.774 334.841 291.75 336.401 291.665 337.56C291.58 338.72 291.072 340.175 291.072 340.175L291.071 340.174Z" fill="#305A31"/>
<path d="M297.374 333.087C297.374 333.087 297.25 332.198 297.121 331.558C296.99 330.919 297.55 329.423 297.908 329.395C298.266 329.368 298.149 330.446 298.008 331.25C297.867 332.056 297.374 333.086 297.374 333.086V333.087Z" fill="#305A31"/>
<path d="M294.92 335.582C294.92 335.582 294.592 334.314 294.312 333.393C294.032 332.472 294.276 330.481 294.64 330.509C295.004 330.537 295.126 332.026 295.162 333.127C295.198 334.229 294.919 335.581 294.919 335.581L294.92 335.582Z" fill="#305A31"/>
<path d="M292.667 337.996C292.667 337.996 292.407 336.689 292.168 335.744C291.928 334.799 292.466 332.673 292.917 332.667C293.369 332.661 293.345 334.221 293.26 335.381C293.175 336.541 292.667 337.996 292.667 337.996Z" fill="#305A31"/>
<path d="M291.258 340.411C291.258 340.411 292.947 339.866 294.173 339.431C295.4 338.995 298.037 338.88 297.993 339.24C297.949 339.601 295.971 339.982 294.51 340.213C293.048 340.443 291.258 340.411 291.258 340.411Z" fill="#99BA66"/>
<path d="M295.049 335.556C295.049 335.556 297.242 334.862 298.84 334.311C300.437 333.76 303.792 333.541 303.701 333.966C303.61 334.392 301.066 334.904 299.19 335.22C297.314 335.537 295.049 335.556 295.049 335.556Z" fill="#99BA66"/>
<path d="M297.39 333.148C297.39 333.148 299.327 332.56 300.737 332.091C302.146 331.621 305.124 331.495 305.051 331.884C304.978 332.273 302.727 332.685 301.065 332.934C299.404 333.182 297.391 333.149 297.391 333.149L297.39 333.148Z" fill="#99BA66"/>
<path d="M286.662 347.833C286.663 347.831 287.079 346.936 287.808 345.57C288.835 343.644 290.485 340.786 292.472 338.184C293.599 336.709 295.116 335.128 296.354 333.913C296.973 333.307 297.521 332.792 297.915 332.429C298.112 332.247 298.271 332.103 298.38 332.005C298.435 331.956 298.476 331.918 298.505 331.892L298.538 331.863L298.547 331.855L298.55 331.852L298.553 331.85L298.557 331.846L298.565 331.84L298.58 331.832C298.617 331.815 298.659 331.816 298.695 331.835C298.704 331.841 298.722 331.848 298.744 331.881L298.763 331.947L298.748 332.009C298.733 332.035 298.728 332.036 298.724 332.041L298.717 332.047L298.552 331.849L298.634 331.947L298.545 331.855L298.552 331.849L298.634 331.947L298.545 331.855L298.635 331.948L298.521 331.887C298.536 331.861 298.541 331.86 298.545 331.855L298.635 331.948L298.521 331.887L298.635 331.948L298.506 331.95L298.521 331.888L298.635 331.949L298.506 331.951L298.636 331.949L298.542 332.037C298.527 332.022 298.507 331.989 298.507 331.95L298.637 331.948L298.543 332.036L298.637 331.948L298.576 332.062L298.543 332.036L298.637 331.948L298.576 332.062L298.637 331.948L298.701 332.06L298.637 331.949L298.716 332.05L298.701 332.061L298.637 331.95L298.716 332.051L298.646 331.962L298.719 332.049L298.716 332.051L298.646 331.962L298.719 332.049C298.717 332.051 298.65 332.11 298.538 332.21C297.752 332.918 294.616 335.805 292.679 338.34C290.706 340.924 289.061 343.772 288.038 345.69C287.675 346.37 287.39 346.933 287.196 347.325C287.099 347.522 287.024 347.676 286.974 347.781C286.924 347.886 286.898 347.94 286.898 347.94L286.664 347.831L286.662 347.833Z" fill="#686868"/>
<path d="M292.918 338.098C292.918 338.098 295.121 337.428 296.726 336.895C298.331 336.361 301.691 336.178 301.595 336.602C301.499 337.026 298.948 337.51 297.067 337.807C295.185 338.103 292.919 338.098 292.919 338.098H292.918Z" fill="#99BA66"/>
<path d="M289.414 343.149C289.414 343.149 291.166 342.638 292.442 342.23C293.719 341.821 296.392 341.717 296.315 342.057C296.239 342.396 294.21 342.754 292.713 342.968C291.216 343.183 289.414 343.149 289.414 343.149Z" fill="#99BA66"/>
<path d="M289.282 343.168C289.282 343.168 289.469 341.976 289.653 341.121C289.836 340.266 289.229 338.223 288.8 338.168C288.372 338.113 288.466 339.572 288.6 340.663C288.734 341.755 289.282 343.168 289.282 343.168Z" fill="#305A31"/>
<path d="M342.899 90.8005C337.272 88.5186 331.485 90.2727 331.485 90.2727C331.485 90.2727 326.875 75.564 317.218 71.5029C307.56 67.4418 298.4 76.8911 296.205 82.3415C294.011 87.7919 294.13 87.8926 294.13 87.8926C294.13 87.8926 288.707 77.3719 280.9 76.5256C273.093 75.6787 267.216 82.3097 266.114 85.7778C265.012 89.2465 264.817 89.4783 264.817 89.4783C264.817 89.4783 257.242 87.8187 250.549 92.6511C243.856 97.4828 247.955 102.961 247.955 102.961L349.384 102.696C349.384 102.696 348.526 93.0824 342.899 90.8005Z" fill="#EDF4E6"/>
</g>
</g>
<defs>
<clipPath id="clip0_202_2">
<rect width="341" height="341" fill="white" transform="translate(17 54)"/>
</clipPath>
<clipPath id="clip1_202_2">
<rect width="399.676" height="399.676" fill="white" transform="translate(-12.7631 31.8903)"/>
</clipPath>
</defs>
</svg>
