<svg width="800" height="600" viewBox="0 0 800 600" fill="none" xmlns="http://www.w3.org/2000/svg">
<g clip-path="url(#clip0_880_1777)">
<path d="M588.5 235.5H667.5V435.5H588.5V235.5Z" fill="white"/>
<path d="M667.5 436H588.5C588.367 436 588.24 435.947 588.146 435.854C588.053 435.76 588 435.633 588 435.5V235.5C588 235.367 588.053 235.24 588.146 235.146C588.24 235.053 588.367 235 588.5 235H667.5C667.633 235 667.76 235.053 667.854 235.146C667.947 235.24 668 235.367 668 235.5V435.5C668 435.633 667.947 435.76 667.854 435.854C667.76 435.947 667.633 436 667.5 436ZM589 435H667V236H589V435Z" fill="#60657C"/>
</g>
<g clip-path="url(#clip1_880_1777)">
<path d="M665.5 183.5H757.5V483.5H665.5V183.5Z" fill="white"/>
<path d="M757.5 484H665.5C665.367 484 665.24 483.947 665.146 483.854C665.053 483.76 665 483.633 665 483.5V183.5C665 183.367 665.053 183.24 665.146 183.146C665.24 183.053 665.367 183 665.5 183H757.5C757.633 183 757.76 183.053 757.854 183.146C757.947 183.24 758 183.367 758 183.5V483.5C758 483.633 757.947 483.76 757.854 483.854C757.76 483.947 757.633 484 757.5 484ZM666 483H757V184H666V483Z" fill="#60657C"/>
<path d="M681.5 200.102H687.5V232.102H681.5V200.102Z" fill="white"/>
<path d="M687.5 232.602H681.5C681.367 232.602 681.24 232.549 681.146 232.456C681.053 232.362 681 232.235 681 232.102V200.102C681 199.969 681.053 199.842 681.146 199.748C681.24 199.655 681.367 199.602 681.5 199.602H687.5C687.633 199.602 687.76 199.655 687.854 199.748C687.947 199.842 688 199.969 688 200.102V232.102C688 232.379 687.777 232.602 687.5 232.602ZM682 231.602H687V200.602H682V231.602Z" fill="#60657C"/>
<path d="M699.5 200.102H705.5V232.102H699.5V200.102Z" fill="white"/>
<path d="M705.5 232.602H699.5C699.367 232.602 699.24 232.549 699.146 232.456C699.053 232.362 699 232.235 699 232.102V200.102C699 199.969 699.053 199.842 699.146 199.748C699.24 199.655 699.367 199.602 699.5 199.602H705.5C705.633 199.602 705.76 199.655 705.854 199.748C705.947 199.842 706 199.969 706 200.102V232.102C706 232.379 705.777 232.602 705.5 232.602ZM700 231.602H705V200.602H700V231.602Z" fill="#60657C"/>
<path d="M717.5 200.102H723.5V232.102H717.5V200.102Z" fill="white"/>
<path d="M723.5 232.602H717.5C717.367 232.602 717.24 232.549 717.146 232.456C717.053 232.362 717 232.235 717 232.102V200.102C717 199.969 717.053 199.842 717.146 199.748C717.24 199.655 717.367 199.602 717.5 199.602H723.5C723.633 199.602 723.76 199.655 723.854 199.748C723.947 199.842 724 199.969 724 200.102V232.102C724 232.379 723.777 232.602 723.5 232.602ZM718 231.602H723V200.602H718V231.602Z" fill="#60657C"/>
<path d="M735.5 200.102H741.5V232.102H735.5V200.102Z" fill="white"/>
<path d="M741.5 232.602H735.5C735.367 232.602 735.24 232.549 735.146 232.456C735.053 232.362 735 232.235 735 232.102V200.102C735 199.969 735.053 199.842 735.146 199.748C735.24 199.655 735.367 199.602 735.5 199.602H741.5C741.633 199.602 741.76 199.655 741.854 199.748C741.947 199.842 742 199.969 742 200.102V232.102C742 232.379 741.777 232.602 741.5 232.602ZM736 231.602H741V200.602H736V231.602Z" fill="#60657C"/>
<path d="M681.5 253.534H687.5V266.248H681.5V253.534Z" fill="white"/>
<path d="M687.5 266.748H681.5C681.367 266.748 681.24 266.695 681.146 266.602C681.053 266.508 681 266.381 681 266.248V253.534C681 253.401 681.053 253.274 681.146 253.18C681.24 253.087 681.367 253.034 681.5 253.034H687.5C687.633 253.034 687.76 253.087 687.854 253.18C687.947 253.274 688 253.401 688 253.534V266.248C688 266.525 687.777 266.748 687.5 266.748ZM682 265.748H687V254.034H682V265.748Z" fill="#60657C"/>
<path d="M699.5 253.534H705.5V266.248H699.5V253.534Z" fill="white"/>
<path d="M705.5 266.748H699.5C699.367 266.748 699.24 266.695 699.146 266.602C699.053 266.508 699 266.381 699 266.248V253.534C699 253.401 699.053 253.274 699.146 253.18C699.24 253.087 699.367 253.034 699.5 253.034H705.5C705.633 253.034 705.76 253.087 705.854 253.18C705.947 253.274 706 253.401 706 253.534V266.248C706 266.525 705.777 266.748 705.5 266.748ZM700 265.748H705V254.034H700V265.748Z" fill="#60657C"/>
<path d="M717.5 253.534H723.5V266.248H717.5V253.534Z" fill="white"/>
<path d="M723.5 266.748H717.5C717.367 266.748 717.24 266.695 717.146 266.602C717.053 266.508 717 266.381 717 266.248V253.534C717 253.401 717.053 253.274 717.146 253.18C717.24 253.087 717.367 253.034 717.5 253.034H723.5C723.633 253.034 723.76 253.087 723.854 253.18C723.947 253.274 724 253.401 724 253.534V266.248C724 266.525 723.777 266.748 723.5 266.748ZM718 265.748H723V254.034H718V265.748Z" fill="#60657C"/>
<path d="M735.5 253.534H741.5V266.248H735.5V253.534Z" fill="white"/>
<path d="M741.5 266.748H735.5C735.367 266.748 735.24 266.695 735.146 266.602C735.053 266.508 735 266.381 735 266.248V253.534C735 253.401 735.053 253.274 735.146 253.18C735.24 253.087 735.367 253.034 735.5 253.034H741.5C741.633 253.034 741.76 253.087 741.854 253.18C741.947 253.274 742 253.401 742 253.534V266.248C742 266.525 741.777 266.748 741.5 266.748ZM736 265.748H741V254.034H736V265.748Z" fill="#60657C"/>
<path d="M681.5 279.245H687.5V291.959H681.5V279.245Z" fill="white"/>
<path d="M687.5 292.459H681.5C681.367 292.459 681.24 292.406 681.146 292.313C681.053 292.219 681 292.092 681 291.959V279.245C681 279.112 681.053 278.985 681.146 278.891C681.24 278.798 681.367 278.745 681.5 278.745H687.5C687.633 278.745 687.76 278.798 687.854 278.891C687.947 278.985 688 279.112 688 279.245V291.959C688 292.092 687.947 292.219 687.854 292.313C687.76 292.406 687.633 292.459 687.5 292.459ZM682 291.459H687V279.745H682V291.459Z" fill="#60657C"/>
<path d="M699.5 279.245H705.5V291.959H699.5V279.245Z" fill="white"/>
<path d="M705.5 292.459H699.5C699.367 292.459 699.24 292.406 699.146 292.313C699.053 292.219 699 292.092 699 291.959V279.245C699 279.112 699.053 278.985 699.146 278.891C699.24 278.798 699.367 278.745 699.5 278.745H705.5C705.633 278.745 705.76 278.798 705.854 278.891C705.947 278.985 706 279.112 706 279.245V291.959C706 292.092 705.947 292.219 705.854 292.313C705.76 292.406 705.633 292.459 705.5 292.459ZM700 291.459H705V279.745H700V291.459Z" fill="#60657C"/>
<path d="M717.5 279.245H723.5V291.959H717.5V279.245Z" fill="white"/>
<path d="M723.5 292.459H717.5C717.367 292.459 717.24 292.406 717.146 292.313C717.053 292.219 717 292.092 717 291.959V279.245C717 279.112 717.053 278.985 717.146 278.891C717.24 278.798 717.367 278.745 717.5 278.745H723.5C723.633 278.745 723.76 278.798 723.854 278.891C723.947 278.985 724 279.112 724 279.245V291.959C724 292.092 723.947 292.219 723.854 292.313C723.76 292.406 723.633 292.459 723.5 292.459ZM718 291.459H723V279.745H718V291.459Z" fill="#60657C"/>
<path d="M735.5 279.245H741.5V291.959H735.5V279.245Z" fill="white"/>
<path d="M741.5 292.459H735.5C735.367 292.459 735.24 292.406 735.146 292.313C735.053 292.219 735 292.092 735 291.959V279.245C735 279.112 735.053 278.985 735.146 278.891C735.24 278.798 735.367 278.745 735.5 278.745H741.5C741.633 278.745 741.76 278.798 741.854 278.891C741.947 278.985 742 279.112 742 279.245V291.959C742 292.092 741.947 292.219 741.854 292.313C741.76 292.406 741.633 292.459 741.5 292.459ZM736 291.459H741V279.745H736V291.459Z" fill="#60657C"/>
<path d="M681.5 304.956H687.5V317.67H681.5V304.956Z" fill="white"/>
<path d="M687.5 318.171H681.5C681.367 318.171 681.24 318.118 681.146 318.025C681.053 317.931 681 317.804 681 317.671V304.957C681 304.824 681.053 304.697 681.146 304.603C681.24 304.51 681.367 304.457 681.5 304.457H687.5C687.633 304.457 687.76 304.51 687.854 304.603C687.947 304.697 688 304.824 688 304.957V317.671C688 317.804 687.947 317.931 687.854 318.025C687.76 318.118 687.633 318.171 687.5 318.171ZM682 317.171H687V305.457H682V317.171Z" fill="#60657C"/>
<path d="M699.5 304.956H705.5V317.67H699.5V304.956Z" fill="white"/>
<path d="M705.5 318.171H699.5C699.367 318.171 699.24 318.118 699.146 318.025C699.053 317.931 699 317.804 699 317.671V304.957C699 304.824 699.053 304.697 699.146 304.603C699.24 304.51 699.367 304.457 699.5 304.457H705.5C705.633 304.457 705.76 304.51 705.854 304.603C705.947 304.697 706 304.824 706 304.957V317.671C706 317.804 705.947 317.931 705.854 318.025C705.76 318.118 705.633 318.171 705.5 318.171ZM700 317.171H705V305.457H700V317.171Z" fill="#60657C"/>
<path d="M717.5 304.956H723.5V317.67H717.5V304.956Z" fill="white"/>
<path d="M723.5 318.171H717.5C717.367 318.171 717.24 318.118 717.146 318.025C717.053 317.931 717 317.804 717 317.671V304.957C717 304.824 717.053 304.697 717.146 304.603C717.24 304.51 717.367 304.457 717.5 304.457H723.5C723.633 304.457 723.76 304.51 723.854 304.603C723.947 304.697 724 304.824 724 304.957V317.671C724 317.804 723.947 317.931 723.854 318.025C723.76 318.118 723.633 318.171 723.5 318.171ZM718 317.171H723V305.457H718V317.171Z" fill="#60657C"/>
<path d="M735.5 304.956H741.5V317.67H735.5V304.956Z" fill="white"/>
<path d="M741.5 318.171H735.5C735.367 318.171 735.24 318.118 735.146 318.025C735.053 317.931 735 317.804 735 317.671V304.957C735 304.824 735.053 304.697 735.146 304.603C735.24 304.51 735.367 304.457 735.5 304.457H741.5C741.633 304.457 741.76 304.51 741.854 304.603C741.947 304.697 742 304.824 742 304.957V317.671C742 317.804 741.947 317.931 741.854 318.025C741.76 318.118 741.633 318.171 741.5 318.171ZM736 317.171H741V305.457H736V317.171Z" fill="#60657C"/>
<path d="M681.5 330.667H687.5V343.381H681.5V330.667Z" fill="white"/>
<path d="M687.5 343.881H681.5C681.367 343.881 681.24 343.828 681.146 343.735C681.053 343.641 681 343.514 681 343.381V330.667C681 330.534 681.053 330.407 681.146 330.313C681.24 330.22 681.367 330.167 681.5 330.167H687.5C687.633 330.167 687.76 330.22 687.854 330.313C687.947 330.407 688 330.534 688 330.667V343.381C688 343.658 687.777 343.881 687.5 343.881ZM682 342.881H687V331.167H682V342.881Z" fill="#60657C"/>
<path d="M699.5 330.667H705.5V343.381H699.5V330.667Z" fill="white"/>
<path d="M705.5 343.881H699.5C699.367 343.881 699.24 343.828 699.146 343.735C699.053 343.641 699 343.514 699 343.381V330.667C699 330.534 699.053 330.407 699.146 330.313C699.24 330.22 699.367 330.167 699.5 330.167H705.5C705.633 330.167 705.76 330.22 705.854 330.313C705.947 330.407 706 330.534 706 330.667V343.381C706 343.658 705.777 343.881 705.5 343.881ZM700 342.881H705V331.167H700V342.881Z" fill="#60657C"/>
<path d="M717.5 330.667H723.5V343.381H717.5V330.667Z" fill="white"/>
<path d="M723.5 343.881H717.5C717.367 343.881 717.24 343.828 717.146 343.735C717.053 343.641 717 343.514 717 343.381V330.667C717 330.534 717.053 330.407 717.146 330.313C717.24 330.22 717.367 330.167 717.5 330.167H723.5C723.633 330.167 723.76 330.22 723.854 330.313C723.947 330.407 724 330.534 724 330.667V343.381C724 343.658 723.777 343.881 723.5 343.881ZM718 342.881H723V331.167H718V342.881Z" fill="#60657C"/>
<path d="M735.5 330.667H741.5V343.381H735.5V330.667Z" fill="white"/>
<path d="M741.5 343.881H735.5C735.367 343.881 735.24 343.828 735.146 343.735C735.053 343.641 735 343.514 735 343.381V330.667C735 330.534 735.053 330.407 735.146 330.313C735.24 330.22 735.367 330.167 735.5 330.167H741.5C741.633 330.167 741.76 330.22 741.854 330.313C741.947 330.407 742 330.534 742 330.667V343.381C742 343.658 741.777 343.881 741.5 343.881ZM736 342.881H741V331.167H736V342.881Z" fill="#60657C"/>
</g>
<g clip-path="url(#clip2_880_1777)">
<path d="M140.5 265.5H219.5V465.5H140.5V265.5Z" fill="white"/>
<path d="M219.5 466H140.5C140.367 466 140.24 465.947 140.146 465.854C140.053 465.76 140 465.633 140 465.5V265.5C140 265.367 140.053 265.24 140.146 265.146C140.24 265.053 140.367 265 140.5 265H219.5C219.633 265 219.76 265.053 219.854 265.146C219.947 265.24 220 265.367 220 265.5V465.5C220 465.633 219.947 465.76 219.854 465.854C219.76 465.947 219.633 466 219.5 466ZM141 465H219V266H141V465Z" fill="#60657C"/>
</g>
<g clip-path="url(#clip3_880_1777)">
<path d="M512.705 78.1214H519.783V120.226H512.705V78.1214Z" fill="white"/>
<path d="M519.783 120.731H512.705C512.571 120.731 512.442 120.677 512.347 120.583C512.252 120.488 512.199 120.36 512.199 120.226V78.1214C512.199 77.9876 512.252 77.8592 512.347 77.7645C512.442 77.6699 512.571 77.6167 512.705 77.6167H519.783C519.917 77.6167 520.046 77.6699 520.141 77.7645C520.235 77.8592 520.289 77.9876 520.289 78.1214V120.226C520.289 120.36 520.235 120.488 520.141 120.583C520.046 120.677 519.917 120.731 519.783 120.731ZM513.21 119.721H519.277V78.6262H513.21V119.721Z" fill="#60657C"/>
<path d="M377.206 67.3715H384.284V92.455H377.206V67.3715Z" fill="white"/>
<path d="M384.285 92.9598H377.207C377.073 92.9598 376.944 92.9066 376.849 92.8119C376.754 92.7173 376.701 92.5889 376.701 92.455V67.3715C376.701 67.2376 376.754 67.1093 376.849 67.0146C376.944 66.9199 377.073 66.8668 377.207 66.8668H384.285C384.419 66.8668 384.548 66.9199 384.642 67.0146C384.737 67.1093 384.791 67.2376 384.791 67.3715V92.455C384.791 92.5889 384.737 92.7173 384.642 92.8119C384.548 92.9066 384.419 92.9598 384.285 92.9598ZM377.712 91.9503H383.779V67.8762H377.712V91.9503Z" fill="#60657C"/>
<path d="M151.973 52.1425H159.051V74.5388H151.973V52.1425Z" fill="white"/>
<path d="M159.051 75.0425H151.972C151.838 75.0425 151.71 74.9893 151.615 74.8947C151.52 74.8 151.467 74.6716 151.467 74.5378V52.1425C151.467 52.0086 151.52 51.8802 151.615 51.7856C151.71 51.6909 151.838 51.6378 151.972 51.6378H159.051C159.185 51.6378 159.313 51.6909 159.408 51.7856C159.503 51.8802 159.556 52.0086 159.556 52.1425V74.5388C159.556 74.6725 159.503 74.8006 159.408 74.895C159.313 74.9895 159.185 75.0425 159.051 75.0425ZM152.478 74.033H158.545V52.6472H152.478V74.033Z" fill="#60657C"/>
<path d="M670.593 97.78C670.485 97.78 670.377 97.776 670.268 97.7649L217.268 56.5711H142.949C142.011 56.5711 141.11 56.1988 140.447 55.5362C139.783 54.8736 139.41 53.975 139.41 53.0379C139.41 52.1008 139.783 51.2022 140.447 50.5396C141.11 49.877 142.011 49.5047 142.949 49.5047H217.43C217.537 49.5047 217.644 49.5098 217.75 49.5199L670.909 90.7288C671.815 90.8127 672.653 91.2414 673.25 91.9258C673.848 92.6103 674.158 93.4981 674.118 94.405C674.077 95.3119 673.688 96.1684 673.032 96.7968C672.375 97.4252 671.502 97.7773 670.593 97.78V97.78Z" fill="white"/>
<path d="M670.592 98.2847C670.469 98.2847 670.345 98.2797 670.219 98.2676L217.222 57.0738L142.949 57.0758C140.718 57.0758 138.904 55.2648 138.904 53.0379C138.904 50.811 140.718 49 142.949 49H217.429C217.552 49 217.675 49.0061 217.796 49.0172L670.955 90.2261C672.031 90.324 673.005 90.8348 673.697 91.6626C674.388 92.4903 674.715 93.5392 674.617 94.6133C674.53 95.6177 674.068 96.5528 673.322 97.2329C672.577 97.9131 671.602 98.2885 670.592 98.2847V98.2847ZM142.949 50.0095C141.277 50.0095 139.915 51.3682 139.915 53.0379C139.915 54.7076 141.277 56.0663 142.949 56.0663H217.269L670.314 97.2621C672.041 97.4237 673.458 96.182 673.61 94.5214C673.684 93.7159 673.439 92.9305 672.92 92.3086C672.401 91.6868 671.671 91.3042 670.864 91.2315L217.703 50.0226C217.612 50.0137 217.52 50.0093 217.428 50.0095H142.949Z" fill="#60657C"/>
<path d="M674.181 154.218C673.959 154.218 673.732 154.197 673.505 154.153L218.883 66.4256H145.413C144.948 66.4256 144.488 66.3342 144.059 66.1567C143.629 65.9791 143.239 65.7188 142.911 65.3908C142.582 65.0627 142.321 64.6732 142.143 64.2445C141.966 63.8158 141.874 63.3564 141.874 62.8924C141.874 62.4284 141.966 61.969 142.143 61.5403C142.321 61.1117 142.582 60.7222 142.911 60.3941C143.239 60.066 143.629 59.8058 144.059 59.6282C144.488 59.4506 144.948 59.3593 145.413 59.3593H219.223C219.448 59.3593 219.673 59.3805 219.894 59.4228L674.849 147.215C675.714 147.381 676.486 147.863 677.014 148.567C677.541 149.27 677.788 150.145 677.704 151.02C677.621 151.895 677.213 152.707 676.562 153.299C675.91 153.89 675.061 154.218 674.181 154.218V154.218Z" fill="white"/>
<path d="M674.181 154.723C673.922 154.723 673.662 154.698 673.409 154.649L218.787 66.9203L145.412 66.9293C143.181 66.9293 141.367 65.1183 141.367 62.8914C141.367 60.6645 143.181 58.8535 145.412 58.8535H219.222C219.478 58.8535 219.735 58.8777 219.988 58.9262L674.944 146.719C675.929 146.912 676.807 147.464 677.408 148.267C678.008 149.07 678.288 150.068 678.193 151.066C678.098 152.064 677.634 152.99 676.893 153.666C676.151 154.342 675.185 154.719 674.181 154.723ZM145.413 59.864C143.74 59.864 142.379 61.2228 142.379 62.8924C142.379 64.5621 143.74 65.9209 145.413 65.9209H218.884L673.602 153.659C674.392 153.81 675.209 153.642 675.876 153.192C676.542 152.743 677.002 152.048 677.157 151.26C677.308 150.472 677.14 149.655 676.69 148.99C676.24 148.325 675.543 147.865 674.754 147.712L219.798 59.9185C219.608 59.8822 219.416 59.8639 219.223 59.864H145.413Z" fill="#60657C"/>
<path d="M134.506 69.8891H174.886V153.202H134.506V69.8891Z" fill="white"/>
<path d="M174.886 153.707H134.506C134.371 153.707 134.243 153.654 134.148 153.559C134.053 153.465 134 153.336 134 153.202V69.8901C134 69.7563 134.053 69.6279 134.148 69.5332C134.243 69.4386 134.371 69.3854 134.506 69.3854H174.886C175.02 69.3854 175.149 69.4386 175.243 69.5332C175.338 69.6279 175.392 69.7563 175.392 69.8901V153.202C175.392 153.336 175.338 153.465 175.243 153.559C175.149 153.654 175.02 153.707 174.886 153.707ZM135.011 152.698H174.38V70.3949H135.011V152.698Z" fill="#60657C"/>
<path d="M154.695 146.701C160.147 146.701 164.566 142.289 164.566 136.847C164.566 131.404 160.147 126.992 154.695 126.992C149.244 126.992 144.824 131.404 144.824 136.847C144.824 142.289 149.244 146.701 154.695 146.701Z" fill="white"/>
<path d="M154.696 147.206C148.975 147.206 144.319 142.558 144.319 136.847C144.319 131.135 148.974 126.488 154.696 126.488C160.417 126.488 165.072 131.135 165.072 136.847C165.072 142.558 160.417 147.206 154.696 147.206ZM154.696 127.498C149.532 127.498 145.331 131.692 145.331 136.848C145.331 142.003 149.532 146.198 154.696 146.198C159.86 146.198 164.061 142.003 164.061 136.848C164.061 131.692 159.86 127.498 154.696 127.498Z" fill="#60657C"/>
<path d="M154.696 121.4C160.148 121.4 164.567 116.988 164.567 111.545C164.567 106.103 160.148 101.691 154.696 101.691C149.245 101.691 144.825 106.103 144.825 111.545C144.825 116.988 149.245 121.4 154.696 121.4Z" fill="#60657C"/>
<path d="M154.696 121.905C148.975 121.905 144.319 117.257 144.319 111.545C144.319 105.834 148.974 101.186 154.696 101.186C160.417 101.186 165.072 105.834 165.072 111.545C165.072 117.257 160.417 121.905 154.696 121.905ZM154.696 102.196C149.532 102.196 145.331 106.391 145.331 111.546C145.331 116.702 149.532 120.896 154.696 120.896C159.86 120.896 164.061 116.702 164.061 111.546C164.061 106.391 159.86 102.196 154.696 102.196Z" fill="#60657C"/>
<path d="M154.696 96.0992C160.148 96.0992 164.567 91.6872 164.567 86.2447C164.567 80.8022 160.148 76.3902 154.696 76.3902C149.245 76.3902 144.825 80.8022 144.825 86.2447C144.825 91.6872 149.245 96.0992 154.696 96.0992Z" fill="#60657C"/>
<path d="M154.696 96.603C148.975 96.603 144.319 91.9553 144.319 86.2437C144.319 80.5321 148.974 75.8844 154.696 75.8844C160.417 75.8844 165.072 80.5321 165.072 86.2437C165.072 91.9553 160.417 96.603 154.696 96.603ZM154.696 76.8949C149.532 76.8949 145.331 81.0893 145.331 86.2447C145.331 91.4001 149.532 95.5945 154.696 95.5945C159.86 95.5945 164.061 91.4001 164.061 86.2447C164.061 81.0893 159.86 76.8949 154.696 76.8949V76.8949Z" fill="#60657C"/>
<path d="M666.998 65.5797H682.253V444.52H666.998V65.5797Z" fill="white"/>
<path d="M682.253 445.024H666.999C666.865 445.024 666.736 444.971 666.641 444.877C666.546 444.782 666.493 444.654 666.493 444.52V65.5797C666.493 65.4458 666.546 65.3174 666.641 65.2228C666.736 65.1281 666.865 65.0749 666.999 65.0749H682.253C682.387 65.0749 682.516 65.1281 682.611 65.2228C682.706 65.3174 682.759 65.4458 682.759 65.5797V444.519C682.759 444.585 682.746 444.651 682.721 444.712C682.695 444.773 682.658 444.829 682.611 444.876C682.564 444.923 682.509 444.96 682.447 444.986C682.386 445.011 682.32 445.024 682.253 445.024V445.024ZM667.504 444.015H681.748V66.0844H667.504V444.015Z" fill="#60657C"/>
<path d="M687.213 435.3H661.191L654.909 500.495H693.495L687.213 435.3Z" fill="white"/>
<path d="M693.495 501H654.909C654.839 501 654.769 500.985 654.705 500.957C654.64 500.928 654.582 500.886 654.535 500.834C654.488 500.782 654.452 500.721 654.429 500.654C654.407 500.588 654.399 500.517 654.406 500.447L660.687 435.252C660.699 435.127 660.757 435.011 660.85 434.926C660.944 434.842 661.065 434.795 661.191 434.795H687.213C687.339 434.795 687.46 434.842 687.553 434.926C687.646 435.011 687.705 435.127 687.717 435.252L693.998 500.447C694.005 500.517 693.997 500.588 693.974 500.654C693.952 500.721 693.916 500.782 693.869 500.834C693.821 500.886 693.764 500.928 693.699 500.957C693.635 500.985 693.565 501 693.495 501V501ZM655.465 499.991H692.938L686.754 435.805H661.65L655.465 499.991Z" fill="#60657C"/>
<path d="M664.307 143.07H684.048V158.299H664.307V143.07Z" fill="white"/>
<path d="M684.048 158.804H664.306C664.172 158.804 664.044 158.751 663.949 158.656C663.854 158.562 663.801 158.433 663.801 158.299V143.07C663.801 142.936 663.854 142.808 663.949 142.713C664.044 142.619 664.172 142.566 664.306 142.566H684.048C684.182 142.566 684.31 142.619 684.405 142.713C684.5 142.808 684.553 142.936 684.553 143.07V158.299C684.553 158.433 684.5 158.562 684.405 158.656C684.31 158.751 684.182 158.804 684.048 158.804ZM664.812 157.795H683.542V143.575H664.812V157.795Z" fill="#60657C"/>
<path d="M664.307 88.1748H684.048V103.404H664.307V88.1748Z" fill="white"/>
<path d="M684.048 103.909H664.306C664.172 103.909 664.044 103.855 663.949 103.761C663.854 103.666 663.801 103.538 663.801 103.404V88.1748C663.801 88.0409 663.854 87.9126 663.949 87.8179C664.044 87.7233 664.172 87.6701 664.306 87.6701H684.048C684.182 87.6701 684.31 87.7233 684.405 87.8179C684.5 87.9126 684.553 88.0409 684.553 88.1748V103.404C684.553 103.538 684.5 103.666 684.405 103.761C684.31 103.855 684.182 103.909 684.048 103.909ZM664.812 102.899H683.542V88.6796H664.812V102.899Z" fill="#60657C"/>
</g>
<g clip-path="url(#clip4_880_1777)">
<path d="M50.5 184.5H142.5V484.5H50.5V184.5Z" fill="white"/>
<path d="M142.5 485H50.5C50.3674 485 50.2402 484.947 50.1464 484.854C50.0527 484.76 50 484.633 50 484.5V184.5C50 184.367 50.0527 184.24 50.1464 184.146C50.2402 184.053 50.3674 184 50.5 184H142.5C142.633 184 142.76 184.053 142.854 184.146C142.947 184.24 143 184.367 143 184.5V484.5C143 484.633 142.947 484.76 142.854 484.854C142.76 484.947 142.633 485 142.5 485ZM51 484H142V185H51V484Z" fill="#60657C"/>
<path d="M66.5 201.102H72.5V233.102H66.5V201.102Z" fill="white"/>
<path d="M72.5 233.602H66.5C66.3674 233.602 66.2402 233.549 66.1464 233.456C66.0527 233.362 66 233.235 66 233.102V201.102C66 200.969 66.0527 200.842 66.1464 200.748C66.2402 200.655 66.3674 200.602 66.5 200.602H72.5C72.6326 200.602 72.7598 200.655 72.8536 200.748C72.9473 200.842 73 200.969 73 201.102V233.102C73 233.379 72.777 233.602 72.5 233.602ZM67 232.602H72V201.602H67V232.602Z" fill="#60657C"/>
<path d="M84.5 201.102H90.5V233.102H84.5V201.102Z" fill="white"/>
<path d="M90.5 233.602H84.5C84.3674 233.602 84.2402 233.549 84.1464 233.456C84.0527 233.362 84 233.235 84 233.102V201.102C84 200.969 84.0527 200.842 84.1464 200.748C84.2402 200.655 84.3674 200.602 84.5 200.602H90.5C90.6326 200.602 90.7598 200.655 90.8536 200.748C90.9473 200.842 91 200.969 91 201.102V233.102C91 233.379 90.777 233.602 90.5 233.602ZM85 232.602H90V201.602H85V232.602Z" fill="#60657C"/>
<path d="M102.5 201.102H108.5V233.102H102.5V201.102Z" fill="white"/>
<path d="M108.5 233.602H102.5C102.367 233.602 102.24 233.549 102.146 233.456C102.053 233.362 102 233.235 102 233.102V201.102C102 200.969 102.053 200.842 102.146 200.748C102.24 200.655 102.367 200.602 102.5 200.602H108.5C108.633 200.602 108.76 200.655 108.854 200.748C108.947 200.842 109 200.969 109 201.102V233.102C109 233.379 108.777 233.602 108.5 233.602ZM103 232.602H108V201.602H103V232.602Z" fill="#60657C"/>
<path d="M120.5 201.102H126.5V233.102H120.5V201.102Z" fill="white"/>
<path d="M126.5 233.602H120.5C120.367 233.602 120.24 233.549 120.146 233.456C120.053 233.362 120 233.235 120 233.102V201.102C120 200.969 120.053 200.842 120.146 200.748C120.24 200.655 120.367 200.602 120.5 200.602H126.5C126.633 200.602 126.76 200.655 126.854 200.748C126.947 200.842 127 200.969 127 201.102V233.102C127 233.379 126.777 233.602 126.5 233.602ZM121 232.602H126V201.602H121V232.602Z" fill="#60657C"/>
<path d="M66.5 254.534H72.5V267.248H66.5V254.534Z" fill="white"/>
<path d="M72.5 267.748H66.5C66.3674 267.748 66.2402 267.695 66.1464 267.602C66.0527 267.508 66 267.381 66 267.248V254.534C66 254.401 66.0527 254.274 66.1464 254.18C66.2402 254.087 66.3674 254.034 66.5 254.034H72.5C72.6326 254.034 72.7598 254.087 72.8536 254.18C72.9473 254.274 73 254.401 73 254.534V267.248C73 267.525 72.777 267.748 72.5 267.748ZM67 266.748H72V255.034H67V266.748Z" fill="#60657C"/>
<path d="M84.5 254.534H90.5V267.248H84.5V254.534Z" fill="white"/>
<path d="M90.5 267.748H84.5C84.3674 267.748 84.2402 267.695 84.1464 267.602C84.0527 267.508 84 267.381 84 267.248V254.534C84 254.401 84.0527 254.274 84.1464 254.18C84.2402 254.087 84.3674 254.034 84.5 254.034H90.5C90.6326 254.034 90.7598 254.087 90.8536 254.18C90.9473 254.274 91 254.401 91 254.534V267.248C91 267.525 90.777 267.748 90.5 267.748ZM85 266.748H90V255.034H85V266.748Z" fill="#60657C"/>
<path d="M102.5 254.534H108.5V267.248H102.5V254.534Z" fill="white"/>
<path d="M108.5 267.748H102.5C102.367 267.748 102.24 267.695 102.146 267.602C102.053 267.508 102 267.381 102 267.248V254.534C102 254.401 102.053 254.274 102.146 254.18C102.24 254.087 102.367 254.034 102.5 254.034H108.5C108.633 254.034 108.76 254.087 108.854 254.18C108.947 254.274 109 254.401 109 254.534V267.248C109 267.525 108.777 267.748 108.5 267.748ZM103 266.748H108V255.034H103V266.748Z" fill="#60657C"/>
<path d="M120.5 254.534H126.5V267.248H120.5V254.534Z" fill="white"/>
<path d="M126.5 267.748H120.5C120.367 267.748 120.24 267.695 120.146 267.602C120.053 267.508 120 267.381 120 267.248V254.534C120 254.401 120.053 254.274 120.146 254.18C120.24 254.087 120.367 254.034 120.5 254.034H126.5C126.633 254.034 126.76 254.087 126.854 254.18C126.947 254.274 127 254.401 127 254.534V267.248C127 267.525 126.777 267.748 126.5 267.748ZM121 266.748H126V255.034H121V266.748Z" fill="#60657C"/>
<path d="M66.5 280.245H72.5V292.959H66.5V280.245Z" fill="white"/>
<path d="M72.5 293.459H66.5C66.3674 293.459 66.2402 293.406 66.1464 293.313C66.0527 293.219 66 293.092 66 292.959V280.245C66 280.112 66.0527 279.985 66.1464 279.891C66.2402 279.798 66.3674 279.745 66.5 279.745H72.5C72.6326 279.745 72.7598 279.798 72.8536 279.891C72.9473 279.985 73 280.112 73 280.245V292.959C73 293.092 72.9473 293.219 72.8536 293.313C72.7598 293.406 72.6326 293.459 72.5 293.459ZM67 292.459H72V280.745H67V292.459Z" fill="#60657C"/>
<path d="M84.5 280.245H90.5V292.959H84.5V280.245Z" fill="white"/>
<path d="M90.5 293.459H84.5C84.3674 293.459 84.2402 293.406 84.1464 293.313C84.0527 293.219 84 293.092 84 292.959V280.245C84 280.112 84.0527 279.985 84.1464 279.891C84.2402 279.798 84.3674 279.745 84.5 279.745H90.5C90.6326 279.745 90.7598 279.798 90.8536 279.891C90.9473 279.985 91 280.112 91 280.245V292.959C91 293.092 90.9473 293.219 90.8536 293.313C90.7598 293.406 90.6326 293.459 90.5 293.459ZM85 292.459H90V280.745H85V292.459Z" fill="#60657C"/>
<path d="M102.5 280.245H108.5V292.959H102.5V280.245Z" fill="white"/>
<path d="M108.5 293.459H102.5C102.367 293.459 102.24 293.406 102.146 293.313C102.053 293.219 102 293.092 102 292.959V280.245C102 280.112 102.053 279.985 102.146 279.891C102.24 279.798 102.367 279.745 102.5 279.745H108.5C108.633 279.745 108.76 279.798 108.854 279.891C108.947 279.985 109 280.112 109 280.245V292.959C109 293.092 108.947 293.219 108.854 293.313C108.76 293.406 108.633 293.459 108.5 293.459ZM103 292.459H108V280.745H103V292.459Z" fill="#60657C"/>
<path d="M120.5 280.245H126.5V292.959H120.5V280.245Z" fill="white"/>
<path d="M126.5 293.459H120.5C120.367 293.459 120.24 293.406 120.146 293.313C120.053 293.219 120 293.092 120 292.959V280.245C120 280.112 120.053 279.985 120.146 279.891C120.24 279.798 120.367 279.745 120.5 279.745H126.5C126.633 279.745 126.76 279.798 126.854 279.891C126.947 279.985 127 280.112 127 280.245V292.959C127 293.092 126.947 293.219 126.854 293.313C126.76 293.406 126.633 293.459 126.5 293.459ZM121 292.459H126V280.745H121V292.459Z" fill="#60657C"/>
<path d="M66.5 305.956H72.5V318.67H66.5V305.956Z" fill="white"/>
<path d="M72.5 319.171H66.5C66.3674 319.171 66.2402 319.118 66.1464 319.025C66.0527 318.931 66 318.804 66 318.671V305.957C66 305.824 66.0527 305.697 66.1464 305.603C66.2402 305.51 66.3674 305.457 66.5 305.457H72.5C72.6326 305.457 72.7598 305.51 72.8536 305.603C72.9473 305.697 73 305.824 73 305.957V318.671C73 318.804 72.9473 318.931 72.8536 319.025C72.7598 319.118 72.6326 319.171 72.5 319.171ZM67 318.171H72V306.457H67V318.171Z" fill="#60657C"/>
<path d="M84.5 305.956H90.5V318.67H84.5V305.956Z" fill="white"/>
<path d="M90.5 319.171H84.5C84.3674 319.171 84.2402 319.118 84.1464 319.025C84.0527 318.931 84 318.804 84 318.671V305.957C84 305.824 84.0527 305.697 84.1464 305.603C84.2402 305.51 84.3674 305.457 84.5 305.457H90.5C90.6326 305.457 90.7598 305.51 90.8536 305.603C90.9473 305.697 91 305.824 91 305.957V318.671C91 318.804 90.9473 318.931 90.8536 319.025C90.7598 319.118 90.6326 319.171 90.5 319.171ZM85 318.171H90V306.457H85V318.171Z" fill="#60657C"/>
<path d="M102.5 305.956H108.5V318.67H102.5V305.956Z" fill="white"/>
<path d="M108.5 319.171H102.5C102.367 319.171 102.24 319.118 102.146 319.025C102.053 318.931 102 318.804 102 318.671V305.957C102 305.824 102.053 305.697 102.146 305.603C102.24 305.51 102.367 305.457 102.5 305.457H108.5C108.633 305.457 108.76 305.51 108.854 305.603C108.947 305.697 109 305.824 109 305.957V318.671C109 318.804 108.947 318.931 108.854 319.025C108.76 319.118 108.633 319.171 108.5 319.171ZM103 318.171H108V306.457H103V318.171Z" fill="#60657C"/>
<path d="M120.5 305.956H126.5V318.67H120.5V305.956Z" fill="white"/>
<path d="M126.5 319.171H120.5C120.367 319.171 120.24 319.118 120.146 319.025C120.053 318.931 120 318.804 120 318.671V305.957C120 305.824 120.053 305.697 120.146 305.603C120.24 305.51 120.367 305.457 120.5 305.457H126.5C126.633 305.457 126.76 305.51 126.854 305.603C126.947 305.697 127 305.824 127 305.957V318.671C127 318.804 126.947 318.931 126.854 319.025C126.76 319.118 126.633 319.171 126.5 319.171ZM121 318.171H126V306.457H121V318.171Z" fill="#60657C"/>
<path d="M66.5 331.667H72.5V344.381H66.5V331.667Z" fill="white"/>
<path d="M72.5 344.881H66.5C66.3674 344.881 66.2402 344.828 66.1464 344.735C66.0527 344.641 66 344.514 66 344.381V331.667C66 331.534 66.0527 331.407 66.1464 331.313C66.2402 331.22 66.3674 331.167 66.5 331.167H72.5C72.6326 331.167 72.7598 331.22 72.8536 331.313C72.9473 331.407 73 331.534 73 331.667V344.381C73 344.658 72.777 344.881 72.5 344.881ZM67 343.881H72V332.167H67V343.881Z" fill="#60657C"/>
<path d="M84.5 331.667H90.5V344.381H84.5V331.667Z" fill="white"/>
<path d="M90.5 344.881H84.5C84.3674 344.881 84.2402 344.828 84.1464 344.735C84.0527 344.641 84 344.514 84 344.381V331.667C84 331.534 84.0527 331.407 84.1464 331.313C84.2402 331.22 84.3674 331.167 84.5 331.167H90.5C90.6326 331.167 90.7598 331.22 90.8536 331.313C90.9473 331.407 91 331.534 91 331.667V344.381C91 344.658 90.777 344.881 90.5 344.881ZM85 343.881H90V332.167H85V343.881Z" fill="#60657C"/>
<path d="M102.5 331.667H108.5V344.381H102.5V331.667Z" fill="white"/>
<path d="M108.5 344.881H102.5C102.367 344.881 102.24 344.828 102.146 344.735C102.053 344.641 102 344.514 102 344.381V331.667C102 331.534 102.053 331.407 102.146 331.313C102.24 331.22 102.367 331.167 102.5 331.167H108.5C108.633 331.167 108.76 331.22 108.854 331.313C108.947 331.407 109 331.534 109 331.667V344.381C109 344.658 108.777 344.881 108.5 344.881ZM103 343.881H108V332.167H103V343.881Z" fill="#60657C"/>
<path d="M120.5 331.667H126.5V344.381H120.5V331.667Z" fill="white"/>
<path d="M126.5 344.881H120.5C120.367 344.881 120.24 344.828 120.146 344.735C120.053 344.641 120 344.514 120 344.381V331.667C120 331.534 120.053 331.407 120.146 331.313C120.24 331.22 120.367 331.167 120.5 331.167H126.5C126.633 331.167 126.76 331.22 126.854 331.313C126.947 331.407 127 331.534 127 331.667V344.381C127 344.658 126.777 344.881 126.5 344.881ZM121 343.881H126V332.167H121V343.881Z" fill="#60657C"/>
</g>
<g clip-path="url(#clip5_880_1777)">
<path d="M465.5 200.5V206.5H480.5V500.5H572.5V200.5H465.5Z" fill="white"/>
<path d="M572.5 501H480.5C480.367 501 480.24 500.947 480.146 500.854C480.053 500.76 480 500.633 480 500.5V207H465.5C465.367 207 465.24 206.947 465.146 206.854C465.053 206.76 465 206.633 465 206.5V200.5C465 200.367 465.053 200.24 465.146 200.146C465.24 200.053 465.367 200 465.5 200H572.5C572.633 200 572.76 200.053 572.854 200.146C572.947 200.24 573 200.367 573 200.5V500.5C573 500.633 572.947 500.76 572.854 500.854C572.76 500.947 572.633 501 572.5 501ZM481 500H572V201H466V206H480.5C480.633 206 480.76 206.053 480.854 206.146C480.947 206.24 481 206.367 481 206.5V500Z" fill="#60657C"/>
<path d="M492.5 215.5H560.5V222.5H492.5V215.5Z" fill="white"/>
<path d="M560.5 223H492.5C492.367 223 492.24 222.947 492.146 222.854C492.053 222.76 492 222.633 492 222.5V215.5C492 215.367 492.053 215.24 492.146 215.146C492.24 215.053 492.367 215 492.5 215H560.5C560.633 215 560.76 215.053 560.854 215.146C560.947 215.24 561 215.367 561 215.5V222.5C561 222.633 560.947 222.76 560.854 222.854C560.76 222.947 560.633 223 560.5 223ZM493 222H560V216H493V222Z" fill="#60657C"/>
<path d="M492.5 240H560.5V247H492.5V240Z" fill="white"/>
<path d="M560.5 247.5H492.5C492.367 247.5 492.24 247.447 492.146 247.354C492.053 247.26 492 247.133 492 247V240C492 239.867 492.053 239.74 492.146 239.646C492.24 239.553 492.367 239.5 492.5 239.5H560.5C560.633 239.5 560.76 239.553 560.854 239.646C560.947 239.74 561 239.867 561 240V247C561 247.133 560.947 247.26 560.854 247.354C560.76 247.447 560.633 247.5 560.5 247.5ZM493 246.5H560V240.5H493V246.5Z" fill="#60657C"/>
<path d="M492.5 264.5H560.5V271.5H492.5V264.5Z" fill="white"/>
<path d="M560.5 272H492.5C492.367 272 492.24 271.947 492.146 271.854C492.053 271.76 492 271.633 492 271.5V264.5C492 264.367 492.053 264.24 492.146 264.146C492.24 264.053 492.367 264 492.5 264H560.5C560.633 264 560.76 264.053 560.854 264.146C560.947 264.24 561 264.367 561 264.5V271.5C561 271.633 560.947 271.76 560.854 271.854C560.76 271.947 560.633 272 560.5 272ZM493 271H560V265H493V271Z" fill="#60657C"/>
<path d="M492.5 289H560.5V296H492.5V289Z" fill="white"/>
<path d="M560.5 296.5H492.5C492.367 296.5 492.24 296.447 492.146 296.354C492.053 296.26 492 296.133 492 296V289C492 288.867 492.053 288.74 492.146 288.646C492.24 288.553 492.367 288.5 492.5 288.5H560.5C560.633 288.5 560.76 288.553 560.854 288.646C560.947 288.74 561 288.867 561 289V296C561 296.133 560.947 296.26 560.854 296.354C560.76 296.447 560.633 296.5 560.5 296.5ZM493 295.5H560V289.5H493V295.5Z" fill="#60657C"/>
<path d="M492.5 313.5H560.5V320.5H492.5V313.5Z" fill="white"/>
<path d="M560.5 321H492.5C492.367 321 492.24 320.947 492.146 320.854C492.053 320.76 492 320.633 492 320.5V313.5C492 313.367 492.053 313.24 492.146 313.146C492.24 313.053 492.367 313 492.5 313H560.5C560.633 313 560.76 313.053 560.854 313.146C560.947 313.24 561 313.367 561 313.5V320.5C561 320.633 560.947 320.76 560.854 320.854C560.76 320.947 560.633 321 560.5 321ZM493 320H560V314H493V320Z" fill="#60657C"/>
<path d="M492.5 338H560.5V345H492.5V338Z" fill="white"/>
<path d="M560.5 345.5H492.5C492.367 345.5 492.24 345.447 492.146 345.354C492.053 345.26 492 345.133 492 345V338C492 337.867 492.053 337.74 492.146 337.646C492.24 337.553 492.367 337.5 492.5 337.5H560.5C560.633 337.5 560.76 337.553 560.854 337.646C560.947 337.74 561 337.867 561 338V345C561 345.133 560.947 345.26 560.854 345.354C560.76 345.447 560.633 345.5 560.5 345.5ZM493 344.5H560V338.5H493V344.5Z" fill="#60657C"/>
<path d="M492.5 362.5H560.5V369.5H492.5V362.5Z" fill="white"/>
<path d="M560.5 370H492.5C492.367 370 492.24 369.947 492.146 369.854C492.053 369.76 492 369.633 492 369.5V362.5C492 362.367 492.053 362.24 492.146 362.146C492.24 362.053 492.367 362 492.5 362H560.5C560.633 362 560.76 362.053 560.854 362.146C560.947 362.24 561 362.367 561 362.5V369.5C561 369.633 560.947 369.76 560.854 369.854C560.76 369.947 560.633 370 560.5 370ZM493 369H560V363H493V369Z" fill="#60657C"/>
<path d="M492.5 387H560.5V394H492.5V387Z" fill="white"/>
<path d="M560.5 394.5H492.5C492.367 394.5 492.24 394.447 492.146 394.354C492.053 394.26 492 394.133 492 394V387C492 386.867 492.053 386.74 492.146 386.646C492.24 386.553 492.367 386.5 492.5 386.5H560.5C560.633 386.5 560.76 386.553 560.854 386.646C560.947 386.74 561 386.867 561 387V394C561 394.133 560.947 394.26 560.854 394.354C560.76 394.447 560.633 394.5 560.5 394.5ZM493 393.5H560V387.5H493V393.5Z" fill="#60657C"/>
<path d="M492.5 411.5H560.5V418.5H492.5V411.5Z" fill="white"/>
<path d="M560.5 419H492.5C492.367 419 492.24 418.947 492.146 418.854C492.053 418.76 492 418.633 492 418.5V411.5C492 411.367 492.053 411.24 492.146 411.146C492.24 411.053 492.367 411 492.5 411H560.5C560.633 411 560.76 411.053 560.854 411.146C560.947 411.24 561 411.367 561 411.5V418.5C561 418.633 560.947 418.76 560.854 418.854C560.76 418.947 560.633 419 560.5 419ZM493 418H560V412H493V418Z" fill="#60657C"/>
</g>
<g clip-path="url(#clip6_880_1777)">
<path d="M368.977 98.0085H325.023C323.689 98.0085 322.409 97.4785 321.465 96.535C320.522 95.5915 319.991 94.3118 319.991 92.9773V49.0236C319.991 47.689 320.521 46.409 321.465 45.4653C322.409 44.5216 323.689 43.9914 325.023 43.9914H368.977C370.312 43.9914 371.592 44.5216 372.535 45.4653C373.479 46.409 374.009 47.689 374.009 49.0236V92.9773C374.009 94.3117 373.478 95.5913 372.535 96.5347C371.591 97.4782 370.311 98.0083 368.977 98.0085V98.0085Z" fill="white"/>
<path d="M368.976 101.501H325.023C320.323 101.501 316.499 97.6763 316.499 92.9764V49.0226C316.499 44.3227 320.323 40.4989 325.023 40.4989H368.976C373.676 40.4989 377.501 44.3227 377.501 49.0226V92.9764C377.501 97.6773 373.677 101.501 368.976 101.501ZM325.023 47.4839C324.175 47.4839 323.484 48.1745 323.484 49.0226V92.9764C323.484 93.8255 324.175 94.5161 325.023 94.5161H368.976C369.826 94.5161 370.516 93.8255 370.516 92.9764V49.0226C370.516 48.1735 369.826 47.4839 368.976 47.4839H325.023Z" fill="white"/>
<path d="M368.977 102H325.024C320.048 102 316 97.9527 316 92.9764V49.0226C316 44.0483 320.048 40 325.024 40H368.977C373.953 40 378.001 44.0483 378.001 49.0226V92.9764C378 97.9527 373.953 102 368.977 102ZM325.024 40.9979C320.598 40.9979 316.998 44.5981 316.998 49.0226V92.9764C316.998 97.4019 320.598 101.002 325.023 101.002H368.976C373.402 101.002 377.002 97.4019 377.002 92.9764V49.0226C377.002 44.5981 373.403 40.9979 368.977 40.9979H325.024ZM368.977 95.015H325.024C324.483 95.0145 323.965 94.7995 323.583 94.4173C323.2 94.0351 322.986 93.5169 322.985 92.9764V49.0226C322.985 47.8991 323.899 46.985 325.024 46.985H368.977C370.101 46.985 371.016 47.8991 371.016 49.0226V92.9764C371.015 93.5168 370.8 94.0349 370.418 94.417C370.036 94.7992 369.518 95.0142 368.977 95.015V95.015ZM325.024 47.9829C324.45 47.9829 323.983 48.4499 323.983 49.0226V92.9764C323.983 93.5501 324.45 94.0171 325.023 94.0171H368.976C369.55 94.0171 370.017 93.5501 370.017 92.9764V49.0226C370.017 48.4499 369.551 47.9829 368.977 47.9829H325.024Z" fill="#60657C"/>
<path d="M337.537 85.7788H330.552V75.1217C330.552 66.0431 337.938 58.657 347.016 58.657H356.495V65.642H347.016C341.79 65.642 337.537 69.8949 337.537 75.1217V85.7788Z" fill="#60657C"/>
<path d="M353.278 70.5465V52.9842L362.059 61.7653L353.278 70.5465Z" fill="#60657C"/>
</g>
<g clip-path="url(#clip7_880_1777)">
<path d="M295.403 348.595C295.403 327.157 309.36 307.294 333.116 291H249.814C248.048 291 246.349 291.681 245.073 292.901L203.323 332.818L147.521 382.124L142.175 385.398L128.124 393.991C123.775 396.65 120.123 400.307 117.473 404.658L113.213 411.654C112.178 413.347 110.735 414.755 109.016 415.748L101.524 420.075C100.51 420.661 99.654 421.485 99.0315 422.477C98.409 423.468 98.0386 424.596 97.9525 425.763L95.2908 461.792C95.0818 464.626 97.3277 467.039 100.173 467.039H123.073V450.871C123.073 437.709 133.761 427.039 146.945 427.039H166.283C179.462 427.039 190.145 437.705 190.145 450.862V467.039H453.047V450.871C453.047 449.174 453.228 447.521 453.565 445.925C362.782 435.223 295.403 395.711 295.403 348.595V348.595Z" fill="#CDD8C4"/>
<path d="M94 452.961H106.696V463.523H94V452.961Z" fill="#97BC62"/>
<path d="M253.406 333.373V375.193C253.406 395.46 250.213 415.601 243.944 434.878L243.37 436.642C238.84 450.571 225.84 460.002 211.171 460.002H196.979V452.368C196.979 435.909 183.614 422.567 167.128 422.567H165.239V372.687L213.296 330.726C214.148 329.982 215.231 329.556 216.361 329.52L248.353 328.489C249.008 328.467 249.662 328.578 250.274 328.814C250.886 329.05 251.445 329.406 251.916 329.862C252.387 330.318 252.762 330.863 253.018 331.467C253.274 332.07 253.406 332.718 253.406 333.373V333.373Z" fill="white"/>
<path d="M589.055 365.951L583.25 296.378C583.128 294.912 582.458 293.545 581.374 292.549C580.289 291.553 578.869 291 577.395 291H333.115C330.816 292.576 328.566 294.221 326.368 295.934H369.786V425.438C393.725 435.114 422.251 442.234 453.563 445.925C455.844 435.138 465.432 427.041 476.916 427.041H496.244C501.032 427.041 505.488 428.448 509.218 430.872L512.263 427.607H589.145V368.154C589.146 367.419 589.116 366.684 589.055 365.951V365.951Z" fill="#97BC62"/>
<path d="M295.403 348.595C295.403 329.275 306.742 311.236 326.369 295.934H259.754V460.707H369.786V425.438C324.319 407.061 295.403 379.46 295.403 348.595V348.595Z" fill="white"/>
<path d="M326.369 295.934C306.741 311.236 295.402 329.275 295.402 348.595C295.402 379.46 324.32 407.061 369.787 425.438V295.934H326.369Z" fill="#97BC62"/>
<path d="M142.175 385.399L139.767 395.887L121.672 411.655H113.212L117.473 404.659C120.123 400.308 123.774 396.651 128.124 393.991L142.175 385.399Z" fill="#2C5F2D"/>
<path d="M246.353 342.429L239.784 370.845C237.055 382.651 226.525 391.014 214.389 391.014H167.342V375.531L210.234 337.244C211.282 336.308 212.632 335.779 214.038 335.752L240.517 335.246C244.34 335.174 247.213 338.709 246.353 342.429V342.429Z" fill="#97BC62"/>
<path d="M160.634 392.449H173.66V366.07L157.018 384.266C154.149 387.402 156.379 392.449 160.634 392.449V392.449Z" fill="#97BC62"/>
<path d="M265.357 390.233C264.494 392.646 263.961 395.895 263.961 399.48C263.961 402.696 264.388 405.645 265.099 407.961H272.997C273.708 405.645 274.135 402.696 274.135 399.48C274.135 395.895 273.602 392.646 272.739 390.233H265.357Z" fill="#97BC62"/>
<path d="M267.656 392.149H270.44V406.044H267.656V392.149Z" fill="#013B84"/>
<path d="M235.411 390.233C234.547 392.646 234.015 395.895 234.015 399.48C234.015 402.696 234.442 405.645 235.153 407.961H243.051C243.761 405.645 244.189 402.696 244.189 399.48C244.189 395.895 243.656 392.646 242.793 390.233H235.411Z" fill="#97BC62"/>
<path d="M237.709 392.149H240.493V406.044H237.709V392.149Z" fill="#013B84"/>
<path d="M94.6768 436.327H99.3275V445.369H94.6768V436.327Z" fill="#97BC62"/>
<path d="M156.607 494.001C173.101 494.001 186.471 480.652 186.471 464.186C186.471 447.72 173.101 434.372 156.607 434.372C140.114 434.372 126.743 447.72 126.743 464.186C126.743 480.652 140.114 494.001 156.607 494.001Z" fill="#2C5F2D"/>
<path d="M156.608 481.781C166.342 481.781 174.232 473.904 174.232 464.186C174.232 454.469 166.342 446.591 156.608 446.591C146.874 446.591 138.983 454.469 138.983 464.186C138.983 473.904 146.874 481.781 156.608 481.781Z" fill="#97BC62"/>
<path d="M156.608 474.939C162.556 474.939 167.378 470.125 167.378 464.186C167.378 458.248 162.556 453.434 156.608 453.434C150.659 453.434 145.837 458.248 145.837 464.186C145.837 470.125 150.659 474.939 156.608 474.939Z" fill="white"/>
<path d="M160.891 461.254C161.905 461.254 162.727 460.433 162.727 459.421C162.727 458.409 161.905 457.588 160.891 457.588C159.878 457.588 159.056 458.409 159.056 459.421C159.056 460.433 159.878 461.254 160.891 461.254Z" fill="#97BC62"/>
<path d="M156.229 452.386C157.488 452.386 158.509 451.366 158.509 450.109C158.509 448.852 157.488 447.833 156.229 447.833C154.969 447.833 153.948 448.852 153.948 450.109C153.948 451.366 154.969 452.386 156.229 452.386Z" fill="white"/>
<path d="M163.667 454.27C164.926 454.27 165.947 453.251 165.947 451.994C165.947 450.737 164.926 449.717 163.667 449.717C162.408 449.717 161.387 450.737 161.387 451.994C161.387 453.251 162.408 454.27 163.667 454.27Z" fill="white"/>
<path d="M169.33 460.146C170.589 460.146 171.61 459.126 171.61 457.869C171.61 456.612 170.589 455.593 169.33 455.593C168.071 455.593 167.05 456.612 167.05 457.869C167.05 459.126 168.071 460.146 169.33 460.146Z" fill="white"/>
<path d="M170.663 467.794C171.923 467.794 172.943 466.775 172.943 465.518C172.943 464.26 171.923 463.241 170.663 463.241C169.404 463.241 168.383 464.26 168.383 465.518C168.383 466.775 169.404 467.794 170.663 467.794Z" fill="white"/>
<path d="M162.112 469.235C163.126 469.235 163.948 468.414 163.948 467.402C163.948 466.39 163.126 465.569 162.112 465.569C161.098 465.569 160.276 466.39 160.276 467.402C160.276 468.414 161.098 469.235 162.112 469.235Z" fill="#97BC62"/>
<path d="M154.673 472.228C155.687 472.228 156.508 471.407 156.508 470.395C156.508 469.383 155.687 468.562 154.673 468.562C153.659 468.562 152.837 469.383 152.837 470.395C152.837 471.407 153.659 472.228 154.673 472.228Z" fill="#97BC62"/>
<path d="M150.121 466.685C151.135 466.685 151.957 465.864 151.957 464.852C151.957 463.84 151.135 463.02 150.121 463.02C149.107 463.02 148.285 463.84 148.285 464.852C148.285 465.864 149.107 466.685 150.121 466.685Z" fill="#97BC62"/>
<path d="M153.341 460.256C154.355 460.256 155.176 459.435 155.176 458.423C155.176 457.411 154.355 456.59 153.341 456.59C152.327 456.59 151.505 457.411 151.505 458.423C151.505 459.435 152.327 460.256 153.341 460.256Z" fill="#97BC62"/>
<path d="M153.152 480.442C154.412 480.442 155.433 479.423 155.433 478.165C155.433 476.908 154.412 475.889 153.152 475.889C151.893 475.889 150.872 476.908 150.872 478.165C150.872 479.423 151.893 480.442 153.152 480.442Z" fill="white"/>
<path d="M161.24 480.266C162.5 480.266 163.521 479.247 163.521 477.99C163.521 476.733 162.5 475.713 161.24 475.713C159.981 475.713 158.96 476.733 158.96 477.99C158.96 479.247 159.981 480.266 161.24 480.266Z" fill="white"/>
<path d="M167.904 475.553C169.164 475.553 170.185 474.534 170.185 473.276C170.185 472.019 169.164 471 167.904 471C166.645 471 165.624 472.019 165.624 473.276C165.624 474.534 166.645 475.553 167.904 475.553Z" fill="white"/>
<path d="M148.773 454.161C150.033 454.161 151.054 453.142 151.054 451.884C151.054 450.627 150.033 449.608 148.773 449.608C147.514 449.608 146.493 450.627 146.493 451.884C146.493 453.142 147.514 454.161 148.773 454.161Z" fill="white"/>
<path d="M143.814 460.141C145.073 460.141 146.094 459.122 146.094 457.864C146.094 456.607 145.073 455.588 143.814 455.588C142.554 455.588 141.533 456.607 141.533 457.864C141.533 459.122 142.554 460.141 143.814 460.141Z" fill="white"/>
<path d="M145.792 475.637C147.051 475.637 148.072 474.618 148.072 473.361C148.072 472.104 147.051 471.084 145.792 471.084C144.533 471.084 143.512 472.104 143.512 473.361C143.512 474.618 144.533 475.637 145.792 475.637Z" fill="white"/>
<path d="M142.35 468.243C143.609 468.243 144.63 467.224 144.63 465.966C144.63 464.709 143.609 463.69 142.35 463.69C141.09 463.69 140.069 464.709 140.069 465.966C140.069 467.224 141.09 468.243 142.35 468.243Z" fill="white"/>
<path d="M486.312 494.001C502.806 494.001 516.177 480.652 516.177 464.186C516.177 447.72 502.806 434.372 486.312 434.372C469.819 434.372 456.448 447.72 456.448 464.186C456.448 480.652 469.819 494.001 486.312 494.001Z" fill="#2C5F2D"/>
<path d="M486.313 481.781C496.047 481.781 503.937 473.904 503.937 464.186C503.937 454.469 496.047 446.591 486.313 446.591C476.579 446.591 468.688 454.469 468.688 464.186C468.688 473.904 476.579 481.781 486.313 481.781Z" fill="#97BC62"/>
<path d="M486.313 474.939C492.261 474.939 497.083 470.125 497.083 464.186C497.083 458.248 492.261 453.434 486.313 453.434C480.364 453.434 475.542 458.248 475.542 464.186C475.542 470.125 480.364 474.939 486.313 474.939Z" fill="white"/>
<path d="M490.597 461.254C491.61 461.254 492.432 460.433 492.432 459.421C492.432 458.409 491.61 457.588 490.597 457.588C489.583 457.588 488.761 458.409 488.761 459.421C488.761 460.433 489.583 461.254 490.597 461.254Z" fill="#97BC62"/>
<path d="M485.934 452.386C487.193 452.386 488.214 451.366 488.214 450.109C488.214 448.852 487.193 447.833 485.934 447.833C484.674 447.833 483.653 448.852 483.653 450.109C483.653 451.366 484.674 452.386 485.934 452.386Z" fill="white"/>
<path d="M493.372 454.27C494.631 454.27 495.652 453.251 495.652 451.994C495.652 450.737 494.631 449.717 493.372 449.717C492.113 449.717 491.092 450.737 491.092 451.994C491.092 453.251 492.113 454.27 493.372 454.27Z" fill="white"/>
<path d="M499.035 460.146C500.295 460.146 501.315 459.126 501.315 457.869C501.315 456.612 500.295 455.593 499.035 455.593C497.776 455.593 496.755 456.612 496.755 457.869C496.755 459.126 497.776 460.146 499.035 460.146Z" fill="white"/>
<path d="M500.368 467.794C501.628 467.794 502.649 466.775 502.649 465.518C502.649 464.26 501.628 463.241 500.368 463.241C499.109 463.241 498.088 464.26 498.088 465.518C498.088 466.775 499.109 467.794 500.368 467.794Z" fill="white"/>
<path d="M491.817 469.235C492.831 469.235 493.653 468.414 493.653 467.402C493.653 466.39 492.831 465.569 491.817 465.569C490.803 465.569 489.981 466.39 489.981 467.402C489.981 468.414 490.803 469.235 491.817 469.235Z" fill="#97BC62"/>
<path d="M484.378 472.228C485.392 472.228 486.214 471.407 486.214 470.395C486.214 469.383 485.392 468.562 484.378 468.562C483.364 468.562 482.542 469.383 482.542 470.395C482.542 471.407 483.364 472.228 484.378 472.228Z" fill="#97BC62"/>
<path d="M479.826 466.685C480.84 466.685 481.662 465.864 481.662 464.852C481.662 463.84 480.84 463.02 479.826 463.02C478.812 463.02 477.99 463.84 477.99 464.852C477.99 465.864 478.812 466.685 479.826 466.685Z" fill="#97BC62"/>
<path d="M483.045 460.256C484.059 460.256 484.881 459.435 484.881 458.423C484.881 457.411 484.059 456.59 483.045 456.59C482.031 456.59 481.209 457.411 481.209 458.423C481.209 459.435 482.031 460.256 483.045 460.256Z" fill="#97BC62"/>
<path d="M482.857 480.442C484.117 480.442 485.138 479.423 485.138 478.165C485.138 476.908 484.117 475.889 482.857 475.889C481.598 475.889 480.577 476.908 480.577 478.165C480.577 479.423 481.598 480.442 482.857 480.442Z" fill="white"/>
<path d="M490.945 480.266C492.205 480.266 493.226 479.247 493.226 477.99C493.226 476.733 492.205 475.713 490.945 475.713C489.686 475.713 488.665 476.733 488.665 477.99C488.665 479.247 489.686 480.266 490.945 480.266Z" fill="white"/>
<path d="M497.609 475.553C498.869 475.553 499.89 474.534 499.89 473.276C499.89 472.019 498.869 471 497.609 471C496.35 471 495.329 472.019 495.329 473.276C495.329 474.534 496.35 475.553 497.609 475.553Z" fill="white"/>
<path d="M478.478 454.161C479.737 454.161 480.758 453.142 480.758 451.884C480.758 450.627 479.737 449.608 478.478 449.608C477.218 449.608 476.197 450.627 476.197 451.884C476.197 453.142 477.218 454.161 478.478 454.161Z" fill="white"/>
<path d="M473.519 460.141C474.778 460.141 475.799 459.122 475.799 457.864C475.799 456.607 474.778 455.588 473.519 455.588C472.259 455.588 471.238 456.607 471.238 457.864C471.238 459.122 472.259 460.141 473.519 460.141Z" fill="white"/>
<path d="M475.497 475.637C476.756 475.637 477.777 474.618 477.777 473.361C477.777 472.104 476.756 471.084 475.497 471.084C474.238 471.084 473.217 472.104 473.217 473.361C473.217 474.618 474.238 475.637 475.497 475.637Z" fill="white"/>
<path d="M472.056 468.243C473.315 468.243 474.336 467.224 474.336 465.966C474.336 464.709 473.315 463.69 472.056 463.69C470.796 463.69 469.775 464.709 469.775 465.966C469.775 467.224 470.796 468.243 472.056 468.243Z" fill="white"/>
<path d="M375.366 378.735H492.864V383.297H375.366V378.735Z" fill="white"/>
<path d="M191.286 437.386H383.199V441.948H191.286V437.386ZM171.806 392.449H168.78C168.008 392.449 167.244 392.297 166.532 392.002C165.819 391.708 165.171 391.276 164.626 390.731C164.08 390.186 163.647 389.54 163.352 388.828C163.057 388.117 162.905 387.354 162.905 386.584V366.8C162.905 366.03 163.057 365.267 163.352 364.555C163.647 363.844 164.08 363.197 164.626 362.653C165.171 362.108 165.819 361.676 166.532 361.381C167.244 361.087 168.008 360.935 168.78 360.935H171.806C172.577 360.935 173.341 361.087 174.054 361.381C174.767 361.676 175.414 362.108 175.96 362.653C176.505 363.197 176.938 363.844 177.233 364.555C177.529 365.267 177.68 366.03 177.68 366.8V386.584C177.68 389.823 175.05 392.449 171.806 392.449Z" fill="#2C5F2D"/>
<path d="M370.093 422.612H369.48V295.938H329.966V295.326H370.093V422.612Z" fill="white"/>
<path d="M581.766 387.781L591.262 377.185V428.589H579.271V394.299C579.271 391.894 580.16 389.573 581.766 387.781V387.781Z" fill="#2888FF"/>
<path d="M520.116 450.868V467.044H590.125C590.896 467.044 591.66 466.893 592.373 466.598C593.086 466.303 593.734 465.871 594.279 465.327C594.825 464.782 595.257 464.136 595.553 463.424C595.848 462.712 596 461.95 596 461.18V433.477C596 432.707 595.848 431.944 595.553 431.233C595.257 430.521 594.825 429.875 594.279 429.33C593.734 428.785 593.086 428.353 592.373 428.059C591.66 427.764 590.896 427.612 590.125 427.612H512.264L509.223 430.873C515.777 435.12 520.116 442.486 520.116 450.868Z" fill="#D4E7FF"/>
<path d="M344.168 330.021H354.584C357.16 330.021 359.393 330.456 361.282 331.325C363.172 332.195 364.613 333.426 365.607 335.017C366.601 336.611 367.098 338.485 367.098 340.64C367.098 343.653 366.429 346.299 365.092 348.577C363.754 350.855 361.872 352.619 359.442 353.868C357.013 355.117 354.216 355.742 351.05 355.742H339.015L344.168 330.021ZM351.198 351.7C353.455 351.7 355.418 351.236 357.087 350.304C358.756 349.373 360.037 348.094 360.933 346.464C361.828 344.835 362.276 342.992 362.276 340.934C362.276 338.779 361.577 337.094 360.178 335.882C358.78 334.669 356.743 334.063 354.069 334.063H348.143L344.61 351.7H351.198ZM382.188 334.026L380.863 340.714H393.341L392.568 344.645H380.053L378.655 351.737H393.23L392.42 355.742H373.097L378.25 330.021H397.057L396.247 334.026H382.188ZM406.591 330.021H411.376L407.033 351.7H420.504L419.694 355.742H401.438L406.591 330.021ZM432.318 330.021H437.103L431.95 355.742H427.165L432.318 330.021ZM471.075 330.021L454.696 355.742H449.985L443.912 330.021H448.844L453.445 349.789L466.106 330.021H471.075ZM481.453 334.026L480.128 340.714H492.606L491.833 344.645H479.318L477.92 351.737H492.495L491.685 355.742H472.362L477.515 330.021H496.322L495.512 334.026H481.453ZM523.67 344.039C522.345 345.742 520.492 346.924 518.112 347.585L522.712 355.742H517.633L513.4 348.209H506.996L505.523 355.742H500.701L505.854 330.021H515.866C518.982 330.021 521.393 330.701 523.098 332.06C524.803 333.42 525.656 335.325 525.656 337.774C525.658 340.249 524.995 342.337 523.67 344.039V344.039ZM518.922 342.717C520.198 341.676 520.836 340.176 520.836 338.215C520.836 336.843 520.363 335.808 519.419 335.111C518.474 334.411 517.119 334.063 515.352 334.063H509.868L507.807 344.277H513.513C515.843 344.277 517.646 343.758 518.922 342.717V342.717ZM543.729 346.96L541.963 355.742H537.215L539.018 346.63L532.282 330.021H537.031L542.11 342.588L552.268 330.021H557.274L543.729 346.96Z" fill="white"/>
<path d="M328.591 334.062H348.305V351.531H328.591V334.062ZM373.301 334.062H397.911V340.958H373.301V334.062ZM471.868 334.062H511.33V340.958H471.868V334.062ZM453.428 342.37H466.779V349.267H453.428V342.37ZM542.04 335.528H555.391V342.424H542.04V335.528Z" fill="#2C5F2D"/>
<path d="M563.362 438.037H595.348V442.599H563.362V438.037Z" fill="#BEDBFF"/>
</g>
<g clip-path="url(#clip8_880_1777)">
<path d="M595.892 486.095L595.843 461.593L571.063 462.513L575.336 486.824L595.892 486.095Z" fill="white"/>
<path d="M551.079 498.136L547.192 495.607C546.548 495.188 546.048 494.582 545.757 493.87C545.466 493.159 545.399 492.375 545.564 491.624C545.73 490.874 546.12 490.191 546.684 489.668C547.247 489.145 547.956 488.807 548.716 488.698L556.924 487.524C559.487 487.157 561.942 486.243 564.121 484.844C566.3 483.445 568.153 481.592 569.554 479.413L572.947 474.134L576.197 476.12C576.575 476.352 576.855 476.714 576.983 477.139C577.111 477.564 577.079 478.021 576.893 478.424L575.785 480.808L580.357 482.709C581.874 483.34 583.539 483.531 585.16 483.261C586.781 482.991 588.293 482.271 589.524 481.181L593.403 477.751C593.556 477.616 593.744 477.527 593.945 477.494C594.146 477.461 594.352 477.485 594.54 477.564C594.727 477.643 594.889 477.774 595.006 477.94C595.123 478.107 595.191 478.304 595.202 478.507L596.003 493.941L595.074 497.574L551.079 498.136Z" fill="#2C5F2D"/>
<path d="M597.19 494.957L596.472 496.485C595.838 497.831 594.835 498.969 593.579 499.766C592.324 500.563 590.868 500.986 589.381 500.986H557.111C556.491 500.986 555.881 500.827 555.341 500.522L548.197 496.497H574.766C575.236 496.497 575.688 496.313 576.026 495.985C577.72 494.335 579.99 493.412 582.353 493.412H596.211C596.393 493.411 596.573 493.458 596.733 493.545C596.893 493.633 597.028 493.76 597.126 493.915C597.223 494.069 597.281 494.245 597.292 494.428C597.303 494.61 597.268 494.792 597.19 494.957Z" fill="black"/>
<path d="M537.119 287.44L571.128 277.803C574.231 280.409 578.548 313.741 578.528 317.795L585.69 378.999L594.025 408.365C594.904 411.463 595.261 414.686 595.079 417.902L592.339 466.397L572.588 471.039L558.603 400.465L554.03 394.013C553.016 392.581 552.34 390.938 552.054 389.207L547.24 360.067L539.061 300.379L537.119 287.44Z" fill="#97BC62"/>
<path d="M563.799 315.164H614.594C620.893 315.164 626 310.053 626 303.749V232.636C626 226.332 620.893 221.221 614.594 221.221H563.799C557.501 221.221 552.394 226.332 552.394 232.636V303.749C552.394 310.053 557.499 315.164 563.799 315.164V315.164Z" fill="#97BC62"/>
<path d="M596.674 299.557L598.131 301.736C600.221 304.863 601.671 308.373 602.399 312.064C603.127 315.755 603.118 319.553 602.372 323.24L601.439 327.854L601.148 401.142C601.148 401.142 576.998 399.763 576.925 399.307L562.217 306.096L596.674 299.557Z" fill="#97BC62"/>
<path d="M540.835 322.432L603.129 322.333V246.681H540.835V322.432Z" fill="#2C5F2D"/>
<path d="M598.124 228.554L545.261 235.398C542.703 235.729 540.306 236.833 538.39 238.561L503.077 270.43H546.201L612.21 265.985L612.442 241.268C612.513 233.56 605.763 227.566 598.124 228.554Z" fill="#2C5F2D"/>
<path d="M564.764 271.544V216.189H582.889V233.623L566.81 271.957C566.36 273.029 564.764 272.708 564.764 271.544Z" fill="#99644C"/>
<path d="M558.464 496.544V496.547C558.439 496.547 558.442 496.544 558.464 496.544Z" fill="#29ABE2"/>
<path opacity="0.07" d="M553.197 327.71H563.117V369.793L550.194 331.911C550.031 331.433 549.984 330.923 550.058 330.423C550.131 329.924 550.323 329.449 550.616 329.038C550.91 328.627 551.297 328.292 551.746 328.062C552.195 327.831 552.692 327.71 553.197 327.71V327.71Z" fill="black"/>
<path d="M568.206 190.515H572.981C575.487 190.515 577.89 191.511 579.662 193.284C581.433 195.058 582.429 197.463 582.429 199.97V229.255L568.473 226.167L563.101 226.131C561.426 226.12 559.823 225.446 558.642 224.256C557.462 223.066 556.799 221.458 556.799 219.781V206.673C556.798 197.75 559.289 190.515 568.206 190.515V190.515Z" fill="#99644C"/>
<path d="M572.899 218.038H580.659C582.342 218.038 583.955 217.369 585.145 216.179C586.335 214.988 587.004 213.372 587.004 211.688V203.37H572.899V218.038Z" fill="black"/>
<path d="M579.069 218.876H577.028C576.663 218.876 576.301 218.804 575.963 218.664C575.626 218.524 575.319 218.319 575.06 218.061C574.802 217.802 574.597 217.495 574.457 217.157C574.317 216.819 574.245 216.457 574.245 216.091V210.707C574.245 209.968 574.539 209.26 575.06 208.737C575.582 208.215 576.29 207.922 577.028 207.922H579.069C579.807 207.922 580.515 208.215 581.036 208.737C581.558 209.26 581.852 209.968 581.852 210.707V216.091C581.852 216.83 581.558 217.538 581.036 218.061C580.515 218.583 579.807 218.876 579.069 218.876V218.876Z" fill="#99644C"/>
<path d="M558.362 193.336C558.362 193.336 553.799 202.284 553.799 203.945V213.642L553.803 217.212C553.804 217.606 553.882 217.995 554.033 218.359C554.184 218.722 554.406 219.052 554.684 219.33C554.963 219.608 555.294 219.828 555.657 219.977C556.021 220.127 556.411 220.204 556.804 220.203V207.616C556.804 206.567 557.038 205.56 557.455 204.803L558.362 203.162V193.336Z" fill="black"/>
<path d="M607.385 285.227L610.268 283.443L595.876 260.163C593.558 256.417 592.331 252.098 592.332 247.692V243.884C592.339 238.521 594.156 233.318 597.489 229.119L600.97 224.743L598.318 222.629L594.837 227.005C591.028 231.806 588.951 237.754 588.943 243.884V247.692C588.943 252.732 590.344 257.661 592.993 261.947L607.385 285.227ZM546.431 260.629H549.821V249.597C549.821 244.255 551.652 239.013 554.977 234.832L558.458 230.456L555.807 228.343L552.325 232.719C548.517 237.52 546.439 243.467 546.431 249.597V260.629Z" fill="#97BC62"/>
<path d="M612.361 261.918L611.429 301.711C611.409 302.592 611.022 303.425 610.364 304.011L599.683 313.504L589.107 308.473L594.762 246.131L612.361 261.918Z" fill="#2C5F2D"/>
<path d="M564.779 305.366L591.627 294.462C592.979 293.913 594.468 293.794 595.89 294.122C597.312 294.451 598.599 295.21 599.574 296.296L601.818 298.795C602.441 299.489 602.922 300.299 603.232 301.178C603.542 302.058 603.676 302.99 603.627 303.921C603.577 304.853 603.344 305.765 602.942 306.607C602.54 307.448 601.976 308.202 601.283 308.826L597.199 312.497C595.918 313.65 594.261 314.296 592.539 314.317L572.078 314.557L564.779 305.366ZM513.41 293.985L495.611 288.426C494.273 288.008 493.066 287.25 492.109 286.225C491.152 285.2 490.478 283.943 490.152 282.579L489.224 278.697C488.729 276.625 489.07 274.441 490.173 272.619C491.276 270.796 493.052 269.482 495.116 268.961L499.817 267.775C501.493 267.352 503.262 267.478 504.862 268.134C506.462 268.791 507.81 269.943 508.708 271.422L515.062 281.885L513.41 293.985Z" fill="#99644C"/>
<path d="M560.51 257.617H502.01V316.163H560.51V257.617Z" fill="#448C04"/>
<path d="M529.511 317.44V317.452C529.49 317.596 529.526 317.742 529.611 317.86C529.696 317.977 529.824 318.057 529.967 318.081L539.942 319.668C541.016 319.84 542.114 319.77 543.158 319.465L547.746 318.169L550.385 319.516C551.305 319.989 552.368 320.103 553.367 319.834L561.983 317.554L562.053 317.535C562.352 317.464 562.655 317.409 562.96 317.37L562.953 317.357L581.328 314.442L568.721 306.346C566.443 303.724 564.597 303.571 562.129 303.348L557.789 302.967C556.217 302.873 554.648 303.202 553.246 303.919C552.389 304.37 551.473 304.695 550.524 304.885C547.84 305.456 543.633 306.441 543.633 306.441C543.299 306.549 543.008 306.76 542.801 307.044C542.595 307.328 542.484 307.671 542.485 308.022V308.18C542.517 308.606 542.717 309.002 543.041 309.28C543.364 309.559 543.785 309.697 544.21 309.666C545.105 309.608 550.441 309.323 552.11 309.266H552.123C552.255 309.265 552.384 309.305 552.493 309.38C552.602 309.455 552.685 309.561 552.732 309.685C552.777 309.806 552.782 309.939 552.747 310.063C552.712 310.188 552.637 310.298 552.535 310.377L550.885 311.666L540.924 315.851L531.672 315.711C531.173 315.704 530.687 315.869 530.295 316.177C529.902 316.485 529.627 316.919 529.515 317.406L529.511 317.44ZM502.361 275.365V294.256L505.14 295.139C506.173 295.463 507.1 296.059 507.823 296.866L514.625 304.588C514.632 304.588 514.638 304.595 514.638 304.595C514.691 304.645 514.755 304.685 514.824 304.711C514.893 304.737 514.967 304.748 515.041 304.745C515.115 304.742 515.187 304.725 515.254 304.693C515.321 304.662 515.381 304.618 515.431 304.563C515.97 303.858 515.926 302.747 515.253 301.89L509.645 294.461C509.461 294.264 509.771 293.89 509.994 294.036L521.491 301.675C521.498 301.682 521.504 301.682 521.51 301.687C521.633 301.771 521.785 301.803 521.931 301.776C522.077 301.749 522.207 301.664 522.291 301.542C522.742 300.779 522.558 299.687 521.777 298.913L511.594 290.62C511.554 290.585 511.526 290.539 511.514 290.488C511.501 290.437 511.505 290.383 511.524 290.334C511.55 290.272 511.599 290.224 511.661 290.199C511.723 290.174 511.792 290.174 511.854 290.2L524.816 296.182C524.823 296.182 524.829 296.189 524.836 296.189C524.9 296.222 524.971 296.242 525.043 296.248C525.115 296.254 525.188 296.245 525.257 296.223C525.326 296.201 525.39 296.165 525.445 296.118C525.5 296.07 525.545 296.013 525.578 295.948C525.915 295.122 525.553 294.068 524.677 293.427L512.527 286.29C512.448 286.245 512.386 286.175 512.35 286.092C512.315 286.008 512.308 285.915 512.33 285.826C512.343 285.773 512.366 285.723 512.398 285.679C512.43 285.635 512.471 285.597 512.517 285.569C512.564 285.54 512.616 285.522 512.67 285.513C512.724 285.505 512.779 285.508 512.832 285.521L525.387 288.49C525.399 288.49 525.406 288.497 525.419 288.497C525.489 288.516 525.563 288.52 525.636 288.51C525.708 288.5 525.778 288.475 525.841 288.438C525.904 288.401 525.959 288.352 526.003 288.293C526.047 288.235 526.079 288.168 526.098 288.097C526.263 287.227 525.704 286.262 524.715 285.805L510.439 280.795C510.344 280.763 510.249 280.725 510.16 280.674C509.718 280.432 509.389 280.026 509.247 279.542C509.104 279.059 509.158 278.539 509.398 278.096L509.405 278.057C509.561 277.771 509.777 277.522 510.038 277.327C510.298 277.132 510.598 276.995 510.916 276.926L513.994 276.266C514.774 276.107 515.497 275.74 516.087 275.205C516.601 274.698 516.988 274.081 516.988 273.472C516.988 273.383 516.981 273.294 516.963 273.205C516.956 273.173 516.95 273.142 516.938 273.11C516.904 273.017 516.853 272.931 516.786 272.858C516.719 272.785 516.639 272.726 516.549 272.684C516.46 272.642 516.362 272.618 516.264 272.614C516.165 272.61 516.066 272.625 515.973 272.659L506.589 275.047L504.285 275.105C503.629 275.117 502.989 275.207 502.361 275.365V275.365Z" fill="#99644C"/>
<path opacity="0.1" d="M565.157 210.284H570.033V208.683C570.033 207.691 569.23 206.887 568.239 206.887H563.363V208.488C563.362 208.724 563.409 208.958 563.499 209.176C563.589 209.393 563.721 209.591 563.888 209.758C564.054 209.925 564.252 210.057 564.47 210.147C564.688 210.238 564.921 210.284 565.157 210.284V210.284Z" fill="#002652"/>
<path d="M569.899 265.733H582.969V227.912H573.07C572.229 227.912 571.422 228.247 570.827 228.842C570.232 229.438 569.898 230.245 569.898 231.087V265.733H569.899Z" fill="#2C5F2D"/>
<path d="M570.037 265.733H564.07V227.912H566.864C567.706 227.912 568.513 228.247 569.108 228.842C569.703 229.438 570.037 230.245 570.037 231.087V265.733Z" fill="#2C5F2D"/>
<path d="M583.128 253.789H563.252V274.832H583.128V253.789Z" fill="#2C5F2D"/>
<path opacity="0.1" d="M554.642 206.756C554.836 206.82 556.294 206.811 557.505 206.791C557.723 206.787 557.94 206.827 558.143 206.908C558.346 206.99 558.53 207.11 558.686 207.264C558.841 207.417 558.965 207.6 559.049 207.801C559.133 208.003 559.176 208.219 559.176 208.437V208.718C559.176 209.297 559.081 209.871 558.895 210.42L557.878 213.408C557.736 213.826 557.751 214.282 557.922 214.689C558.093 215.097 558.407 215.427 558.804 215.619L560.424 216.399V216.886C560.424 217.148 560.528 217.4 560.713 217.585C560.898 217.77 561.149 217.875 561.411 217.875H563.031V218.555C563.031 219.683 562.117 220.597 560.991 220.597H556.376L554.642 206.756Z" fill="#002652"/>
<path d="M608.838 432.166L606.148 464.15L605.233 475.046L604.733 480.997L604.585 482.758L604.106 488.45L603.871 491.258L603.515 495.527L603.494 495.771L597.393 496.926C595.949 497.202 594.418 497.491 593.005 497.765C592.207 497.915 591.45 498.062 590.764 498.195C589.002 498.532 587.731 498.784 587.569 498.824L587.522 498.31L587.389 496.854L586.331 485.401L585.147 472.556L581.157 429.219L576.455 397.026L599.949 392.52L608.377 426.383C608.845 428.273 609.001 430.226 608.838 432.166V432.166Z" fill="#97BC62"/>
<path d="M585.867 480.411L586.33 485.403L587.39 496.858L587.523 498.312L587.567 498.827C587.732 498.788 589.001 498.535 590.765 498.198C591.449 498.065 592.205 497.919 593.004 497.766C594.419 497.492 595.948 497.201 597.388 496.928L603.491 495.773L603.511 495.532L603.872 491.259L604.107 488.452L604.583 482.762L604.735 480.997L604.786 480.413H585.867V480.411Z" fill="#016EEA"/>
<path d="M585.867 480.411L586.33 485.403L587.39 496.858L587.523 498.312L587.567 498.827C587.732 498.788 589.001 498.535 590.765 498.198C591.449 498.065 592.205 497.919 593.004 497.766C594.419 497.492 595.948 497.201 597.388 496.928L603.491 495.773L603.511 495.532L603.872 491.259L604.107 488.452L604.583 482.762L604.735 480.997L604.786 480.413H585.867V480.411Z" fill="white"/>
<path d="M607.029 512.087H584.118L582.886 506.421C582.532 504.791 582.76 503.088 583.531 501.609L586.609 495.709L595.9 490.468L605.248 495.709L606.866 499.879C608.129 503.134 608.358 506.7 607.52 510.09L607.029 512.087Z" fill="#2C5F2D"/>
<path d="M603.658 517H587.874C586.985 517 586.194 516.514 585.908 515.792L584.311 511.759H607.222L605.624 515.792C605.337 516.514 604.547 517 603.658 517Z" fill="black"/>
<path d="M600.052 489.157H591.479C590.879 489.157 590.304 489.395 589.881 489.819C589.457 490.243 589.219 490.818 589.219 491.418V501.932H602.312V491.418C602.312 490.818 602.073 490.243 601.65 489.819C601.226 489.395 600.651 489.157 600.052 489.157V489.157Z" fill="#2C5F2D"/>
<path d="M586.83 252.162H569.064V257.559H586.83V252.162Z" fill="#97BC62"/>
<path d="M499 292.324L502.628 294.345L502.856 275.285L495.924 276.505V287.086C495.924 288.154 496.209 289.203 496.75 290.124C497.291 291.045 498.068 291.804 499 292.324V292.324Z" fill="#99644C"/>
<path d="M560.051 201.225H570.324V193.363H577.243V212.917C577.243 214.322 577.684 215.691 578.505 216.831L580.388 219.447C580.782 219.994 580.992 220.651 580.99 221.324L580.988 222.289C580.986 223.075 580.672 223.828 580.116 224.383C579.56 224.938 578.806 225.25 578.021 225.249H576.9V222.713C576.9 221.375 575.818 220.291 574.481 220.291C573.379 220.29 572.321 219.852 571.542 219.071C570.762 218.29 570.324 217.232 570.324 216.129V212.608C570.324 211.084 569.871 209.594 569.023 208.329C568.175 207.063 566.97 206.079 565.561 205.501L560.051 203.239V201.225Z" fill="black"/>
<path d="M571.267 186H573.089C580.774 186 587.004 192.235 587.004 199.926V203.508H553.839V203.441C553.841 193.809 561.643 186 571.267 186Z" fill="#002652"/>
</g>
<g clip-path="url(#clip9_880_1777)">
<path d="M569.828 185H571.824C580.205 185 587 191.598 587 199.736V204.045C587 204.298 586.896 204.541 586.712 204.72C586.527 204.899 586.277 205 586.016 205H552.735C552.474 205 552.224 204.899 552.039 204.72C551.855 204.541 551.751 204.298 551.751 204.045V202.555C551.751 192.86 559.844 185 569.828 185Z" fill="#97BC62"/>
<path d="M571.605 202.702H543.333C542.714 202.702 542.121 202.941 541.683 203.366C541.246 203.79 541 204.367 541 204.968H571.605V202.702Z" fill="#97BC62"/>
</g>
<defs>
<clipPath id="clip0_880_1777">
<rect width="80" height="201" fill="white" transform="translate(588 235)"/>
</clipPath>
<clipPath id="clip1_880_1777">
<rect width="93" height="301" fill="white" transform="translate(665 183)"/>
</clipPath>
<clipPath id="clip2_880_1777">
<rect width="80" height="150" fill="white" transform="translate(140 265)"/>
</clipPath>
<clipPath id="clip3_880_1777">
<rect width="560" height="452" fill="white" transform="translate(134 49)"/>
</clipPath>
<clipPath id="clip4_880_1777">
<rect width="93" height="301" fill="white" transform="translate(50 184)"/>
</clipPath>
<clipPath id="clip5_880_1777">
<rect width="108" height="212" fill="white" transform="translate(465 200)"/>
</clipPath>
<clipPath id="clip6_880_1777">
<rect width="62" height="62" fill="white" transform="translate(316 40)"/>
</clipPath>
<clipPath id="clip7_880_1777">
<rect width="502" height="203" fill="white" transform="translate(94 291)"/>
</clipPath>
<clipPath id="clip8_880_1777">
<rect width="137" height="331" fill="white" transform="matrix(-1 0 0 1 626 186)"/>
</clipPath>
<clipPath id="clip9_880_1777">
<rect width="46" height="20" fill="white" transform="translate(541 185)"/>
</clipPath>
</defs>
</svg>
